<svg id="svg" version="1.1" xmlns="http://www.w3.org/2000/svg" viewBox="0 0 634 643" style="display: block;"><path d="M0 0 C209.22 0 418.44 0 634 0 C634 212.19 634 424.38 634 643 C424.78 643 215.56 643 0 643 C0 430.81 0 218.62 0 0 Z " transform="translate(0,0)" style="fill: #C50C46;"/><path d="M0 0 C209.22 0 418.44 0 634 0 C634 212.19 634 424.38 634 643 C424.78 643 215.56 643 0 643 C0 430.81 0 218.62 0 0 Z M17 21 C17 219 17 417 17 621 C215 621 413 621 617 621 C617 423 617 225 617 21 C419 21 221 21 17 21 Z " transform="translate(0,0)" style="fill: #FEFEFE;"/><path d="M0 0 C1.1074205 0.00614822 1.1074205 0.00614822 2.23721313 0.01242065 C48.46628907 0.31112148 98.60104217 10.64419154 135.4375 40.25 C136.07558594 40.7346875 136.71367187 41.219375 137.37109375 41.71875 C140.94358742 44.49834607 143.12351151 47.42301903 145.4375 51.25 C138.68530457 50.01712266 132.18878495 48.3665947 125.625 46.375 C115.74362546 43.46364259 105.82135733 41.38581645 95.67578125 39.63623047 C93.74004846 39.30220677 91.80721323 38.95147161 89.875 38.59765625 C64.33972308 34.04253524 33.7673278 33.34713184 8.4375 39.25 C7.15552734 39.54801514 7.15552734 39.54801514 5.84765625 39.85205078 C-36.1093951 50.0139999 -70.45382416 76.1721509 -93.05371094 112.72949219 C-116.3389894 151.62871789 -128.23490444 195.74165948 -132.6875 240.625 C-132.76315186 241.37740967 -132.83880371 242.12981934 -132.91674805 242.9050293 C-133.80796432 252.67416947 -134.09522323 262.43718776 -134.5625 272.25 C-159.3125 272.25 -184.0625 272.25 -209.5625 272.25 C-209.5625 241.96777289 -209.5625 241.96777289 -207.8125 227.5 C-207.62782769 225.89910969 -207.44334204 224.29819783 -207.2590332 222.69726562 C-205.85920195 210.77770364 -204.14317412 198.97682703 -201.5625 187.25 C-201.32692383 186.16412598 -201.09134766 185.07825195 -200.84863281 183.95947266 C-189.61920245 132.97616804 -168.34332035 79.18800425 -126.5625 45.25 C-125.08910156 44.02023438 -125.08910156 44.02023438 -123.5859375 42.765625 C-101.23983352 24.42048129 -75.60200978 12.13293223 -47.5625 5.5 C-46.32870605 5.20601318 -45.09491211 4.91202637 -43.82373047 4.60913086 C-29.1688959 1.26705472 -14.9841918 -0.11932366 0 0 Z " transform="translate(289.5625,183.75)" style="fill: #FEFDFD;"/><path d="M0 0 C5.75731783 3.83065635 9.72949813 9.32199656 11.875 15.875 C12.98149369 24.76189145 11.71362889 31.37793838 6.875 38.875 C6.2975 39.803125 5.72 40.73125 5.125 41.6875 C-1.12993265 47.76868452 -9.35954979 51.16281379 -18 51.125 C-27.78472847 50.91140406 -32.84129354 49.10456304 -39.9453125 42.28125 C-45.76130125 35.86073196 -45.73738821 28.96899263 -45.52734375 20.5 C-44.59396723 12.09054944 -39.93662117 6.88515292 -33.58203125 1.60546875 C-23.17424933 -5.72465429 -11.06213891 -6.23426045 0 0 Z " transform="translate(310.125,405.125)" style="fill: #FCF6F7;"/><path d="M0 0 C4.51651109 -0.12483978 9.03207334 -0.2149125 13.54980469 -0.2746582 C15.0822095 -0.29959759 16.61449792 -0.33356266 18.14648438 -0.37719727 C27.29854021 -0.63108915 35.26958011 -0.63225148 43 5 C45.5 7.5625 45.5 7.5625 47 10 C47.52980469 10.84111328 47.52980469 10.84111328 48.0703125 11.69921875 C50.3807301 17.41701693 49.86576621 25.61469858 48.34765625 31.55078125 C45.44316566 37.97057804 39.83674665 42.74676685 33.3659668 45.41333008 C27.74880051 46.80617401 21.81202862 46.29802775 16.0625 46.1875 C14.69728034 46.17242992 13.33204465 46.15874561 11.96679688 46.14648438 C8.64411904 46.11126164 5.32226819 46.06200041 2 46 C2.9746521 45.0112085 2.9746521 45.0112085 3.96899414 44.00244141 C6.49434716 40.26920526 6.56301166 37.31153126 6.49609375 32.9609375 C6.49754898 32.19826569 6.49900421 31.43559387 6.50050354 30.64981079 C6.49884942 29.04449628 6.48734273 27.43916511 6.46655273 25.83398438 C6.43750732 23.37561966 6.44597013 20.91940133 6.45898438 18.4609375 C6.45274907 16.89842702 6.44435974 15.33592333 6.43359375 13.7734375 C6.43652939 13.03902435 6.43946503 12.30461121 6.44248962 11.54794312 C6.37744211 7.57079752 6.37744211 7.57079752 4.66040039 4.07666016 C2.87068007 2.81755117 2.87068007 2.81755117 0 2 C0 1.34 0 0.68 0 0 Z " transform="translate(392,300)" style="fill: #FCF7F7;"/><path d="M0 0 C3.69806227 2.7319732 6.76572745 6.23067364 8.82421875 10.34765625 C9.62245182 18.52196701 10.05904383 25.94244792 4.640625 32.60546875 C-0.38441321 37.42518281 -4.80091154 38.58511818 -11.73828125 38.84765625 C-18.81867719 38.61000407 -22.49511766 37.1007702 -27.48828125 31.97265625 C-31.65614912 25.48930623 -32.19888889 18.61201011 -30.74609375 11.13671875 C-28.76034138 4.73818333 -24.47613678 1.31002981 -18.86328125 -2.02734375 C-12.18288915 -3.58092331 -6.038742 -3.41746251 0 0 Z " transform="translate(281.17578125,355.65234375)" style="fill: #C50F47;"/><path d="M0 0 C4.80738485 1.94584625 8.28560204 5.64952656 11 10 C14.98094771 19.61551984 16.62779274 27.972162 12.98046875 37.88671875 C11.04418539 42.06014224 8.63809386 45.07594705 4.5625 47.375 C-0.33718193 48.57004437 -2.92863414 48.55481446 -7.5 46.1875 C-12.86684666 42.03713858 -16.87553944 34.6849798 -18 28 C-18.65889338 18.62427119 -18.89927748 10.88493094 -12.6796875 3.4140625 C-8.58523769 -0.63563922 -5.4002884 -0.68575091 0 0 Z " transform="translate(295,405)" style="fill: #C61048;"/><path d="M0 0 C3.31232414 0.94114007 5.80048059 0.37781305 9.1171875 -0.3984375 C9.9492457 5.32196261 10.23755414 10.82396366 10.1171875 16.6015625 C9.4571875 16.6015625 8.7971875 16.6015625 8.1171875 16.6015625 C6.78515625 14.7734375 6.78515625 14.7734375 5.3046875 12.3515625 C2.52199141 8.02443607 -0.21754895 4.93419428 -4.8828125 2.6015625 C-9.66264452 2.20131892 -14.25328061 2.04682824 -18.8203125 3.6015625 C-23.03389564 7.6874613 -25.07998179 12.59873909 -25.37890625 18.44140625 C-25.38021645 20.14073674 -25.36042262 21.84020494 -25.3203125 23.5390625 C-25.33094727 24.80266602 -25.33094727 24.80266602 -25.34179688 26.09179688 C-25.26878496 33.38737168 -24.1441159 39.95418291 -19.3203125 45.6015625 C-15.24680852 48.94392474 -11.99977541 48.86448945 -6.8828125 48.6015625 C-4.52751969 48.18425232 -4.52751969 48.18425232 -2.8828125 47.6015625 C-1.81557289 44.13933635 -1.78107764 40.96116984 -1.8203125 37.3515625 C-1.82933594 36.27390625 -1.83835937 35.19625 -1.84765625 34.0859375 C-1.85925781 33.26609375 -1.87085938 32.44625 -1.8828125 31.6015625 C-3.8628125 30.6115625 -5.8428125 29.6215625 -7.8828125 28.6015625 C-7.8828125 27.6115625 -7.8828125 26.6215625 -7.8828125 25.6015625 C0.0371875 25.6015625 7.9571875 25.6015625 16.1171875 25.6015625 C15.1171875 28.6015625 15.1171875 28.6015625 13.1015625 30.3046875 C10.38769631 33.44593419 10.44979106 36.37908204 10.3671875 40.3515625 C10.32271484 41.39763672 10.32271484 41.39763672 10.27734375 42.46484375 C10.20700292 44.17647063 10.15978804 45.88902065 10.1171875 47.6015625 C8.55697883 48.25291175 6.99390171 48.89739214 5.4296875 49.5390625 C4.12451172 50.07853516 4.12451172 50.07853516 2.79296875 50.62890625 C-5.62818029 53.69002466 -15.83333154 54.05638563 -24.3203125 51.1015625 C-30.87354536 48.0297346 -35.21879449 43.00965069 -37.8203125 36.2890625 C-39.97562899 28.46256951 -39.88937123 20.99569315 -36.125 13.7265625 C-35.71507812 13.0253125 -35.30515625 12.3240625 -34.8828125 11.6015625 C-34.49351562 10.9003125 -34.10421875 10.1990625 -33.703125 9.4765625 C-25.92296923 -2.67705361 -12.61310484 -4.80285487 0 0 Z " transform="translate(501.8828125,403.3984375)" style="fill: #FBF4F5;"/><path d="M0 0 C13.2 0 26.4 0 40 0 C40 4.29 40 8.58 40 13 C39.01 12.67 38.02 12.34 37 12 C36.31867549 10.33927151 35.65257873 8.672233 35 7 C30.25368713 3.83579142 25.63243123 4.87887245 20 5 C19.67 10.94 19.34 16.88 19 23 C26.02710617 22.26078456 26.02710617 22.26078456 31.5 18.375 C31.995 17.59125 32.49 16.8075 33 16 C33.66 16 34.32 16 35 16 C35 21.94 35 27.88 35 34 C34.01 34 33.02 34 32 34 C31.71125 33.195625 31.4225 32.39125 31.125 31.5625 C30.26737432 28.8673532 30.26737432 28.8673532 28 28 C25.03 27.67 22.06 27.34 19 27 C19.495 37.395 19.495 37.395 20 48 C27.89531583 48.49345724 32.91031626 48.29472502 39 43 C40.8126505 40.83779383 40.8126505 40.83779383 42 39 C42.66 39 43.32 39 44 39 C43.96652475 40.39683082 43.89668216 41.79280637 43.8125 43.1875 C43.77769531 43.96480469 43.74289062 44.74210937 43.70703125 45.54296875 C42.65792402 49.18876128 40.95288645 50.6434998 38 53 C35.00808557 53.43857267 32.60985115 53.58901776 29.63671875 53.48828125 C28.84473587 53.48120651 28.05275299 53.47413177 27.23677063 53.46684265 C24.71936611 53.43896244 22.20422644 53.376242 19.6875 53.3125 C17.9759437 53.28740861 16.26435235 53.26459691 14.55273438 53.24414062 C10.36762346 53.18915747 6.18419504 53.10293418 2 53 C3 50 3 50 6 48 C6.44925611 46.12445567 6.44925611 46.12445567 6.37231445 43.94921875 C6.38165764 42.69782104 6.38165764 42.69782104 6.39118958 41.42114258 C6.38197983 40.51904053 6.37277008 39.61693848 6.36328125 38.6875 C6.36377975 37.76283936 6.36427826 36.83817871 6.36479187 35.88549805 C6.36244907 33.92852634 6.35270846 31.97155176 6.33618164 30.01464844 C6.31259503 27.0120969 6.3156183 24.01043306 6.32226562 21.0078125 C6.31668892 19.10936968 6.30957909 17.21093062 6.30078125 15.3125 C6.30169266 14.41039795 6.30260406 13.5082959 6.30354309 12.57885742 C6.29401108 11.74459229 6.28447906 10.91032715 6.2746582 10.05078125 C6.27005081 9.31512939 6.26544342 8.57947754 6.26069641 7.8215332 C6.15007064 5.75020762 6.15007064 5.75020762 4 4 C1.93125966 3.3574765 1.93125966 3.3574765 0 3 C0 2.01 0 1.02 0 0 Z " transform="translate(416,402)" style="fill: #FBF3F4;"/><path d="M0 0 C5.53588533 -0.02464775 11.071739 -0.04283496 16.60766602 -0.05493164 C18.4924373 -0.05997244 20.37720465 -0.06680498 22.26196289 -0.07543945 C24.96501636 -0.08751617 27.66801831 -0.09323068 30.37109375 -0.09765625 C31.21900986 -0.10281754 32.06692596 -0.10797882 32.9405365 -0.11329651 C34.96071068 -0.11349195 36.98077934 -0.06206211 39 0 C40 1 40 1 40.09765625 3.72265625 C40.08605469 4.82480469 40.07445312 5.92695313 40.0625 7.0625 C40.05347656 8.16722656 40.04445313 9.27195312 40.03515625 10.41015625 C40.02355469 11.26480469 40.01195312 12.11945313 40 13 C39.01 13 38.02 13 37 13 C36.7525 12.05125 36.505 11.1025 36.25 10.125 C35.33102818 7.00351534 35.33102818 7.00351534 33.3125 5.8125 C30.35660358 4.7739418 27.87592859 4.80704503 24.75 4.875 C22.8525 4.91625 20.955 4.9575 19 5 C19 10.61 19 16.22 19 22 C26.49152482 22.73960026 26.49152482 22.73960026 30 20 C31.19232613 17.94996045 31.19232613 17.94996045 32 16 C32.66 16 33.32 16 34 16 C34 21.94 34 27.88 34 34 C33.34 34 32.68 34 32 34 C31.484375 33.01 30.96875 32.02 30.4375 31 C28.40466645 27.79682595 28.40466645 27.79682595 25.79321289 27.70703125 C24.58266235 27.75923828 24.58266235 27.75923828 23.34765625 27.8125 C22.53433838 27.83957031 21.72102051 27.86664063 20.88305664 27.89453125 C19.9509436 27.94673828 19.9509436 27.94673828 19 28 C18.97111486 31.14581423 18.95324077 34.29159469 18.9375 37.4375 C18.92912109 38.33533203 18.92074219 39.23316406 18.91210938 40.15820312 C18.90888672 41.01220703 18.90566406 41.86621094 18.90234375 42.74609375 C18.89710693 43.53685303 18.89187012 44.3276123 18.88647461 45.14233398 C18.79504091 47.01592689 18.79504091 47.01592689 20 48 C26.00095551 48.5235733 31.05477151 48.82856399 36 45 C36.66 45 37.32 45 38 45 C38.309375 44.38125 38.61875 43.7625 38.9375 43.125 C39.625 41.75 40.3125 40.375 41 39 C41.66 39 42.32 39 43 39 C43.29557392 44.02475668 43.0282379 46.92352591 40 51 C38 53 38 53 34.37646484 53.22705078 C32.82125311 53.22673357 31.26601949 53.21540299 29.7109375 53.1953125 C28.48330185 53.19106766 28.48330185 53.19106766 27.23086548 53.18673706 C24.61209607 53.17552532 21.99366636 53.15041929 19.375 53.125 C17.60156743 53.11497147 15.82812951 53.1058454 14.0546875 53.09765625 C9.70299374 53.07558278 5.3515545 53.04104644 1 53 C1 52.34 1 51.68 1 51 C2.65 50.34 4.3 49.68 6 49 C6.04939701 43.07349874 6.08571817 37.14711703 6.10986328 31.22045898 C6.11992773 29.20383619 6.13358047 27.18722801 6.15087891 25.1706543 C6.17510769 22.27388911 6.18647859 19.37731669 6.1953125 16.48046875 C6.20563507 15.57725388 6.21595764 14.674039 6.22659302 13.74345398 C6.22674408 12.90280899 6.22689514 12.062164 6.22705078 11.19604492 C6.231492 10.45658127 6.23593323 9.71711761 6.24050903 8.95524597 C6.10875987 6.67675749 6.10875987 6.67675749 4 4 C1.44816596 2.79549696 1.44816596 2.79549696 -1 2 C-0.67 1.34 -0.34 0.68 0 0 Z " transform="translate(520,402)" style="fill: #FDF9F9;"/><path d="M0 0 C12.6730456 -1.52076547 12.6730456 -1.52076547 17.9765625 1.9453125 C20.51350611 4.51367337 22.77586089 7.15781858 25 10 C26.22245494 11.40171513 27.45100757 12.798152 28.6875 14.1875 C29.2340625 14.82558594 29.780625 15.46367187 30.34375 16.12109375 C33.08254212 19.22807255 36.0419432 22.10400033 39 25 C40.33402949 26.33263681 41.66743934 27.66589444 43 29 C42.91923802 25.22828169 42.80638565 21.45819404 42.6875 17.6875 C42.65366211 16.0797168 42.65366211 16.0797168 42.61914062 14.43945312 C42.58369141 13.41142578 42.54824219 12.38339844 42.51171875 11.32421875 C42.48553467 10.37635498 42.45935059 9.42849121 42.43237305 8.4519043 C41.93016163 5.60396007 41.25536623 4.74479496 39 3 C36.90010348 1.82425289 36.90010348 1.82425289 35 1 C35 0.67 35 0.34 35 0 C40.94 0 46.88 0 53 0 C53 0.66 53 1.32 53 2 C52.18958252 2.50821289 51.37916504 3.01642578 50.54418945 3.54003906 C47.29963098 6.67718245 47.38533645 8.34800759 47.28105164 12.70428467 C47.28695061 14.01855438 47.28695061 14.01855438 47.29296875 15.359375 C47.27784744 16.26375305 47.26272614 17.1681311 47.24714661 18.09991455 C47.20421844 20.98352898 47.19542677 23.86609767 47.1875 26.75 C47.16435964 28.70705915 47.13899527 30.66409336 47.11132812 32.62109375 C47.04842522 37.41415515 47.01612994 42.20656219 47 47 C44.21192526 45.72740361 42.16713732 44.41609041 40.01171875 42.2421875 C39.47409912 41.70327881 38.93647949 41.16437012 38.38256836 40.60913086 C37.8231958 40.03686768 37.26382324 39.46460449 36.6875 38.875 C36.10427979 38.28533447 35.52105957 37.69566895 34.92016602 37.08813477 C31.43771715 33.54343852 28.11108569 29.91267093 24.8984375 26.12109375 C20.49509621 21.2013112 15.70179183 16.63230722 11 12 C10.92578546 15.93260944 10.87136864 19.86494722 10.83520508 23.7980957 C10.81271667 25.79327701 10.77459802 27.78826213 10.73632812 29.78320312 C10.72666016 31.03681641 10.71699219 32.29042969 10.70703125 33.58203125 C10.6913208 34.73936768 10.67561035 35.8967041 10.65942383 37.08911133 C10.75339799 39.99132169 10.75339799 39.99132169 12.3815918 41.8581543 C14.23082425 43.16285488 15.7819623 43.61757971 18 44 C18 44.66 18 45.32 18 46 C12.06 46 6.12 46 0 46 C0 45.34 0 44.68 0 44 C0.8142041 43.45802979 1.6284082 42.91605957 2.46728516 42.35766602 C5.34206903 40.16293889 5.34206903 40.16293889 5.58349609 36.47241211 C5.58943857 35.07392532 5.56783885 33.67513813 5.5234375 32.27734375 C5.51873444 31.53545303 5.51403137 30.79356232 5.50918579 30.02919006 C5.48787901 27.66433976 5.43129736 25.30174841 5.375 22.9375 C5.35848799 21.34312013 5.34414118 19.74871626 5.33203125 18.15429688 C5.45060935 10.46294806 5.45060935 10.46294806 4 3 C1.98491642 2.26676204 1.98491642 2.26676204 0 2 C0 1.34 0 0.68 0 0 Z " transform="translate(338,300)" style="fill: #FBF3F4;"/><path d="M0 0 C3.24488572 0.28843429 4.88732791 0.03755736 8 -1 C8.99250545 4.70690634 9.10477512 10.21408489 9 16 C8.34 16 7.68 16 7 16 C5.66796875 14.171875 5.66796875 14.171875 4.1875 11.75 C1.15590224 7.0473264 -1.5670462 3.8109846 -7 2 C-11.46943849 1.60608339 -15.6130724 1.5175904 -19.875 3 C-23.99066152 6.87356378 -26.16445327 11.80587337 -26.53125 17.4375 C-26.54170246 18.95833309 -26.53113755 20.47944977 -26.5 22 C-26.51546875 22.75539063 -26.5309375 23.51078125 -26.546875 24.2890625 C-26.50121827 30.93211693 -24.38975573 35.81365903 -20.4296875 41.09375 C-17.13743422 44.07166754 -14.60866227 45.42989829 -10.125 45.6875 C-2.6517144 45.22041965 3.01421895 41.38464354 8 36 C8.66 36 9.32 36 10 36 C9.88394727 39.82974007 8.52703427 41.85454641 6 44.5625 C-1.1811501 51.20687727 -7.97851637 52.68356847 -17.6875 52.390625 C-22.18641839 51.86009217 -25.31643176 50.56951346 -29 48 C-29.886875 47.46375 -30.77375 46.9275 -31.6875 46.375 C-36.71704828 41.20951799 -40.11088123 33.66008297 -40.25 26.4375 C-40.13357051 18.43879401 -38.12136429 11.08406245 -32.984375 4.828125 C-22.95532701 -4.41123418 -11.99997853 -4.96550836 0 0 Z " transform="translate(250,404)" style="fill: #FBF3F4;"/><path d="M0 0 C2.31 0 4.62 0 7 0 C7.495 6.93 7.495 6.93 8 14 C4 12 4 12 2.125 9.125 C-0.31853093 5.53157217 -2.09868458 3.91385285 -6 2 C-10.65181571 1.18154768 -14.05560718 1.58026986 -18.375 3.5 C-23.73090996 8.60086663 -24.1913863 13.8454208 -24.375 20.9375 C-24.19053398 28.1163027 -23.66328629 34.81377231 -18.3125 40.0625 C-13.99727993 42.58649665 -11.92773261 42.56547751 -7 42 C-3.75150023 40.27773504 -3.75150023 40.27773504 -3 37 C-2.55169091 33.91858437 -2.38388212 31.06393757 -3 28 C-5.86615486 25.50459629 -5.86615486 25.50459629 -9 24 C-9 23.34 -9 22.68 -9 22 C-2.07 22 4.86 22 12 22 C12 22.99 12 23.98 12 25 C11.01 25.66 10.02 26.32 9 27 C8.41312216 30.34613512 8.41312216 30.34613512 8.3125 34.125 C8.24675781 35.40632813 8.18101562 36.68765625 8.11328125 38.0078125 C8.07589844 38.99523437 8.03851563 39.98265625 8 41 C6.41800369 41.64910154 4.83434276 42.29414694 3.25 42.9375 C1.92742187 43.47697266 1.92742187 43.47697266 0.578125 44.02734375 C-6.66979116 46.76178484 -15.01857497 47.31373758 -22.4375 44.8125 C-27.50672524 42.23342049 -32.69298066 37.93946675 -34.5546875 32.328125 C-36.14939909 23.9908609 -36.3072369 15.01852122 -31.48828125 7.796875 C-23.09307253 -2.33907254 -12.19688883 -4.53837724 0 0 Z " transform="translate(246,301)" style="fill: #FBF4F5;"/><path d="M0 0 C7.92 0 15.84 0 24 0 C24 0.99 24 1.98 24 3 C23.34805664 3.36134033 22.69611328 3.72268066 22.02441406 4.0949707 C19.59865905 6.37767287 19.68057284 6.97522397 19.54589844 10.19604492 C19.54653155 11.95764649 19.56911988 13.71932707 19.609375 15.48046875 C19.61503479 16.40845779 19.62069458 17.33644684 19.62652588 18.29255676 C19.64892624 21.25806146 19.69912927 24.2223602 19.75 27.1875 C19.77006027 29.19724818 19.78831187 31.20701529 19.8046875 33.21679688 C19.84880304 38.14499629 19.91785576 43.07229365 20 48 C21.57524291 48.04595246 23.15088078 48.07846931 24.7265625 48.10546875 C25.60393066 48.12504639 26.48129883 48.14462402 27.38525391 48.16479492 C32.95065688 47.81403423 36.82457329 45.29296938 40.5 41.25 C40.995 40.5075 41.49 39.765 42 39 C42.99 39.33 43.98 39.66 45 40 C44.75530974 47.21836265 44.75530974 47.21836265 41.47851562 50.609375 C37.64478 53.68737627 34.30459685 53.65085007 29.5390625 53.48828125 C28.74849457 53.48120651 27.95792664 53.47413177 27.1434021 53.46684265 C24.63627567 53.43901463 22.13144288 53.37630474 19.625 53.3125 C17.91800117 53.28740184 16.21096708 53.26459133 14.50390625 53.24414062 C10.33506352 53.18922691 6.16791962 53.10304076 2 53 C3 50 3 50 6 48 C6.43636428 46.02744865 6.43636428 46.02744865 6.34057617 43.73388672 C6.34023628 42.41274368 6.34023628 42.41274368 6.33988953 41.06491089 C6.32440567 40.11278717 6.30892181 39.16066345 6.29296875 38.1796875 C6.28660149 36.71899338 6.28660149 36.71899338 6.28010559 35.22879028 C6.26327786 32.11058195 6.22561811 28.99301383 6.1875 25.875 C6.17245846 23.76433223 6.15876914 21.65365436 6.14648438 19.54296875 C6.11336109 14.36175977 6.06312151 9.18092561 6 4 C3.03 3.505 3.03 3.505 0 3 C0 2.01 0 1.02 0 0 Z " transform="translate(370,402)" style="fill: #FBF3F4;"/><path d="M0 0 C7.92 0 15.84 0 24 0 C23 3 23 3 20.96191406 4.58886719 C17.92954591 8.31555557 18.50223915 11.91776761 18.609375 16.578125 C18.61503479 17.5046991 18.62069458 18.43127319 18.62652588 19.38592529 C18.64889079 22.34114562 18.69908738 25.29514705 18.75 28.25 C18.77006485 30.2551908 18.78831565 32.26040064 18.8046875 34.265625 C18.848756 39.17755194 18.91778445 44.08856942 19 49 C20.76345346 48.86355349 22.52638268 48.72032016 24.2890625 48.57421875 C25.27084473 48.49518311 26.25262695 48.41614746 27.26416016 48.3347168 C32.44731521 47.7005828 35.49890456 45.80059577 38.6875 41.8125 C39.450625 40.884375 40.21375 39.95625 41 39 C41.99 39 42.98 39 44 39 C44.61514196 46.25867508 44.61514196 46.25867508 41.5625 49.9375 C40.716875 50.618125 39.87125 51.29875 39 52 C38.67 52.33 38.34 52.66 38 53 C35.33573315 53.16003488 32.69439572 53.25942889 30.02734375 53.31640625 C28.83087975 53.3475779 28.83087975 53.3475779 27.61024475 53.37937927 C25.05275389 53.44496158 22.4951572 53.50379967 19.9375 53.5625 C18.20767118 53.60567699 16.47785321 53.64929101 14.74804688 53.69335938 C10.4988074 53.80065172 6.2494611 53.90189426 2 54 C1.505 52.515 1.505 52.515 1 51 C1.813479 50.36408936 2.62695801 49.72817871 3.46508789 49.07299805 C6.89691816 44.91269297 6.6797243 42.05913137 6.55859375 36.83203125 C6.55509666 35.51799568 6.55509666 35.51799568 6.55152893 34.17741394 C6.54181237 32.33245048 6.5200734 30.48751593 6.48706055 28.64282227 C6.43748364 25.81156544 6.42556898 22.98204312 6.41992188 20.15039062 C6.40584192 18.35675225 6.38963969 16.56312901 6.37109375 14.76953125 C6.36573105 13.92058792 6.36036835 13.07164459 6.35484314 12.19697571 C6.45873333 7.62098486 6.45873333 7.62098486 4 4 C1.93125966 3.3574765 1.93125966 3.3574765 0 3 C0 2.01 0 1.02 0 0 Z " transform="translate(325,402)" style="fill: #FDFAFA;"/><path d="M0 0 C3.18622848 2.64403163 4.56428065 6.01552434 6.1796875 9.72265625 C6.47432892 10.38277206 6.76897034 11.04288788 7.07254028 11.7230072 C8.01321966 13.83334242 8.94454767 15.94763828 9.875 18.0625 C14.71836089 29.04279905 14.71836089 29.04279905 19.7578125 39.93359375 C20.30526123 41.09266235 20.30526123 41.09266235 20.86376953 42.27514648 C21.96335456 44.33127303 21.96335456 44.33127303 25 45 C25 45.66 25 46.32 25 47 C18.07 47 11.14 47 4 47 C4.99 46.01 5.98 45.02 7 44 C7.39956892 39.60474184 7.11118375 36.82704624 5 33 C2.3941111 32.86505754 -0.20482111 32.76597701 -2.8125 32.6875 C-3.91948242 32.6246582 -3.91948242 32.6246582 -5.04882812 32.56054688 C-7.48739846 32.45136393 -7.48739846 32.45136393 -11 33 C-13.61200001 36.10952383 -14.4306729 39.01471033 -15 43 C-12.69 43.66 -10.38 44.32 -8 45 C-8 45.66 -8 46.32 -8 47 C-13.28 47 -18.56 47 -24 47 C-24 46.34 -24 45.68 -24 45 C-23.39639648 44.41323486 -22.79279297 43.82646973 -22.17089844 43.22192383 C-19.75832122 40.75264073 -18.65966405 38.59675457 -17.265625 35.44921875 C-16.77739258 34.36431152 -16.28916016 33.2794043 -15.78613281 32.16162109 C-15.27920898 31.01516113 -14.77228516 29.86870117 -14.25 28.6875 C-9.84142596 18.9082598 -5.24924767 9.35601202 0 0 Z " transform="translate(460,299)" style="fill: #FCF5F6;"/><path d="M0 0 C11.88 0 23.76 0 36 0 C36 3.63 36 7.26 36 11 C35.01 10.67 34.02 10.34 33 10 C32.29788106 8.34795544 31.63028587 6.68076231 31 5 C27.14854957 3.07427479 22.19956748 3.95116782 18 4 C18 8.95 18 13.9 18 19 C23.59373338 18.91917469 23.59373338 18.91917469 27.875 15.9375 C28.431875 14.9784375 28.431875 14.9784375 29 14 C29.66 14 30.32 14 31 14 C31 18.95 31 23.9 31 29 C30.34 29 29.68 29 29 29 C28.443125 28.175 27.88625 27.35 27.3125 26.5 C26.549375 25.675 25.78625 24.85 25 24 C22.69 24 20.38 24 18 24 C18 30.27 18 36.54 18 43 C27.24586073 41.72205333 27.24586073 41.72205333 35 37 C35.66 36.01 36.32 35.02 37 34 C37.66 34 38.32 34 39 34 C39.35411465 37.71820384 39.10645237 39.78058121 37.45996094 43.17431641 C35 46 35 46 31.51660156 46.68115234 C30.1409102 46.68020828 28.76497699 46.64663512 27.390625 46.5859375 C26.66381531 46.57744781 25.93700562 46.56895813 25.18817139 46.56021118 C22.87391879 46.52670601 20.56319295 46.45144932 18.25 46.375 C16.67843587 46.34489589 15.10681692 46.31752083 13.53515625 46.29296875 C9.68875187 46.2269265 5.84497309 46.12343921 2 46 C2 45.34 2 44.68 2 44 C2.64759277 43.62931396 3.29518555 43.25862793 3.96240234 42.87670898 C6.37424197 41.04720479 6.37424197 41.04720479 6.54931641 37.41821289 C6.58922792 35.93679588 6.60511957 34.45460653 6.6015625 32.97265625 C6.61013275 32.18733017 6.618703 31.40200409 6.62753296 30.59288025 C6.63901264 28.93280898 6.64002492 27.27263711 6.63134766 25.61254883 C6.62502846 23.07393483 6.67192015 20.53998972 6.72265625 18.00195312 C6.72720278 16.38802671 6.72860897 14.77408777 6.7265625 13.16015625 C6.75419174 12.02405663 6.75419174 12.02405663 6.78237915 10.86500549 C6.80420245 8.43243063 6.80420245 8.43243063 6 5 C3.09742938 2.50690897 3.09742938 2.50690897 0 1 C0 0.67 0 0.34 0 0 Z " transform="translate(525,300)" style="fill: #FCF8F8;"/><path d="M0 0 C11.55 0 23.1 0 35 0 C35 3.63 35 7.26 35 11 C34.01 10.67 33.02 10.34 32 10 C31.29788106 8.34795544 30.63028587 6.68076231 30 5 C26.14854957 3.07427479 21.19956748 3.95116782 17 4 C17 8.95 17 13.9 17 19 C22.87947946 19.67267279 22.87947946 19.67267279 25.75 16.5 C26.86375 15.2625 26.86375 15.2625 28 14 C28.66 14 29.32 14 30 14 C30 18.95 30 23.9 30 29 C29.34 29 28.68 29 28 29 C27.34 27.35 26.68 25.7 26 24 C23.03 24 20.06 24 17 24 C16.97315688 26.81256281 16.95323812 29.62487241 16.9375 32.4375 C16.92912109 33.23994141 16.92074219 34.04238281 16.91210938 34.86914062 C16.9034857 36.91295221 16.9477185 38.95683902 17 41 C18.1345098 42.35066528 18.1345098 42.35066528 21.125 42.25 C25.47192711 41.96955309 28.185973 41.08692043 32 39 C34.27537692 36.42816686 34.27537692 36.42816686 36 34 C36.66 34 37.32 34 38 34 C37.26554499 42.81346013 37.26554499 42.81346013 34 46 C31.35294872 46.35669893 29.12764324 46.46776797 26.48828125 46.390625 C25.76005661 46.38496521 25.03183197 46.37930542 24.28153992 46.37347412 C21.95785502 46.35110029 19.63571793 46.30090669 17.3125 46.25 C15.73635041 46.22993609 14.16017663 46.21168512 12.58398438 46.1953125 C8.72206076 46.15123283 4.8612927 46.08220225 1 46 C1 45.34 1 44.68 1 44 C2.98 43.505 2.98 43.505 5 43 C5.12353289 37.64323369 5.21430573 32.28729474 5.2746582 26.92944336 C5.29981397 25.10670533 5.33394285 23.28406828 5.37719727 21.46166992 C5.43780546 18.84268307 5.46619761 16.22502847 5.48828125 13.60546875 C5.51408768 12.78974899 5.5398941 11.97402924 5.56648254 11.1335907 C5.62427764 8.56370964 5.62427764 8.56370964 5 5 C2.59461903 3.02900406 2.59461903 3.02900406 0 2 C0 1.34 0 0.68 0 0 Z " transform="translate(298,300)" style="fill: #FDF9F9;"/><path d="M0 0 C4.92769064 0.0493474 7.34031797 1.230842 10.90234375 4.5390625 C14.78242953 9.5409768 15.90404917 14.07312883 15.8125 20.3125 C15.80331543 21.37150513 15.80331543 21.37150513 15.79394531 22.4519043 C15.62118129 28.2069398 14.6740244 31.76388211 11.375 36.4375 C8.02955617 39.58018966 4.85735406 40.58252473 0.3125 40.625 C-3.625 40.4375 -3.625 40.4375 -5.625 38.4375 C-5.81253311 35.65239776 -5.88061232 32.96850354 -5.85546875 30.18359375 C-5.85501053 29.36754166 -5.85455231 28.55148956 -5.8540802 27.71070862 C-5.85105744 25.98494005 -5.84317042 24.25917422 -5.83081055 22.53344727 C-5.81254978 19.88222667 -5.81030086 17.23135504 -5.81054688 14.58007812 C-5.80563194 12.90624696 -5.79980373 11.23241818 -5.79296875 9.55859375 C-5.79185593 8.76069931 -5.7907431 7.96280487 -5.78959656 7.14073181 C-5.730032 0.28563604 -5.730032 0.28563604 0 0 Z " transform="translate(414.625,302.5625)" style="fill: #C50E47;"/><path d="M0 0 C7.26 0 14.52 0 22 0 C20.68 1.32 19.36 2.64 18 4 C17.65109914 7.02905977 17.53245244 9.68303287 17.609375 12.703125 C17.61503479 13.54091492 17.62069458 14.37870483 17.62652588 15.24188232 C17.64887671 17.91184166 17.69906902 20.58044787 17.75 23.25 C17.77006675 25.06248059 17.78831722 26.87498226 17.8046875 28.6875 C17.84873706 33.12551959 17.91775434 37.56253056 18 42 C19.41893957 42.04763826 20.83834973 42.08136869 22.2578125 42.109375 C23.04816895 42.12967773 23.83852539 42.14998047 24.65283203 42.17089844 C28.61083082 41.88271463 30.79367801 40.30855183 34 38 C35.90332221 35.91444964 35.90332221 35.91444964 37 34 C37.99 34.33 38.98 34.66 40 35 C39.63502747 41.32619052 39.63502747 41.32619052 36.91723633 44.20996094 C33.20229318 46.48947916 30.85061282 46.45977072 26.51171875 46.390625 C25.80852005 46.38496521 25.10532135 46.37930542 24.3808136 46.37347412 C22.14899752 46.35119769 19.91882539 46.30102373 17.6875 46.25 C16.16864309 46.22992343 14.64976084 46.21167468 13.13085938 46.1953125 C9.42004455 46.15136357 5.7101829 46.08239921 2 46 C2 45.34 2 44.68 2 44 C2.65049316 43.4632666 3.30098633 42.9265332 3.97119141 42.37353516 C6.77865237 39.08904232 6.54110421 36.14396135 6.4609375 32.0234375 C6.46002106 31.25697906 6.45910461 30.49052063 6.4581604 29.70083618 C6.45213184 28.08532495 6.43640798 26.46982451 6.41162109 24.85449219 C6.3750227 22.3765366 6.37060243 19.90007311 6.37109375 17.421875 C6.36126558 15.85154953 6.34960988 14.28123421 6.3359375 12.7109375 C6.33371185 11.96822601 6.33148621 11.22551453 6.32919312 10.46029663 C6.38260703 6.27293131 6.38260703 6.27293131 4 3 C1.93125966 2.3574765 1.93125966 2.3574765 0 2 C0 1.34 0 0.68 0 0 Z " transform="translate(486,300)" style="fill: #FDF8F9;"/><path d="M0 0 C7.26 0 14.52 0 22 0 C22 0.66 22 1.32 22 2 C20.02 2.99 20.02 2.99 18 4 C18 16.54 18 29.08 18 42 C25.72586017 42.50302423 25.72586017 42.50302423 31.4375 39.6875 C32.07558594 39.25824219 32.71367187 38.82898438 33.37109375 38.38671875 C35.25979829 36.90711994 35.25979829 36.90711994 37 34 C37.99 34.33 38.98 34.66 40 35 C39.63502747 41.32619052 39.63502747 41.32619052 36.91723633 44.20996094 C33.20229318 46.48947916 30.85061282 46.45977072 26.51171875 46.390625 C25.80852005 46.38496521 25.10532135 46.37930542 24.3808136 46.37347412 C22.14899752 46.35119769 19.91882539 46.30102373 17.6875 46.25 C16.16864309 46.22992343 14.64976084 46.21167468 13.13085938 46.1953125 C9.42004455 46.15136357 5.7101829 46.08239921 2 46 C2 45.34 2 44.68 2 44 C2.65049316 43.63076416 3.30098633 43.26152832 3.97119141 42.88110352 C6.38416011 41.04384136 6.38416011 41.04384136 6.48583984 37.38647461 C6.49871982 35.89179677 6.48898652 34.39681389 6.4609375 32.90234375 C6.46002106 32.11227432 6.45910461 31.3222049 6.4581604 30.50819397 C6.45212268 28.83962997 6.43637134 27.1710769 6.41162109 25.50268555 C6.37508485 22.9434434 6.37060187 20.3856477 6.37109375 17.82617188 C6.36126365 16.20571661 6.34960711 14.58527118 6.3359375 12.96484375 C6.33371185 12.19712143 6.33148621 11.42939911 6.32919312 10.63841248 C6.4000831 6.35669276 6.4000831 6.35669276 4 3 C1.93125966 2.3574765 1.93125966 2.3574765 0 2 C0 1.34 0 0.68 0 0 Z " transform="translate(258,300)" style="fill: #FDF9F9;"/><path d="M0 0 C2.64 0 5.28 0 8 0 C9.85615587 4.09128955 11.70743902 8.18473722 13.55419922 12.28027344 C14.1833904 13.6737841 14.8139191 15.06669164 15.44580078 16.45898438 C16.35279374 18.4580709 17.25498538 20.45926313 18.15625 22.4609375 C18.44060913 23.08495453 18.72496826 23.70897156 19.01794434 24.35189819 C21 28.77225659 21 28.77225659 21 31 C23.88805412 28.49541973 25.23615213 25.78410737 26.84765625 22.34375 C27.37037109 21.23902344 27.89308594 20.13429688 28.43164062 18.99609375 C28.96982422 17.84238281 29.50800781 16.68867188 30.0625 15.5 C31.13474201 13.21782022 32.20887569 10.93652797 33.28515625 8.65625 C33.75832275 7.64369141 34.23148926 6.63113281 34.71899414 5.58789062 C36 3 36 3 38 0 C41.125 -0.1875 41.125 -0.1875 44 0 C43.34 0.66 42.68 1.32 42 2 C41.82482253 4.72485728 41.76850867 7.34659362 41.8046875 10.0703125 C41.80893234 11.26465408 41.80893234 11.26465408 41.81326294 12.48312378 C41.8244736 15.03056763 41.84957938 17.57766211 41.875 20.125 C41.88502867 21.85025535 41.89415472 23.57551619 41.90234375 25.30078125 C41.92441578 29.53398914 41.95895133 33.7669353 42 38 C42.99 38 43.98 38 45 38 C45 38.66 45 39.32 45 40 C41.04 40 37.08 40 33 40 C33.99 39.01 34.98 38.02 36 37 C36.40342643 34.47111024 36.40342643 34.47111024 36.25 31.625 C36.23453125 30.68914062 36.2190625 29.75328125 36.203125 28.7890625 C35.90277619 23.18640197 35.43032146 17.59417892 35 12 C30.71 20.91 26.42 29.82 22 39 C21.34 39 20.68 39 20 39 C16.04 30.42 12.08 21.84 8 13 C8 20.92 8 28.84 8 37 C8.99 37.33 9.98 37.66 11 38 C11 38.66 11 39.32 11 40 C7.37 40 3.74 40 0 40 C0 39.34 0 38.68 0 38 C0.99 37.34 1.98 36.68 3 36 C4.65191805 27.29905759 6.49118034 10.22634449 3 2 C2.01 1.67 1.02 1.34 0 1 C0 0.67 0 0.34 0 0 Z " transform="translate(343,354)" style="fill: #F9ECEE;"/><path d="M0 0 C2.64 0 5.28 0 8 0 C22 27.68020305 22 27.68020305 22 31 C22.66 31 23.32 31 24 31 C24.40774658 29.70231689 24.40774658 29.70231689 24.82373047 28.37841797 C25.96575332 25.09836146 27.30667779 22.06919689 28.8203125 18.9453125 C29.35527344 17.83671875 29.89023437 16.728125 30.44140625 15.5859375 C30.99699219 14.44382812 31.55257813 13.30171875 32.125 12.125 C32.68832031 10.9596875 33.25164062 9.794375 33.83203125 8.59375 C35.21812761 5.72758466 36.60754522 2.86308022 38 0 C40.31 0 42.62 0 45 0 C44.51176758 0.41411133 44.02353516 0.82822266 43.52050781 1.25488281 C40.93229983 4.22542082 41.65295733 8.0017267 41.75 11.75 C41.76095703 12.59022705 41.77191406 13.4304541 41.78320312 14.29614258 C41.91516174 21.88304598 42.36711684 29.43930659 43 37 C43.99 37.33 44.98 37.66 46 38 C46 38.66 46 39.32 46 40 C42.04 40 38.08 40 34 40 C34 39.34 34 38.68 34 38 C34.66 37.67 35.32 37.34 36 37 C36.33 28.42 36.66 19.84 37 11 C36.34 11 35.68 11 35 11 C34.773125 11.76699219 34.54625 12.53398437 34.3125 13.32421875 C32.53073445 18.31422285 30.27775937 23.03245927 28 27.8125 C27.54882812 28.77865234 27.09765625 29.74480469 26.6328125 30.74023438 C26.19710938 31.65740234 25.76140625 32.57457031 25.3125 33.51953125 C24.91675781 34.35589111 24.52101563 35.19225098 24.11328125 36.05395508 C23 38 23 38 21 39 C18.99370826 34.87803094 16.99603779 30.75194299 15 26.625 C14.42765625 25.449375 13.8553125 24.27375 13.265625 23.0625 C12.72421875 21.94101562 12.1828125 20.81953125 11.625 19.6640625 C11.12226563 18.62717285 10.61953125 17.5902832 10.1015625 16.52197266 C9 14 9 14 9 12 C8.34 12 7.68 12 7 12 C7.33 19.92 7.66 27.84 8 36 C9.32 36.66 10.64 37.32 12 38 C12 38.66 12 39.32 12 40 C8.04 40 4.08 40 0 40 C0 39.34 0 38.68 0 38 C1.485 37.505 1.485 37.505 3 37 C3.91696921 29.8804423 4.2465048 22.86337785 4.3125 15.6875 C4.34150391 14.61693359 4.37050781 13.54636719 4.40039062 12.44335938 C4.40876953 11.41404297 4.41714844 10.38472656 4.42578125 9.32421875 C4.44036377 8.39697998 4.45494629 7.46974121 4.4699707 6.5144043 C3.86490332 3.27721523 2.4711814 2.08780128 0 0 Z " transform="translate(293,354)" style="fill: #FAEDEF;"/><path d="M0 0 C3.2421875 -0.2890625 3.2421875 -0.2890625 7 0 C9.1953125 1.9140625 9.1953125 1.9140625 11.125 4.625 C14.78291596 9.48543222 18.62957118 13.95740476 22.8125 18.375 C23.90366038 19.5274006 24.99356094 20.68099573 26.08203125 21.8359375 C26.54843018 22.32626465 27.0148291 22.8165918 27.49536133 23.32177734 C29.42541467 25.47449302 31.20881133 27.73124121 33 30 C33.14486019 25.72952167 33.23392616 21.45967167 33.3125 17.1875 C33.3753418 15.36508789 33.3753418 15.36508789 33.43945312 13.50585938 C33.45556641 12.34248047 33.47167969 11.17910156 33.48828125 9.98046875 C33.51446533 8.90692139 33.54064941 7.83337402 33.56762695 6.72729492 C33.27185926 3.76245727 33.27185926 3.76245727 30.46948242 2.1887207 C29.65455322 1.79644287 28.83962402 1.40416504 28 1 C28 0.67 28 0.34 28 0 C31.96 0 35.92 0 40 0 C39.34 0.66 38.68 1.32 38 2 C37.75418157 4.86436824 37.62630619 7.6390314 37.5859375 10.5078125 C37.56657135 11.34843231 37.5472052 12.18905212 37.5272522 13.05514526 C37.46738342 15.74499303 37.42104229 18.43488343 37.375 21.125 C37.3368269 22.94663344 37.29777556 24.7682487 37.2578125 26.58984375 C37.16167602 31.05974852 37.07767231 35.52973779 37 40 C28.27718476 35.95654604 21.90329551 25.79582593 16.0078125 18.41015625 C14.13340451 16.16013732 12.07074751 14.07074751 10 12 C10 20.25 10 28.5 10 37 C11.32 37.66 12.64 38.32 14 39 C14 39.33 14 39.66 14 40 C9.71 40 5.42 40 1 40 C1 39.34 1 38.68 1 38 C2.485 37.505 2.485 37.505 4 37 C6.14397664 32.71204672 5.30912101 27.06467078 5.35009766 22.30639648 C5.36663807 20.89900148 5.39390393 19.49168984 5.43212891 18.0847168 C5.48710174 16.04952705 5.50879877 14.01630241 5.5234375 11.98046875 C5.54325684 10.76254639 5.56307617 9.54462402 5.58349609 8.28979492 C4.84571606 4.13013553 3.18432152 2.66347416 0 0 Z " transform="translate(434,354)" style="fill: #FBF3F4;"/><path d="M0 0 C3.69806227 2.7319732 6.76572745 6.23067364 8.82421875 10.34765625 C9.62245182 18.52196701 10.05904383 25.94244792 4.640625 32.60546875 C-0.38441321 37.42518281 -4.80091154 38.58511818 -11.73828125 38.84765625 C-18.81867719 38.61000407 -22.49511766 37.1007702 -27.48828125 31.97265625 C-31.65614912 25.48930623 -32.19888889 18.61201011 -30.74609375 11.13671875 C-28.76034138 4.73818333 -24.47613678 1.31002981 -18.86328125 -2.02734375 C-12.18288915 -3.58092331 -6.038742 -3.41746251 0 0 Z M-23.98828125 5.41015625 C-27.88251897 10.63956119 -27.77624418 14.94553737 -27.17578125 21.34765625 C-25.45632503 27.7636843 -22.57785615 31.58969111 -17.17578125 35.34765625 C-13.17421943 37.34843716 -8.5151182 36.98122335 -4.17578125 36.34765625 C0.63797719 33.81320392 3.203842 30.51166066 4.82421875 25.34765625 C5.49328892 18.89156359 5.69017903 12.81332424 1.82421875 7.34765625 C-2.13385268 2.7477354 -6.04762533 -0.26132426 -12.17578125 -1.02734375 C-17.29713573 -0.38717444 -20.67700301 1.5184528 -23.98828125 5.41015625 Z " transform="translate(281.17578125,355.65234375)" style="fill: #F8E6E9;"/><path d="M0 0 C4.29 0 8.58 0 13 0 C11.02 0.99 11.02 0.99 9 2 C9.08097907 6.39658178 9.19381799 10.7917871 9.3125 15.1875 C9.33505859 16.43337891 9.35761719 17.67925781 9.38085938 18.96289062 C9.41630859 20.16494141 9.45175781 21.36699219 9.48828125 22.60546875 C9.51446533 23.71043701 9.54064941 24.81540527 9.56762695 25.95385742 C10.16982257 30.19642927 11.80082311 32.85816421 14.87890625 35.7890625 C18.70991976 37.97619728 22.72544306 37.50574174 27 37 C30.29734282 35.6948018 31.53404821 34.93261918 33.11279297 31.77270508 C34.11686863 28.63476142 34.22773546 26.11514934 34.1953125 22.82421875 C34.18564453 21.08881836 34.18564453 21.08881836 34.17578125 19.31835938 C34.15902344 18.12017578 34.14226562 16.92199219 34.125 15.6875 C34.11597656 14.46998047 34.10695313 13.25246094 34.09765625 11.99804688 C34.07413037 8.99849726 34.04125653 5.99934956 34 3 C32.68 2.34 31.36 1.68 30 1 C30 0.67 30 0.34 30 0 C33.63 0 37.26 0 41 0 C40.67 0.66 40.34 1.32 40 2 C39.34 2 38.68 2 38 2 C38.01571045 2.78648926 38.0314209 3.57297852 38.04760742 4.38330078 C38.11015915 7.96379338 38.14905551 11.54417076 38.1875 15.125 C38.21263672 16.3625 38.23777344 17.6 38.26367188 18.875 C38.27333984 20.07382812 38.28300781 21.27265625 38.29296875 22.5078125 C38.3086792 23.60754395 38.32438965 24.70727539 38.34057617 25.84033203 C37.81164458 30.74745224 35.7522497 34.03879205 32.75 37.875 C28.41805985 41.25522603 22.88791604 40.56108952 17.65625 40.56640625 C13.37523262 39.90321446 11.27432336 38.81798807 8 36 C5.4450164 31.72519139 4.60623202 28.46174466 4.48828125 23.5078125 C4.45283203 22.30898438 4.41738281 21.11015625 4.38085938 19.875 C4.35830078 18.6375 4.33574219 17.4 4.3125 16.125 C4.26125977 14.23394531 4.26125977 14.23394531 4.20898438 12.3046875 C4.12674833 9.20321384 4.05751532 6.10201431 4 3 C2.68 2.34 1.36 1.68 0 1 C0 0.67 0 0.34 0 0 Z " transform="translate(391,354)" style="fill: #FCF5F6;"/><path d="M0 0 C0 3.3 0 6.6 0 10 C-3 7 -3 7 -5.4375 3.9375 C-8.29513606 0.6616733 -10.07339405 -0.72658727 -14.3671875 -1.3359375 C-20.0591402 -1.4245972 -23.68232699 -1.10705481 -28 3 C-31.894106 9.10076607 -31.94057617 15.93696966 -31 23 C-29.13269193 27.76459956 -26.39899948 31.33201476 -22 34 C-15.83178427 34.95038973 -10.26489839 34.50993226 -5 31 C-3.30140333 29.70758949 -1.62390477 28.38509525 0 27 C-0.1875 29.8125 -0.1875 29.8125 -1 33 C-7.61695514 38.04978156 -15.03254743 37.48614965 -23 37 C-28.72000774 35.85405617 -31.76537931 32.6208867 -35 28 C-37.70714104 22.28282102 -38.03432443 16.04669995 -36.46484375 9.90625 C-33.94923131 3.63783867 -30.36769231 -0.50768521 -24.2578125 -3.26953125 C-15.77457281 -6.0141088 -7.98966887 -3.07506156 0 0 Z " transform="translate(247,357)" style="fill: #FAF1F2;"/><path d="M0 0 C11.22 0 22.44 0 34 0 C34.495 3.465 34.495 3.465 35 7 C34.34 7 33.68 7 33 7 C32.505 5.515 32.505 5.515 32 4 C27.71 3.67 23.42 3.34 19 3 C19.33 14.55 19.66 26.1 20 38 C21.32 38 22.64 38 24 38 C24 38.66 24 39.32 24 40 C19.38 40 14.76 40 10 40 C10 39.34 10 38.68 10 38 C11.32 37.34 12.64 36.68 14 36 C14.33 25.11 14.66 14.22 15 3 C8.565 3.495 8.565 3.495 2 4 C1.67 5.32 1.34 6.64 1 8 C0.34 8 -0.32 8 -1 8 C-0.67 5.36 -0.34 2.72 0 0 Z " transform="translate(497,354)" style="fill: #FBF4F5;"/><path d="M0 0 C3.96 0 7.92 0 12 0 C11.67 1.65 11.34 3.3 11 5 C12.1675463 7.67576358 12.1675463 7.67576358 13.9375 10.1875 C17 14.8405467 17 14.8405467 17 17 C19.27169358 14.86779638 20.97352302 12.70182363 22.625 10.0625 C23.05039062 9.39347656 23.47578125 8.72445313 23.9140625 8.03515625 C24.99043025 6.01793467 25.55044213 4.23280406 26 2 C24.68 1.67 23.36 1.34 22 1 C22 0.67 22 0.34 22 0 C25.63 0 29.26 0 33 0 C32.67 0.66 32.34 1.32 32 2 C31.34 2 30.68 2 30 2 C29.75507812 2.71671875 29.51015625 3.4334375 29.2578125 4.171875 C27.85402986 7.32820615 26.02515477 9.55267322 23.875 12.25 C18.61501859 19.84564103 19.23865487 27.07534315 20 36 C21.32 36.66 22.64 37.32 24 38 C24 38.66 24 39.32 24 40 C19.71 40 15.42 40 11 40 C11 39.34 11 38.68 11 38 C12.485 37.505 12.485 37.505 14 37 C15.6870582 23.38424747 12.57117949 15.49624482 4.3503418 4.63134766 C2.99979273 2.9997496 1.4976807 1.4976807 0 0 Z " transform="translate(533,354)" style="fill: #FAF0F1;"/><path d="M0 0 C3.96 0 7.92 0 12 0 C10.515 1.485 10.515 1.485 9 3 C8.73846931 5.58774771 8.65041562 7.92899653 8.70703125 10.51171875 C8.71127609 11.23994339 8.71552094 11.96816803 8.71989441 12.71846008 C8.73667267 15.04185127 8.77432145 17.3643715 8.8125 19.6875 C8.82754803 21.26365934 8.84123623 22.83983229 8.85351562 24.41601562 C8.88657315 28.27767877 8.93834806 32.13869178 9 36 C10.32 36.66 11.64 37.32 13 38 C13 38.66 13 39.32 13 40 C8.71 40 4.42 40 0 40 C0 39.34 0 38.68 0 38 C0.99 37.34 1.98 36.68 3 36 C3.30470628 33.48128636 3.42023896 31.21200568 3.3984375 28.69140625 C3.40130768 27.96888168 3.40417786 27.24635712 3.40713501 26.50193787 C3.40917756 24.97288226 3.40363427 23.44380063 3.39111328 21.91479492 C3.375084 19.57476219 3.39094177 17.23646265 3.41015625 14.89648438 C3.40817339 13.41145452 3.40432883 11.92642574 3.3984375 10.44140625 C3.40754654 9.39129112 3.40754654 9.39129112 3.4168396 8.31996155 C3.35431242 3.99563078 3.2231267 3.2231267 0 0 Z " transform="translate(480,354)" style="fill: #FCF8F8;"/><path d="M0 0 C1 3 1 3 0 5 C-0.77192013 12.40284061 -0.07595356 18.66842166 4 25 C8.57508331 29.46070623 12.73182652 31.14524907 19 32 C19 32.33 19 32.66 19 33 C11.74333579 33.4724049 6.90403646 33.45814998 1 29 C-3.64938865 24.22495219 -5.0927076 19.55712674 -5.25 13 C-5.15962772 8.9995206 -4.74016519 5.66350567 -3 2 C-2.01 1.34 -1.02 0.68 0 0 Z " transform="translate(255,361)" style="fill: #FAF1F2;"/><path d="M0 0 C3.63 0 7.26 0 11 0 C10.67 0.66 10.34 1.32 10 2 C9.34 2 8.68 2 8 2 C8.02356567 3.17973389 8.02356567 3.17973389 8.04760742 4.38330078 C8.11015915 7.96379338 8.14905551 11.54417076 8.1875 15.125 C8.22520508 16.98125 8.22520508 16.98125 8.26367188 18.875 C8.27817383 20.67324219 8.27817383 20.67324219 8.29296875 22.5078125 C8.31653442 24.15740967 8.31653442 24.15740967 8.34057617 25.84033203 C7.87565237 30.15362508 6.40446874 33.53060448 3.39453125 36.6796875 C1.9296875 37.78645833 0.46484375 38.89322917 -1 40 C-1.66 39.67 -2.32 39.34 -3 39 C-2.57847656 38.52949219 -2.15695312 38.05898438 -1.72265625 37.57421875 C-1.17480469 36.95160156 -0.62695312 36.32898438 -0.0625 35.6875 C0.48277344 35.07261719 1.02804687 34.45773437 1.58984375 33.82421875 C4.25792139 30.37271665 4.11814921 27.22058896 4.09765625 23.01953125 C4.09443359 21.85615234 4.09121094 20.69277344 4.08789062 19.49414062 C4.07951172 18.27919922 4.07113281 17.06425781 4.0625 15.8125 C4.05798828 14.58595703 4.05347656 13.35941406 4.04882812 12.09570312 C4.03703065 9.06375332 4.02056921 6.03190094 4 3 C2.68 2.34 1.36 1.68 0 1 C0 0.67 0 0.34 0 0 Z " transform="translate(421,354)" style="fill: #F5D9DF;"/><path d="M0 0 C0 3.3 0 6.6 0 10 C-3 7 -3 7 -5.4375 3.9375 C-8.28056718 0.67837421 -10.06107812 -0.72069132 -14.33203125 -1.3359375 C-20.53988896 -1.43369904 -23.87004032 -0.48837258 -29 3 C-30.32646156 3.6802367 -31.65608877 4.35492261 -33 5 C-31.49364535 0.78220697 -28.75987578 -0.7747674 -25 -3 C-16.25606942 -5.91464353 -8.29122076 -3.19112277 0 0 Z " transform="translate(247,357)" style="fill: #F5DCE1;"/><path d="M0 0 C3.96 0 7.92 0 12 0 C11.34 0.66 10.68 1.32 10 2 C9.75418157 4.86436824 9.62630619 7.6390314 9.5859375 10.5078125 C9.56657135 11.34843231 9.5472052 12.18905212 9.5272522 13.05514526 C9.46738342 15.74499303 9.42104229 18.43488343 9.375 21.125 C9.3368269 22.94663344 9.29777556 24.7682487 9.2578125 26.58984375 C9.16167602 31.05974852 9.07767231 35.52973779 9 40 C8.67 40 8.34 40 8 40 C7.8046875 37.94921875 7.609375 35.8984375 7.4140625 33.84765625 C7.20910156 32.93306641 7.20910156 32.93306641 7 32 C6.34 31.67 5.68 31.34 5 31 C5.02618408 30.19780029 5.05236816 29.39560059 5.0793457 28.5690918 C5.18313941 24.94209295 5.24827304 21.31540597 5.3125 17.6875 C5.35439453 16.42486328 5.39628906 15.16222656 5.43945312 13.86132812 C5.45556641 12.65283203 5.47167969 11.44433594 5.48828125 10.19921875 C5.51446533 9.08377686 5.54064941 7.96833496 5.56762695 6.8190918 C5.28609354 3.77058815 5.28609354 3.77058815 2.46948242 2.17504883 C1.65455322 1.78728271 0.83962402 1.3995166 0 1 C0 0.67 0 0.34 0 0 Z " transform="translate(462,354)" style="fill: #F2CDD3;"/><path d="M0 0 C0.66 0 1.32 0 2 0 C2.84069415 1.60032137 3.67231505 3.20541171 4.5 4.8125 C4.9640625 5.70582031 5.428125 6.59914063 5.90625 7.51953125 C7 10 7 10 7 13 C3.04 13 -0.92 13 -5 13 C-4.22998773 9.14993864 -3.6738858 6.99223427 -1.9375 3.6875 C-1.57527344 2.99011719 -1.21304687 2.29273438 -0.83984375 1.57421875 C-0.56269531 1.05472656 -0.28554688 0.53523438 0 0 Z " transform="translate(456,314)" style="fill: #C7174B;"/><path d="M0 0 C1.32 0.66 2.64 1.32 4 2 C4 10.58 4 19.16 4 28 C5.32 28.66 6.64 29.32 8 30 C8 30.33 8 30.66 8 31 C3.71 31 -0.58 31 -5 31 C-5 30.34 -5 29.68 -5 29 C-4.01 28.67 -3.02 28.34 -2 28 C-0.65893595 25.3178719 -0.78549581 23.11601968 -0.68359375 20.1171875 C-0.64169922 18.95058594 -0.59980469 17.78398437 -0.55664062 16.58203125 C-0.49766602 14.74705078 -0.49766602 14.74705078 -0.4375 12.875 C-0.37272461 11.02841797 -0.37272461 11.02841797 -0.30664062 9.14453125 C-0.20031296 6.09647147 -0.09828219 3.0483281 0 0 Z " transform="translate(440,363)" style="fill: #F0C7CD;"/><path d="M0 0 C0.33 0 0.66 0 1 0 C1.03963867 0.86802246 1.07927734 1.73604492 1.12011719 2.63037109 C1.27623479 5.84803252 1.44960024 9.06416312 1.63476562 12.28027344 C1.7113715 13.67281242 1.78107399 15.06574893 1.84375 16.45898438 C1.93498921 18.46054449 2.05305644 20.4608251 2.171875 22.4609375 C2.2347168 23.66540527 2.29755859 24.86987305 2.36230469 26.11083984 C2.68287913 29.12594059 2.68287913 29.12594059 5.05175781 30.40869141 C5.69467773 30.60382324 6.33759766 30.79895508 7 31 C7 31.66 7 32.32 7 33 C3.04 33 -0.92 33 -5 33 C-5 32.34 -5 31.68 -5 31 C-4.01 30.67 -3.02 30.34 -2 30 C-1.18366295 23.3115242 -0.72321053 16.66809079 -0.4375 9.9375 C-0.37272461 8.49600586 -0.37272461 8.49600586 -0.30664062 7.02539062 C-0.20178868 4.68369723 -0.09962212 2.34192071 0 0 Z " transform="translate(298,361)" style="fill: #F4D7DC;"/><path d="M0 0 C0.33 0 0.66 0 1 0 C1.33 6.27 1.66 12.54 2 19 C2.99 19.33 3.98 19.66 5 20 C5 20.66 5 21.32 5 22 C1.37 22 -2.26 22 -6 22 C-6 21.34 -6 20.68 -6 20 C-5.01 19.34 -4.02 18.68 -3 18 C-2.48763719 14.78681677 -2.48763719 14.78681677 -2.4375 11.125 C-2.17397785 3.47487223 -2.17397785 3.47487223 0 0 Z " transform="translate(349,372)" style="fill: #F5DADE;"/><path d="M0 0 C3.63 0 7.26 0 11 0 C10.67 0.66 10.34 1.32 10 2 C9.34 2 8.68 2 8 2 C7.773125 2.66 7.54625 3.32 7.3125 4 C5.59428642 7.92734533 3.33225393 11.41260178 1 15 C0.34 14.67 -0.32 14.34 -1 14 C0.58962659 9.96479403 2.28232318 5.98188718 4 2 C2.68 1.67 1.36 1.34 0 1 C0 0.67 0 0.34 0 0 Z " transform="translate(555,354)" style="fill: #F9EAEC;"/><path d="M0 0 C1.1328125 3.734375 1.1328125 3.734375 -0.0625 6.125 C-2.68029842 8.6583533 -4.40536969 9.28107394 -8 10 C-11.36586239 9.86415802 -14.66815717 9.48726555 -18 9 C-18 8.67 -18 8.34 -18 8 C-17.28714844 7.92523438 -16.57429687 7.85046875 -15.83984375 7.7734375 C-8.88639577 6.81885918 -4.77812048 5.18580994 0 0 Z " transform="translate(246,384)" style="fill: #F7E3E5;"/><path d="M0 0 C0.99 0.33 1.98 0.66 3 1 C-1.455 10.405 -1.455 10.405 -6 20 C-6.66 19.67 -7.32 19.34 -8 19 C-6.44071133 12.13912984 -3.24242526 6.20955026 0 0 Z " transform="translate(375,365)" style="fill: #F7E2E5;"/><path d="M0 0 C1.32 0.66 2.64 1.32 4 2 C2.63875 2.6496875 2.63875 2.6496875 1.25 3.3125 C-1.44364354 4.71112261 -3.60181632 6.18068824 -6 8 C-6.99 8.33 -7.98 8.66 -9 9 C-7.48328036 4.44984107 -3.83108947 2.49942736 0 0 Z " transform="translate(262,354)" style="fill: #F1CCD3;"/><path d="M0 0 C0.33 0.99 0.66 1.98 1 3 C-1.31 4.98 -3.62 6.96 -6 9 C-6.66 8.67 -7.32 8.34 -8 8 C-7.04578192 6.85073734 -6.08647955 5.70569459 -5.125 4.5625 C-4.59132813 3.92441406 -4.05765625 3.28632813 -3.5078125 2.62890625 C-2 1 -2 1 0 0 Z " transform="translate(426,385)" style="fill: #F7E2E6;"/><path d="M0 0 C0.99 0.33 1.98 0.66 3 1 C1.35 3.64 -0.3 6.28 -2 9 C-2.66 8.67 -3.32 8.34 -4 8 C-2.87548273 5.0280615 -1.77706209 2.66559313 0 0 Z " transform="translate(558,360)" style="fill: #F4D8DC;"/><path d="M0 0 C0.99 0.33 1.98 0.66 3 1 C1.68 3.64 0.36 6.28 -1 9 C-1.66 8.67 -2.32 8.34 -3 8 C-1.125 2.25 -1.125 2.25 0 0 Z " transform="translate(320,377)" style="fill: #F6DEE1;"/><path d="M0 0 C0.99 0.33 1.98 0.66 3 1 C1.6875 3.9375 1.6875 3.9375 0 7 C-0.99 7.33 -1.98 7.66 -3 8 C-1.125 2.25 -1.125 2.25 0 0 Z " transform="translate(375,365)" style="fill: #F4D7DC;"/><path d="M0 0 C-0.33 0.66 -0.66 1.32 -1 2 C-4.3 1.67 -7.6 1.34 -11 1 C-11 0.67 -11 0.34 -11 0 C-3.375 -1.125 -3.375 -1.125 0 0 Z " transform="translate(239,392)" style="fill: #F0C5CD;"/></svg>