<?xml version="1.0" encoding="UTF-8" standalone="no"?>
<svg
   version="1.1"
   id="Layer_1"
   x="0px"
   y="0px"
   viewBox="0 0 100 99.999998"
   xml:space="preserve"
   sodipodi:docname="harvard_university.svg"
   inkscape:version="1.4.3 (0d15f75, 2025-12-25)"
   width="100"
   height="100"
   xmlns:inkscape="http://www.inkscape.org/namespaces/inkscape"
   xmlns:sodipodi="http://sodipodi.sourceforge.net/DTD/sodipodi-0.dtd"
   xmlns="http://www.w3.org/2000/svg"
   xmlns:svg="http://www.w3.org/2000/svg"
   xmlns:ns="ns_sfw;"><defs
   id="defs57" /><sodipodi:namedview
   id="namedview57"
   pagecolor="#ffffff"
   bordercolor="#000000"
   borderopacity="0.25"
   inkscape:showpageshadow="2"
   inkscape:pageopacity="0.0"
   inkscape:pagecheckerboard="0"
   inkscape:deskcolor="#d1d1d1"
   inkscape:zoom="3.9963021"
   inkscape:cx="60.430866"
   inkscape:cy="41.788632"
   inkscape:window-width="1440"
   inkscape:window-height="795"
   inkscape:window-x="0"
   inkscape:window-y="29"
   inkscape:window-maximized="0"
   inkscape:current-layer="Layer_1"
   showguides="false" />
 <style
   type="text/css"
   id="style1">
  .st0{fill:#A51C30;}
	.st1{fill:none;stroke:#000000;stroke-width:0.915;}
	.st2{fill:#FFFFFF;}
	.st3{fill:#1E1E1E;}
	.st4{fill:none;stroke:#000000;stroke-width:0.2189;}
	.st5{fill:none;stroke:#000000;stroke-width:0.2305;}
 </style>
 <metadata
   id="metadata1">
  <ns:sfw>
   <ns:slices>
   </ns:slices>
   <ns:sliceSourceBounds
   bottomLeftOrigin="true"
   height="93.9"
   width="79"
   x="13.2"
   y="-247.1">
   </ns:sliceSourceBounds>
  </ns:sfw>
 </metadata>
 <g
   id="g57"
   transform="matrix(1.064153,0,0,1.064153,7.9547735,-0.04522649)">
  <g
   id="g56">
   <path
   class="st0"
   d="m 0.6,0.5 h 78 V 30 c 0,13.5 -5,42.2 -38.7,63.5 0,0 -36.5,-15.3 -39.3,-63.5 z"
   id="path1">
   </path>
   <path
   class="st1"
   d="m 0.5,0.5 h 78 V 30 c 0,13.5 -5,42.1 -38.7,63.5 0,0 -36.5,-15.2 -39.3,-63.5 z"
   id="path2">
   </path>
   <path
   class="st2"
   d="m 59.7,38.4 c 0,0 -0.7,2.2 -3.8,-0.1 L 45.3,38 c 0,0 -1.4,0.4 -1.6,-1 0,0 0.3,-2.9 0.1,-3.2 0,0 0.1,-0.8 -1.3,-0.8 0,0 -2.2,0.3 -2.2,-1.6 0,0 -0.4,-2 2.6,-2 0,0 0.9,0.4 1,-0.8 0,0 -0.1,-8.2 -0.1,-8.8 0,0 0.3,-0.8 -1.2,-0.9 0,0 -2.1,0.4 -2.3,-0.9 0,0 -0.1,-2.1 1.3,-2.2 0,0 1.7,0.1 2,-0.3 0,0 0.4,0.2 0.3,-1.3 L 44,11.6 c 0,0 0.2,-0.7 1.3,-0.6 0,0 2,0.1 2.2,-0.1 0,0 0.4,-0.6 0.6,-0.8 0,0 1,-0.1 1.2,0.2 0,0 1.5,1 7.3,0.6 0,0 0.9,0 1.1,0.3 0,0 1.1,0.8 1.7,-0.1 0,0 0.9,-0.2 3.8,-0.1 0,0 3.1,0.8 5.3,-0.9 l 0.7,0.1 c 0,0 0.9,1.5 1.5,1 0,0 1.9,-0.2 2.2,0.2 0,0 0.6,0.9 0.3,3.4 0,0 -0.4,1.1 1.5,1.1 0,0 2.1,-0.4 1.8,1.6 0,0 0.6,2.2 -2.9,1.9 0,0 -0.4,0.6 -0.4,1.1 0,0 -0.1,7.2 -0.1,8 0,0 -0.1,1.1 1.5,1.1 0,0 2,-0.1 2.1,1.7 0,0 0.3,2.4 -2.7,2 0,0 -0.9,0.1 -1,0.7 l -0.1,3.2 c 0,0 0.1,1.6 -1.7,1.2 -0.3,0 -9.9,0.2 -10.7,-0.1 -0.3,-0.1 -0.7,-0.2 -0.8,0.1"
   id="path3">
   </path>
   <path
   class="st2"
   d="m 39.2,49 c 0,0 0.4,-0.2 0.6,-0.5 0,0 1.3,-0.1 1.5,-0.3 l 4.2,0.3 c 0,0 4.1,0.3 5.9,-1 0,0 0.6,0 1.1,0.2 0,0 0.9,0.2 1.1,0.6 L 56,48.2 c 0,0 1.4,0.4 1.3,1.3 v 1.1 c 0,0 -0.3,2.3 0.4,2.4 h 1.8 c 0,0 1.5,0.7 1.3,1.6 0,0 0.1,1.3 -1.3,1.5 0,0 -1.3,0.4 -1.8,0.3 0,0 -0.4,0.6 -0.5,1.3 L 57.1,66 c 0,0 -0.1,0.9 1.2,0.8 0,0 2,-0.2 2.5,0.9 0,0 0.5,1.8 -0.5,2.1 l -0.8,0.4 -1.6,0.3 c 0,0 -0.7,0.1 -0.8,1.3 V 74 c 0,0 0.1,1.5 -1.1,1.5 l -1.8,0.1 c 0,0 -0.4,0.4 -1.3,0.1 0,0 -10.8,0.2 -11.1,0.1 L 40.5,76 c 0,0 -1.4,1.3 -2.5,0.3 l -0.9,-0.7 c 0,0 -0.6,0.1 -0.9,0.1 -0.3,-0.1 -11.9,0.1 -11.9,0.1 0,0 -2.5,0.3 -2.7,-0.6 0,0 -0.3,-3.2 -0.2,-3.6 0,0 0,-0.9 -0.6,-1 0,0 -2.5,-0.1 -2.5,-0.4 0,0 -1.3,-0.9 -0.9,-1.9 0,0 0.4,-1.3 1.8,-1.4 0,0 2,0.3 2,-0.3 0,0 0.1,-0.4 0.1,-1 0,0 0.1,-7.5 0.1,-8 0,0 0.2,-1 -0.6,-1 0,0 -0.9,0.3 -1.5,-0.1 0,0 -1.5,0.1 -1.8,-1.1 0,0 -0.3,-0.8 0.1,-1.4 0,0 0.7,-1.4 2.7,-0.9 0,0 1.1,0.3 1.3,-0.5 l -0.1,-3 c 0,0 -0.3,-0.8 1.3,-1.3 0,0 2,0.6 2.7,-0.4 0,0 0.7,-1.4 1.3,-0.4 0,0 1.2,1.1 4.5,1 0,0 5.7,-0.4 5.8,-0.2 0,0 1.4,0.2 1.8,0.6 z"
   id="path4">
   </path>
   <path
   class="st2"
   d="m 22,38.4 c 0,0 -0.7,2.2 -3.8,-0.1 L 7.6,38.1 c 0,0 -1.4,0.4 -1.6,-1 0,0 0.3,-2.9 0.1,-3.2 0,0 0.1,-0.8 -1.3,-0.8 0,0 -2.1,0.3 -2.2,-1.6 0,0 -0.4,-2 2.6,-2 0,0 0.9,0.4 1,-0.8 0,0 -0.1,-8.2 -0.1,-8.9 0,0 0.3,-0.8 -1.2,-0.9 0,0 -2.1,0.4 -2.3,-1 0,0 -0.1,-2.1 1.3,-2.2 0,0 1.7,0.1 2,-0.3 0,0 0.4,0.2 0.3,-1.3 l 0.1,-2.6 c 0,0 0.2,-0.7 1.3,-0.6 0,0 2,0.1 2.2,-0.1 0,0 0.4,-0.6 0.6,-0.8 0,0 1,-0.1 1.2,0.2 0,0 1.5,1 7.3,0.6 0,0 0.9,0 1.1,0.3 0,0 1.1,0.8 1.7,-0.1 0,0 0.9,-0.2 3.8,-0.1 0,0 3.1,0.8 5.2,-0.9 l 0.7,0.1 c 0,0 0.9,1.5 1.5,1 0,0 1.9,-0.2 2.2,0.2 0,0 0.6,0.9 0.3,3.4 0,0 -0.4,1.1 1.5,1.1 0,0 2.1,-0.4 1.8,1.6 0,0 0.6,2.2 -2.9,1.9 0,0 -0.4,0.6 -0.4,1.1 0,0 -0.1,7.2 -0.1,8 0,0 -0.1,1.1 1.5,1.1 0,0 2,-0.1 2.1,1.7 0,0 0.3,2.4 -2.7,2 0,0 -0.9,0.1 -1,0.7 L 35,37.1 c 0,0 0.1,1.6 -1.7,1.2 -0.3,0 -9.9,0.2 -10.7,-0.1 0,0 -0.4,-0.1 -0.6,0.2"
   id="path5">
   </path>
   <path
   class="st3"
   d="m 59.7,38.4 c 0,0 -0.7,2.2 -3.8,-0.1 L 45.3,38 c 0,0 -1.4,0.4 -1.6,-1 0,0 0.3,-2.9 0.1,-3.2 0,0 0.1,-0.8 -1.3,-0.8 0,0 -2.2,0.3 -2.2,-1.6 0,0 -0.4,-2 2.6,-2 0,0 0.9,0.4 1,-0.8 0,0 -0.1,-8.2 -0.1,-8.8 0,0 0.3,-0.8 -1.2,-0.9 0,0 -2.1,0.4 -2.3,-0.9 0,0 -0.1,-2.1 1.3,-2.2 0,0 1.7,0.1 2,-0.3 0,0 0.4,0.2 0.3,-1.3 L 44,11.6 c 0,0 0.2,-0.7 1.3,-0.6 0,0 2,0.1 2.2,-0.1 0,0 0.4,-0.6 0.6,-0.8 0,0 1,-0.1 1.2,0.2 0,0 1.5,1 7.3,0.6 0,0 0.9,0 1.1,0.3 0,0 1.1,0.8 1.7,-0.1 0,0 0.9,-0.2 3.8,-0.1 0,0 3.1,0.8 5.3,-0.9 l 0.7,0.1 c 0,0 0.9,1.5 1.5,1 0,0 1.9,-0.2 2.2,0.2 0,0 0.6,0.9 0.3,3.4 0,0 -0.4,1.1 1.5,1.1 0,0 2.1,-0.4 1.8,1.6 0,0 0.6,2.2 -2.9,1.9 0,0 -0.4,0.6 -0.4,1.1 0,0 -0.1,7.2 -0.1,8 0,0 -0.1,1.1 1.5,1.1 0,0 2,-0.1 2.1,1.7 0,0 0.3,2.4 -2.7,2 0,0 -0.9,0.1 -1,0.7 l -0.1,3.2 c 0,0 0.1,1.6 -1.7,1.2 -0.3,0 -9.9,0.2 -10.7,-0.1 -0.3,-0.1 -0.7,-0.2 -0.8,0.1"
   id="path6">
   </path>
   <path
   class="st4"
   d="m 59.7,38.4 c 0,0 -0.7,2.2 -3.8,-0.1 L 45.3,38 c 0,0 -1.4,0.4 -1.6,-1 0,0 0.3,-2.9 0.1,-3.2 0,0 0.1,-0.8 -1.3,-0.8 0,0 -2.2,0.3 -2.2,-1.6 0,0 -0.4,-2 2.6,-2 0,0 0.9,0.4 1,-0.8 0,0 -0.1,-8.2 -0.1,-8.8 0,0 0.3,-0.8 -1.2,-0.9 0,0 -2.1,0.4 -2.3,-0.9 0,0 -0.1,-2.1 1.3,-2.2 0,0 1.7,0.1 2,-0.3 0,0 0.4,0.2 0.3,-1.3 L 44,11.6 c 0,0 0.2,-0.7 1.3,-0.6 0,0 2,0.1 2.2,-0.1 0,0 0.4,-0.6 0.6,-0.8 0,0 1,-0.1 1.2,0.2 0,0 1.5,1 7.3,0.6 0,0 0.9,0 1.1,0.3 0,0 1.1,0.8 1.7,-0.1 0,0 0.9,-0.2 3.8,-0.1 0,0 3.1,0.8 5.3,-0.9 l 0.7,0.1 c 0,0 0.9,1.5 1.5,1 0,0 1.9,-0.2 2.2,0.2 0,0 0.6,0.9 0.3,3.4 0,0 -0.4,1.1 1.5,1.1 0,0 2.1,-0.4 1.8,1.6 0,0 0.6,2.2 -2.9,1.9 0,0 -0.4,0.6 -0.4,1.1 0,0 -0.1,7.2 -0.1,8 0,0 -0.1,1.1 1.5,1.1 0,0 2,-0.1 2.1,1.7 0,0 0.3,2.4 -2.7,2 0,0 -0.9,0.1 -1,0.7 l -0.1,3.2 c 0,0 0.1,1.6 -1.7,1.2 -0.3,0 -9.9,0.2 -10.7,-0.1 -0.3,-0.1 -0.7,-0.2 -0.8,0.1 z"
   id="path7">
   </path>
   <path
   class="st2"
   d="m 47.7,12.3 c 0,0 0.1,1.3 0.1,1.6 0,0.3 -0.2,18.3 -0.2,18.3 0,0 0.2,1.4 -1,2.1 0,0 -0.3,0.1 -0.4,-0.8 l 0.1,-19 c 0.1,0 0.2,-2.3 1.4,-2.2"
   id="path8">
   </path>
   <path
   class="st5"
   d="m 47.7,12.3 c 0,0 0.1,1.3 0.1,1.6 0,0.3 -0.2,18.3 -0.2,18.3 0,0 0.2,1.4 -1,2.1 0,0 -0.3,0.1 -0.4,-0.8 l 0.1,-19 c 0.1,0 0.2,-2.3 1.4,-2.2 z"
   id="path9">
   </path>
   <path
   class="st2"
   d="m 45.6,34.5 c 0,0 0.1,-17.8 0.1,-18.1 -0.1,-0.3 0.1,0.3 0.1,0.3 0,0 -0.2,-3.1 0.6,-4.4 0,0 -0.3,-1.1 -1.7,0.3 L 44.6,15 c 0,0 0,1.5 -1.3,1.4 0,0 -1.5,-0.1 -2.2,0.6 0,0 -0.4,1.4 1.1,1.1 0,0 2.3,0 2.4,0.9 l -0.1,9.6 c 0,0 0.5,1.6 -1.3,1.6 0,0 -2.2,-0.1 -2.1,1.2 0,0 0.4,1.1 2.3,0.8 0,0 1.3,0.2 1.3,1.5 v 2.4 c 0,0 -0.1,1 1.1,1 h 9.9 c 0,0 0.5,0.1 0.5,-0.6 0,0 -0.1,-0.5 -0.8,-0.5 h -8.3 c 0,0 -1.4,0.4 -1.5,-1.5"
   id="path10">
   </path>
   <path
   class="st2"
   d="m 47.5,34.4 c 0,0 -0.3,0.9 0.7,0.7 h 6.5 l 1.8,0.4 c 0,0 1.8,-0.4 0,-1.5 0,0 -5.8,0.1 -6.3,-0.1 0,0 -1.2,-0.3 -1.5,-0.4 0,0.1 -0.6,-0.1 -1.2,0.9"
   id="path11">
   </path>
   <path
   class="st5"
   d="m 47.5,34.4 c 0,0 -0.3,0.9 0.7,0.7 h 6.5 l 1.8,0.4 c 0,0 1.8,-0.4 0,-1.5 0,0 -5.8,0.1 -6.3,-0.1 0,0 -1.2,-0.3 -1.5,-0.4 0,0.1 -0.6,-0.1 -1.2,0.9 z"
   id="path12">
   </path>
   <path
   class="st2"
   d="m 58.3,35.3 c 0,0 -1.2,0 -1.1,1.6 0,0 0.1,1.2 1.4,1.2 0,0 1.1,-0.2 1,-1.5 0,0.1 -0.7,-1.5 -1.3,-1.3"
   id="path13">
   </path>
   <path
   class="st2"
   d="m 59.2,34.7 c 0,0 0.6,-0.6 0.9,-0.6 0,0 6.3,0.6 7.4,-0.2 0,0 1,-0.2 1.2,0 0,0 0.9,0.8 0.9,1.2 0,0 -0.1,0.6 -1.2,0.2 0,0 -7.1,0.1 -7.5,0.1 0.1,0 -1.9,0.4 -1.7,-0.7"
   id="path14">
   </path>
   <path
   class="st5"
   d="m 59.2,34.7 c 0,0 0.6,-0.6 0.9,-0.6 0,0 6.3,0.6 7.4,-0.2 0,0 1,-0.2 1.2,0 0,0 0.9,0.8 0.9,1.2 0,0 -0.1,0.6 -1.2,0.2 0,0 -7.1,0.1 -7.5,0.1 0.1,0 -1.9,0.4 -1.7,-0.7 z"
   id="path15">
   </path>
   <path
   class="st2"
   d="m 60,36.7 c 0,0 0,-0.5 0.9,-0.5 l 8.9,-0.1 c 0,0 0.8,0.4 0.8,-1.1 0,0 0.3,-6.9 0.4,-14.5 0,-2.3 0.1,-4.6 0,-6.8 0,0 -0.2,-0.9 -0.4,-1.1 0,0 0,-1 1.1,-0.6 0,0 0.9,0.1 0.7,1.5 l 0.1,2.2 c 0,0 -0.2,1 1.5,0.7 0,0 1.7,0.3 1.8,0.9 0,0 0.5,1.3 -1.5,1.1 h -1.5 c 0,0 -0.6,0.4 -0.4,1.1 L 72,28.8 c 0,0 -0.1,1.6 1.4,1.5 0,0 1.6,-0.1 1.9,0.4 0,0 1.1,1.6 -1.3,1.5 0,0 -1.5,-0.1 -1.8,0.2 0,0 -0.3,0.3 -0.4,3.3 0,0 0.1,1.8 -1.2,1.6 0,0 -8.8,0.1 -9.6,-0.1 0,0 -0.8,0.2 -1,-0.5"
   id="path16">
   </path>
   <path
   class="st2"
   d="m 48.7,11.8 -0.2,20.3 c 0,0 -0.1,0.9 1.5,1.1 0,0 1.8,0.2 2.3,0 0,0 1.2,-0.1 4.3,0.1 0,0 0.8,0.8 0.8,-0.2 0,0 0.5,-16.4 0.3,-19.9 0,0 -0.1,-1.5 -1.1,-1.5 0,0 -4.8,0.4 -5.2,0 l -1.9,-0.5 c -0.2,0 -0.9,0.1 -0.8,0.6"
   id="path17">
   </path>
   <path
   class="st2"
   d="m 58.6,12.8 c 0,0 -0.2,9.5 -0.1,9.9 l -0.1,8 -0.3,2.8 c 0,0 0.4,0.6 0.7,0.2 0,0 2,-0.5 3.3,-0.3 0,0 4.1,0.4 4.9,-0.3 0,0 0.6,0.3 0.8,-0.7 0,0 0.2,-17.7 0.1,-18 0,0 0.2,-2.5 0.1,-2.8 0,0 -0.1,-0.6 -1.1,-0.1 0,0 0.1,0.5 -5.9,0.3 0,0 -2.2,0 -2.4,1"
   id="path18">
   </path>
   <path
   class="st2"
   d="m 68.7,12.5 -0.1,20 c 0,0 0.5,1.8 1.3,1.6 0,0 0.1,-0.4 0.2,-1 l 0.3,-19 C 70.4,14 69.8,11 68.7,12.5"
   id="path19">
   </path>
   <path
   class="st5"
   d="m 68.7,12.5 -0.1,20 c 0,0 0.5,1.8 1.3,1.6 0,0 0.1,-0.4 0.2,-1 l 0.3,-19 C 70.4,14 69.8,11 68.7,12.5 Z"
   id="path20">
   </path>
   <path
   class="st3"
   d="M 60.9,18.5 C 60.7,18 62,17.9 62,17.9 l 0.6,0.1 c 0.4,-0.1 0.9,0.1 0.9,0.1 0.4,0.7 -0.3,1.1 -0.3,1.1 L 63,20.1 c -0.1,0.7 0,6.7 0,6.7 0.1,0.3 0.6,0.9 0.6,0.9 0,0.6 -0.7,0.4 -0.7,0.4 l -1.8,0.1 C 60.5,28.1 60.7,27.5 60.7,27.5 61.3,27.2 61.5,26 61.5,26 v -6.3 z"
   id="path21">
   </path>
   <path
   class="st3"
   d="m 52.4,24.4 -0.1,2 0.6,0.9 c 0.4,0.5 -0.3,0.9 -0.3,0.9 l -2,-0.2 c -0.4,-0.2 0,-0.8 0,-0.8 0.5,-0.3 0.6,-1.1 0.6,-1.1 l -0.1,-3.7 0.1,-2.7 c 0,-0.3 -0.5,-0.9 -0.5,-0.9 -0.4,-0.1 -0.3,-0.6 -0.3,-0.6 0.1,-0.3 1.2,-0.1 1.2,-0.1 h 2.7 c 2.5,0.8 2.2,2.7 2.2,2.7 0.2,1.8 -1.8,2.6 -1.8,2.6 l -0.1,1 1.8,2.9 c 0.3,0.3 0.3,0.5 0.3,0.5 -0.3,0.7 -1.3,0 -1.3,0 L 53,24.2 c -0.2,-0.3 -0.6,0.2 -0.6,0.2 m 0.1,-5 c 0.1,1.4 0.1,3.3 0.1,3.3 1.2,0.9 1.9,-0.4 1.9,-0.4 1.6,-1.5 0,-2.9 -0.3,-3.3 -0.3,-0.4 -1.5,-0.1 -1.5,-0.1 z"
   id="path22">
   </path>
   <path
   class="st3"
   d="m 39.2,49 c 0,0 0.4,-0.2 0.6,-0.5 0,0 1.3,-0.1 1.5,-0.3 l 4.2,0.3 c 0,0 4.1,0.3 5.9,-1 0,0 0.6,0 1.1,0.2 0,0 0.9,0.2 1.1,0.6 L 56,48.2 c 0,0 1.4,0.4 1.3,1.3 v 1.1 c 0,0 -0.3,2.3 0.4,2.4 h 1.8 c 0,0 1.5,0.7 1.3,1.6 0,0 0.1,1.3 -1.3,1.5 0,0 -1.3,0.4 -1.8,0.3 0,0 -0.4,0.6 -0.5,1.3 L 57.1,66 c 0,0 -0.1,0.9 1.2,0.8 0,0 2,-0.2 2.5,0.9 0,0 0.5,1.8 -0.5,2.1 l -0.8,0.4 -1.6,0.3 c 0,0 -0.7,0.1 -0.8,1.3 V 74 c 0,0 0.1,1.5 -1.1,1.5 l -1.8,0.1 c 0,0 -0.4,0.4 -1.3,0.1 0,0 -10.8,0.2 -11.1,0.1 L 40.5,76 c 0,0 -1.4,1.3 -2.5,0.3 l -0.9,-0.7 c 0,0 -0.6,0.1 -0.9,0.1 -0.3,-0.1 -11.9,0.1 -11.9,0.1 0,0 -2.5,0.3 -2.7,-0.6 0,0 -0.3,-3.2 -0.2,-3.6 0,0 0,-0.9 -0.6,-1 0,0 -2.5,-0.1 -2.5,-0.4 0,0 -1.3,-0.9 -0.9,-1.9 0,0 0.4,-1.3 1.8,-1.4 0,0 2,0.3 2,-0.3 0,0 0.1,-0.4 0.1,-1 0,0 0.1,-7.5 0.1,-8 0,0 0.2,-1 -0.6,-1 0,0 -0.9,0.3 -1.5,-0.1 0,0 -1.5,0.1 -1.8,-1.1 0,0 -0.3,-0.8 0.1,-1.4 0,0 0.7,-1.4 2.7,-0.9 0,0 1.1,0.3 1.3,-0.5 l -0.1,-3 c 0,0 -0.3,-0.8 1.3,-1.3 0,0 2,0.6 2.7,-0.4 0,0 0.7,-1.4 1.3,-0.4 0,0 1.2,1.1 4.5,1 0,0 5.7,-0.4 5.8,-0.2 0,0 1.4,0.2 1.8,0.6 z"
   id="path23">
   </path>
   <path
   class="st4"
   d="m 39.2,48.9 c 0,0 0.4,-0.2 0.6,-0.5 0,0 1.3,-0.1 1.5,-0.3 l 4.2,0.3 c 0,0 4.1,0.3 5.9,-1 0,0 0.6,0 1.1,0.2 0,0 0.9,0.2 1.1,0.6 L 56,48.1 c 0,0 1.4,0.4 1.3,1.3 v 1.1 c 0,0 -0.3,2.3 0.4,2.4 h 1.8 c 0,0 1.5,0.7 1.3,1.6 0,0 0.1,1.3 -1.3,1.5 0,0 -1.3,0.4 -1.8,0.3 0,0 -0.4,0.6 -0.5,1.3 L 57.1,66 c 0,0 -0.1,0.9 1.2,0.8 0,0 2,-0.2 2.5,0.9 0,0 0.5,1.8 -0.5,2.1 l -0.8,0.4 -1.6,0.3 c 0,0 -0.7,0.1 -0.8,1.3 V 74 c 0,0 0.1,1.5 -1.1,1.5 l -1.8,0.1 c 0,0 -0.4,0.4 -1.3,0.1 0,0 -10.8,0.2 -11.1,0.1 l -1.3,0.3 c 0,0 -1.4,1.3 -2.5,0.3 l -0.9,-0.7 c 0,0 -0.6,0.1 -0.9,0.1 -0.3,-0.1 -11.9,0.1 -11.9,0.1 0,0 -2.5,0.3 -2.7,-0.6 0,0 -0.3,-3.2 -0.2,-3.6 0,0 0,-0.9 -0.6,-1 0,0 -2.5,-0.1 -2.5,-0.4 0,0 -1.3,-1 -0.9,-1.9 0,0 0.4,-1.3 1.8,-1.4 0,0 2,0.3 2,-0.3 0,0 0.1,-0.4 0.1,-1 0,0 0.1,-7.5 0.1,-8 0,0 0.2,-1 -0.6,-1 0,0 -0.9,0.3 -1.5,-0.1 0,0 -1.5,0.1 -1.8,-1.1 0,0 -0.3,-0.8 0.1,-1.4 0,0 0.7,-1.4 2.7,-0.9 0,0 1.1,0.3 1.3,-0.5 l -0.1,-3 c 0,0 -0.3,-0.8 1.3,-1.3 0,0 2,0.6 2.7,-0.4 0,0 0.7,-1.4 1.3,-0.4 0,0 1.2,1.1 4.5,1 0,0 5.7,-0.4 5.8,-0.2 0,0 1.4,0.2 1.8,0.6 z"
   id="path24">
   </path>
   <path
   class="st2"
   d="m 40.9,73.8 c 0,0 0.8,-0.4 1.3,-0.2 0.5,0.1 7.9,-0.1 7.9,-0.1 0,0 3.2,0.3 3.7,-0.2 L 54.6,73 c 0,0 0.3,-0.4 0.3,-0.9 0,-0.5 0.1,-2.2 0.1,-2.2 l 0.2,-0.6 c 0,0 -0.1,-0.6 0,-17.5 0,0 0.2,-1.3 -0.6,-2.1 0,0 0,-0.5 0.3,-0.4 0.3,0.1 0.1,0.1 0.1,0.1 0,0 1.1,-0.3 1.3,0.1 0,0 0.5,1.5 0.1,2.4 0,0 -0.1,1.8 0.8,1.8 0,0 0.4,0.4 1.1,0.2 0,0 1.6,0.2 1.6,0.7 0,0 0,1.1 -1.1,0.9 l -1.5,0.1 c 0,0 -1,0.2 -0.9,1.4 0.1,1.2 -0.1,9.8 -0.1,9.8 0,0 0,1 1.6,1 0,0 2,-0.1 2,0.5 0,0 0.5,1.3 -0.9,1.3 0,0 -2.7,-0.1 -2.5,0.7 0,0 -0.2,1.8 -0.3,2.1 0,0 0.3,1.5 -0.1,1.7 0,0 -0.2,0.8 -1.9,0.7 0,0 -10.9,-0.1 -12.6,0.1 0,-0.1 -1,-0.2 -0.7,-1.1"
   id="path25">
   </path>
   <path
   class="st2"
   d="m 38.9,72.6 c 0,0 1.1,0.2 1.1,1.2 0,1 0.1,1.6 -0.6,1.7 -0.6,0.1 -1.3,-0.1 -1.5,-0.9 -0.2,-0.8 0.1,-1.8 1,-2"
   id="path26">
   </path>
   <path
   class="st2"
   d="m 40.2,72.1 c 0,0 1.1,-0.8 1.6,-0.6 0,0 5.8,0.4 7.5,0.1 1.8,-0.3 0.7,-0.1 0.7,-0.1 0,0 1.5,0 2,-0.6 0,0 0.4,-0.1 0.7,0.3 l 0.9,1 c 0,0 0.1,0.6 -1,0.6 0,0 -10.3,0 -10.6,0.1 -0.1,0 -2,0.3 -1.8,-0.8"
   id="path27">
   </path>
   <path
   class="st5"
   d="m 40.2,72.1 c 0,0 1.1,-0.8 1.6,-0.6 0,0 5.8,0.4 7.5,0.1 1.8,-0.3 0.7,-0.1 0.7,-0.1 0,0 1.5,0 2,-0.6 0,0 0.4,-0.1 0.7,0.3 l 0.9,1 c 0,0 0.1,0.6 -1,0.6 0,0 -10.3,0 -10.6,0.1 -0.1,0 -2,0.3 -1.8,-0.8 z"
   id="path28">
   </path>
   <path
   class="st2"
   d="m 25.2,49.7 c 0,0 0.4,0 0.4,0.8 l -0.1,19.1 c 0,0 0.2,1.3 -0.9,2.1 0,0 -0.6,0.7 -0.6,-0.4 l 0.3,-19.5 c -0.1,-0.1 0,-1.5 0.9,-2.1"
   id="path29">
   </path>
   <path
   class="st5"
   d="m 25.2,49.7 c 0,0 0.4,0 0.4,0.8 l -0.1,19.1 c 0,0 0.2,1.3 -0.9,2.1 0,0 -0.6,0.7 -0.6,-0.4 l 0.3,-19.5 c -0.1,-0.1 0,-1.5 0.9,-2.1 z"
   id="path30">
   </path>
   <path
   class="st2"
   d="m 24.2,49.8 c 0,0 -0.8,1.4 -0.7,1.7 l -0.1,4.2 c 0,0 -0.1,2.7 0,3 0.1,0.3 -0.1,8.3 -0.1,8.3 0,0 -0.1,1.5 0,2 v 3.4 c 0,0 -0.1,1.5 1,1.1 0,0 11.1,-0.3 11.8,-0.1 0,0 1,0.2 0.6,0.7 0,0 0,0.4 -0.7,0.3 0,0 -5.2,0.5 -10,0.3 0,0 -3.2,0.2 -3.4,-0.2 0,0 -0.5,-0.1 -0.5,-1.9 0,0 0,-1.7 -0.1,-2 0,0 0.1,-0.9 -1.5,-1.1 0,0 -2.2,0.4 -2.3,-0.9 0,0 0.3,-0.9 2.5,-0.8 0,0 1.6,0.3 1.3,-1 l 0.2,-9.4 c 0,0 0.2,-1.6 -0.9,-1.7 0,0 -1,-0.1 -1.3,0.1 0,0 -1.8,0 -1.7,-1.1 0,0 0.6,-1.1 2.5,-0.9 0,0 1.4,0.3 1.5,-1.3 0,0 -0.1,-3.2 0.7,-3.4 0,0.2 1.6,0.2 1.2,0.7"
   id="path31">
   </path>
   <path
   class="st2"
   d="m 26.1,70.7 c 0,0 0.9,0.9 2.3,0.9 l 8.6,0.1 c 0,0 1,0.1 0.9,0.6 0,0 -0.1,0.8 -1.3,0.5 l -10.4,-0.1 -1.1,0.1 c 0,0 -0.8,-0.1 0.4,-1.6 z"
   id="path32">
   </path>
   <path
   class="st5"
   d="m 26.1,70.7 c 0,0 0.9,0.9 2.3,0.9 l 8.6,0.1 c 0,0 1,0.1 0.9,0.6 0,0 -0.1,0.8 -1.3,0.5 l -10.4,-0.1 -1.1,0.1 c 0,0 -0.8,-0.1 0.4,-1.6 z"
   id="path33">
   </path>
   <path
   class="st2"
   d="m 52.6,69.9 c 0,0 0.8,1.5 1.1,1.7 0,0 0.7,0.8 0.5,-0.6 l 0.1,-18.2 c 0,0 -0.2,-0.6 0,-1.6 l -0.8,-1.4 c 0,0 -0.8,-0.6 -0.8,0.4 l -0.1,19.4 z"
   id="path34">
   </path>
   <path
   class="st5"
   d="m 52.6,69.9 c 0,0 0.8,1.5 1.1,1.7 0,0 0.7,0.8 0.5,-0.6 l 0.1,-18.2 c 0,0 -0.2,-0.6 0,-1.6 l -0.8,-1.4 c 0,0 -0.8,-0.6 -0.8,0.4 l -0.1,19.4 z"
   id="path35">
   </path>
   <path
   class="st2"
   d="m 38.6,61.2 c 0,0 0.1,1.5 -0.1,3 -0.1,0.8 0.3,4.5 -0.1,6.4 0,0 -0.1,0.6 -1.4,0.1 0,0 -8.1,0.2 -8.3,-0.1 0,0 -2.2,0.1 -2.4,-1.1 0,0 0.3,-8.7 0.1,-9 0,0 -0.1,-4.7 0,-5.2 0,0 0.2,-4.4 0.1,-4.9 0,0 0.1,-1 -0.1,-1.5 0,0 0,-0.6 1.1,-0.3 0,0 0.4,0.7 2.5,0.4 0,0 1.5,0.2 3,0.1 0,0 3.2,-0.3 4,0 0,0 1.3,-0.3 1.6,1.1 l -0.1,3.9 0.4,1.3 0.4,-0.3 0.2,-1 0.1,-4.2 c 0,0 0.3,-0.8 1.3,-0.9 0,0 1.6,-0.2 1.8,-0.1 0.2,0.1 3.7,0.3 4.6,0.1 0.9,-0.2 1.1,0.6 4,-0.8 0,0 0.8,0.1 0.8,0.6 0,0 -0.3,5.4 0,6.4 0,0 0,9.9 -0.2,10.6 L 52,69 c 0,0 0.1,1.4 -2.1,1.5 0,0 1.4,0.2 -7.3,-0.1 0,0 -1.4,-0.1 -2.9,0.6 0,0 -0.3,-0.1 -0.3,-0.9 0,0 0.3,-3 0,-5.9 L 39.3,61 Z"
   id="path36">
   </path>
   <path
   class="st3"
   d="m 32.9,56.7 c 0,0 0.2,4.7 0,5.3 l -0.1,1 c 0,0 0.3,0.7 0.6,0.9 0,0 0.3,0.9 -0.4,0.8 0,0 -1.6,-0.1 -2,-0.1 0,0 -0.9,0 0,-1.1 0,0 0.3,-0.4 0.2,-1.6 0,0 0,-5.3 0.1,-5.6 0,0 0.1,-0.7 -0.3,-0.9 l -0.8,0.1 -0.9,0.9 c 0,0 -0.2,0.9 -0.6,-0.1 v -0.5 l 0.6,-1.5 0.4,-0.1 c 0,0 0.6,0.4 1.1,0.5 h 3 l 1.1,-0.5 c 0,0 0.4,0.1 0.3,0.6 0,0 0.2,1.5 -0.6,1.6 0,0 -0.5,-0.2 -0.8,-0.9 0,0.2 -0.8,-0.2 -0.9,1.2"
   id="path37">
   </path>
   <path
   class="st3"
   d="m 46.9,55 c 0,0 -2.4,-0.2 -2.5,2.4 0,0 -0.3,1.8 2.4,2.9 0,0 2,0.9 1.8,2.1 0,0 -0.3,2.2 -2.3,1.1 0,0 -1,-0.5 -0.9,-1.1 0,0 -0.3,-0.7 -0.7,-0.6 0,0 -0.4,0.1 -0.2,2.2 0,0 0,0.8 0.9,0 l 0.5,0.1 c 0,0 1.7,1.4 3.2,-0.3 0,0 1.6,-1.5 0.4,-3.2 0,0 -0.8,-1.3 -2.3,-1.9 0,0 -1.4,-0.6 -1.7,-1.7 0,0 0.4,-1.9 2.1,-0.9 0,0 0.6,0.8 1,0.9 0,0 0.5,0 0.4,-1.1 L 48.9,55 c 0,0 -0.1,-0.7 -1,0 0,0 -0.8,0.3 -1,0"
   id="path38">
   </path>
   <path
   class="st3"
   d="m 39.2,53.7 c 0.4,0.3 0.5,1 0.5,1 1.3,3.4 2.3,8.2 2.3,8.2 0.3,0.6 0.9,1.1 0.9,1.1 1.1,0.4 0,0.7 0,0.7 -0.4,0.2 -1.9,-0.1 -1.9,-0.1 -0.8,-0.1 -0.4,-0.4 -0.4,-0.4 0.3,-0.3 0.1,-1.6 0.1,-1.6 -0.1,-0.5 -0.6,-1.3 -0.6,-1.3 -0.3,-0.1 -0.7,0.4 -0.7,0.4 0,0 -0.7,0.3 -0.8,0 -0.1,-0.3 -0.5,-0.5 -0.5,-0.5 -0.8,0 -1.1,1.9 -1.1,1.9 0.4,1.6 0,1.3 0,1.3 -0.4,0.5 -1.6,0.1 -1.6,0.1 -0.6,-0.1 -0.2,-0.6 -0.2,-0.6 0.7,-0.1 0.9,-0.9 0.9,-0.9 0.3,-0.4 2.3,-8.7 2.3,-8.7 0.2,-0.2 0.3,-0.9 0.8,-0.6 m -1,4.2 C 38.1,58.2 37.7,60 37.7,60 l 0.4,0.6 c 0,0 1,0.1 1.4,0.1 0.4,0 0.4,-0.3 0.4,-0.6 0,-0.3 -0.7,-2.2 -0.7,-2.2 l -0.3,-0.4 z"
   id="path39">
   </path>
   <path
   class="st3"
   d="m 22,38.4 c 0,0 -0.7,2.2 -3.8,-0.1 L 7.6,38.1 c 0,0 -1.4,0.4 -1.6,-1 0,0 0.3,-2.9 0.1,-3.2 0,0 0.1,-0.8 -1.3,-0.8 0,0 -2.1,0.3 -2.2,-1.6 0,0 -0.4,-2 2.6,-2 0,0 0.9,0.4 1,-0.8 0,0 -0.1,-8.2 -0.1,-8.9 0,0 0.3,-0.8 -1.2,-0.9 0,0 -2.1,0.4 -2.3,-1 0,0 -0.1,-2.1 1.3,-2.2 0,0 1.7,0.1 2,-0.3 0,0 0.4,0.2 0.3,-1.3 l 0.1,-2.6 c 0,0 0.2,-0.7 1.3,-0.6 0,0 2,0.1 2.2,-0.1 0,0 0.4,-0.6 0.6,-0.8 0,0 1,-0.1 1.2,0.2 0,0 1.5,1 7.3,0.6 0,0 0.9,0 1.1,0.3 0,0 1.1,0.8 1.7,-0.1 0,0 0.9,-0.2 3.8,-0.1 0,0 3.1,0.8 5.2,-0.9 l 0.7,0.1 c 0,0 0.9,1.5 1.5,1 0,0 1.9,-0.2 2.2,0.2 0,0 0.6,0.9 0.3,3.4 0,0 -0.4,1.1 1.5,1.1 0,0 2.1,-0.4 1.8,1.6 0,0 0.6,2.2 -2.9,1.9 0,0 -0.4,0.6 -0.4,1.1 0,0 -0.1,7.2 -0.1,8 0,0 -0.1,1.1 1.5,1.1 0,0 2,-0.1 2.1,1.7 0,0 0.3,2.4 -2.7,2 0,0 -0.9,0.1 -1,0.7 L 35,37.1 c 0,0 0.1,1.6 -1.7,1.2 -0.3,0 -9.9,0.2 -10.7,-0.1 0,0 -0.4,-0.1 -0.6,0.2"
   id="path40">
   </path>
   <path
   class="st4"
   d="m 22,38.4 c 0,0 -0.7,2.2 -3.8,-0.1 L 7.6,38.1 c 0,0 -1.4,0.4 -1.6,-1 0,0 0.3,-2.9 0.1,-3.2 0,0 0.1,-0.8 -1.3,-0.8 0,0 -2.1,0.3 -2.2,-1.6 0,0 -0.4,-2 2.6,-2 0,0 0.9,0.4 1,-0.8 0,0 -0.1,-8.2 -0.1,-8.9 0,0 0.3,-0.8 -1.2,-0.9 0,0 -2.1,0.4 -2.3,-1 0,0 -0.1,-2.1 1.3,-2.2 0,0 1.7,0.1 2,-0.3 0,0 0.4,0.2 0.3,-1.3 l 0.1,-2.6 c 0,0 0.2,-0.7 1.3,-0.6 0,0 2,0.1 2.2,-0.1 0,0 0.4,-0.6 0.6,-0.8 0,0 1,-0.1 1.2,0.2 0,0 1.5,1 7.3,0.6 0,0 0.9,0 1.1,0.3 0,0 1.1,0.8 1.7,-0.1 0,0 0.9,-0.2 3.8,-0.1 0,0 3.1,0.8 5.2,-0.9 l 0.7,0.1 c 0,0 0.9,1.5 1.5,1 0,0 1.9,-0.2 2.2,0.2 0,0 0.6,0.9 0.3,3.4 0,0 -0.4,1.1 1.5,1.1 0,0 2.1,-0.4 1.8,1.6 0,0 0.6,2.2 -2.9,1.9 0,0 -0.4,0.6 -0.4,1.1 0,0 -0.1,7.2 -0.1,8 0,0 -0.1,1.1 1.5,1.1 0,0 2,-0.1 2.1,1.7 0,0 0.3,2.4 -2.7,2 0,0 -0.9,0.1 -1,0.7 L 35,37.1 c 0,0 0.1,1.6 -1.7,1.2 -0.3,0 -9.9,0.2 -10.7,-0.1 0,0 -0.4,-0.1 -0.6,0.2 z"
   id="path41">
   </path>
   <path
   class="st2"
   d="m 10.1,12.3 c 0,0 0.1,1.3 0.1,1.6 0,0.3 -0.2,18.3 -0.2,18.3 0,0 0.2,1.4 -1,2.1 0,0 -0.3,0.1 -0.4,-0.8 l 0.1,-19 c 0.1,0 0.2,-2.3 1.4,-2.2"
   id="path42">
   </path>
   <path
   class="st5"
   d="m 10.1,12.3 c 0,0 0.1,1.3 0.1,1.6 0,0.3 -0.2,18.3 -0.2,18.3 0,0 0.2,1.4 -1,2.1 0,0 -0.3,0.1 -0.4,-0.8 l 0.1,-19 c 0.1,0 0.2,-2.3 1.4,-2.2 z"
   id="path43">
   </path>
   <path
   class="st2"
   d="m 8,34.5 c 0,0 0.1,-17.8 0.1,-18.2 -0.1,-0.3 0,0.3 0,0.3 0,0 -0.2,-3.1 0.6,-4.4 0,0 -0.3,-1.1 -1.7,0.3 v 2.6 c 0,0 0,1.5 -1.3,1.4 0,0 -1.5,-0.1 -2.2,0.6 0,0 -0.4,1.4 1.1,1.1 0,0 2.3,0 2.4,0.9 l -0.1,9.6 c 0,0 0.5,1.6 -1.3,1.6 0,0 -2.1,-0.1 -2.1,1.2 0,0 0.4,1.1 2.3,0.8 0,0 1.3,0.3 1.3,1.5 v 2.4 c 0,0 -0.1,1 1.1,1 H 18 c 0,0 0.5,0.1 0.5,-0.6 0,0 -0.1,-0.5 -0.8,-0.5 L 9.5,36 c 0,0 -1.4,0.4 -1.5,-1.5"
   id="path44">
   </path>
   <path
   class="st2"
   d="m 9.7,34.6 c 0,0 -0.3,0.9 0.7,0.7 h 6.5 l 1.8,0.4 c 0,0 1.8,-0.4 0,-1.5 0,0 -5.8,0.1 -6.3,-0.1 0,0 -1.2,-0.3 -1.5,-0.4 0,0.1 -0.6,-0.2 -1.2,0.9"
   id="path45">
   </path>
   <path
   class="st5"
   d="m 9.7,34.6 c 0,0 -0.3,0.9 0.7,0.7 h 6.5 l 1.8,0.4 c 0,0 1.8,-0.4 0,-1.5 0,0 -5.8,0.1 -6.3,-0.1 0,0 -1.2,-0.3 -1.5,-0.4 0,0.1 -0.6,-0.2 -1.2,0.9 z"
   id="path46">
   </path>
   <path
   class="st2"
   d="m 20.5,35.5 c 0,0 -1.2,0 -1.1,1.6 0,0 0.1,1.2 1.4,1.2 0,0 1.1,-0.2 1,-1.5 0,0 -0.7,-1.6 -1.3,-1.3"
   id="path47">
   </path>
   <path
   class="st2"
   d="m 21.4,34.8 c 0,0 0.6,-0.6 0.9,-0.6 0,0 6.3,0.6 7.4,-0.2 0,0 0.9,-0.2 1.2,0 0,0 0.9,0.8 0.9,1.2 0,0 -0.1,0.6 -1.2,0.3 0,0 -7.2,0.1 -7.5,0.1 0.1,-0.1 -1.9,0.4 -1.7,-0.8"
   id="path48">
   </path>
   <path
   class="st5"
   d="m 21.4,34.8 c 0,0 0.6,-0.6 0.9,-0.6 0,0 6.3,0.6 7.4,-0.2 0,0 0.9,-0.2 1.2,0 0,0 0.9,0.8 0.9,1.2 0,0 -0.1,0.6 -1.2,0.3 0,0 -7.2,0.1 -7.5,0.1 0.1,-0.1 -1.9,0.4 -1.7,-0.8 z"
   id="path49">
   </path>
   <path
   class="st2"
   d="m 22.4,36.7 c 0,0 0,-0.5 0.9,-0.5 l 8.9,-0.1 c 0,0 0.8,0.4 0.8,-1.1 0,0 0.3,-6.9 0.4,-14.5 0,-2.3 0.1,-4.6 0,-6.8 0,0 -0.2,-0.9 -0.4,-1.1 0,0 0,-1 1.1,-0.6 0,0 0.9,0.1 0.7,1.5 l 0.1,2.2 c 0,0 -0.2,0.9 1.5,0.7 0,0 1.7,0.2 1.8,0.9 0,0 0.5,1.3 -1.5,1.1 h -1.5 c 0,0 -0.6,0.4 -0.4,1.1 l -0.2,9.2 c 0,0 -0.1,1.6 1.4,1.5 0,0 1.6,-0.1 1.9,0.4 0,0 1.1,1.6 -1.3,1.5 0,0 -1.5,-0.1 -1.8,0.2 0,0 -0.2,0.3 -0.4,3.3 0,0 0.1,1.8 -1.2,1.6 0,0 -8.8,0.1 -9.6,-0.1 -0.2,0.1 -1.1,0.3 -1.2,-0.4"
   id="path50">
   </path>
   <path
   class="st2"
   d="m 11,11.8 -0.2,20.3 c 0,0 -0.1,0.9 1.5,1.1 0,0 1.8,0.2 2.3,0 0,0 1.2,-0.1 4.3,0.1 0,0 0.8,0.8 0.8,-0.2 0,0 0.5,-16.4 0.3,-19.9 0,0 -0.1,-1.5 -1.1,-1.5 0,0 -4.8,0.4 -5.2,0 l -1.9,-0.5 c -0.1,0 -0.8,0.1 -0.8,0.6"
   id="path51">
   </path>
   <path
   class="st2"
   d="m 31.1,12.5 -0.1,20 c 0,0 0.5,1.8 1.3,1.6 0,0 0.1,-0.4 0.2,-1 l 0.3,-19 C 32.8,14 32.2,11 31.1,12.5"
   id="path52">
   </path>
   <path
   class="st5"
   d="m 31.1,12.5 -0.1,20 c 0,0 0.5,1.8 1.3,1.6 0,0 0.1,-0.4 0.2,-1 l 0.3,-19 C 32.8,14 32.2,11 31.1,12.5 Z"
   id="path53">
   </path>
   <path
   class="st2"
   d="m 21,12.7 c 0,0 -0.2,9.5 -0.1,9.9 l -0.1,8 -0.3,2.8 c 0,0 0.4,0.6 0.7,0.2 0,0 2,-0.5 3.3,-0.3 0,0 4.1,0.4 4.9,-0.3 0,0 0.6,0.3 0.8,-0.7 0,0 0.3,-17.7 0.1,-18 0,0 0.3,-2.5 0.1,-2.8 0,0 -0.1,-0.6 -1.1,-0.1 0,0 0.1,0.5 -5.9,0.3 0,0 -2.3,0 -2.4,1"
   id="path54">
   </path>
   <path
   class="st3"
   d="m 19.1,18.5 -0.6,1.2 c 0,0 -1.4,6.1 -2.1,7.4 0,0 -0.1,1.3 -1.2,0.3 0,0 -2.5,-7.8 -2.6,-8 l -0.8,-0.6 c 0,0 -0.5,-0.7 0.4,-0.8 l 2.3,0.1 c 0,0 0.8,0.6 -0.3,1.3 0,0 0.1,1 1.5,4.9 0,0 0.4,1.5 0.8,0.4 l 1.3,-4.5 -0.4,-1.3 c 0,0 -0.4,-0.6 0.2,-0.7 0,0 1.3,-0.2 1.5,0.3"
   id="path55">
   </path>
   <path
   class="st3"
   d="m 22.7,19.6 -0.1,6.7 -0.2,0.5 c 0,0 -0.6,0.8 -0.2,0.9 0,0 -0.6,0.4 4,0.4 0,0 1.8,0.3 1.3,-2 0,0 -0.2,-0.8 -0.8,0.4 0,0 -0.2,1 -2.5,0.7 0,0 -0.5,-0.4 -0.5,-0.9 v -2.8 c 0,0 -0.1,-0.7 1,-0.6 0,0 1.2,0.8 1.4,0.4 0,0 0.4,-1 0,-1.6 0,0 -0.6,-0.1 -0.6,0.2 0,0 -0.4,0.8 -1.5,0.3 0,0 -0.5,-1 -0.2,-1.8 0,0 -0.1,-1.6 0.9,-1.5 0,0 1.3,0.3 1.4,0.6 0,0 0.3,0.8 0.6,-0.1 l -0.3,-1.1 c 0,0 -0.2,-0.4 -0.5,-0.3 0,0 -2.1,0.3 -2.4,0.1 L 22,18.2 c 0,0 -0.2,0.6 0.5,0.9 0,0.1 0.2,0.2 0.2,0.5"
   id="path56">
   </path>
  </g>
 </g>
</svg>
