<?xml version="1.0" encoding="UTF-8" standalone="no"?>
<svg
   version="1.1"
   id="Layer_1"
   x="0px"
   y="0px"
   width="100"
   viewBox="0 0 100 100"
   enable-background="new 0 0 3840 2160"
   xml:space="preserve"
   sodipodi:docname="university_of_pennsylvania.svg"
   inkscape:version="1.4.3 (0d15f75, 2025-12-25)"
   height="100"
   xmlns:inkscape="http://www.inkscape.org/namespaces/inkscape"
   xmlns:sodipodi="http://sodipodi.sourceforge.net/DTD/sodipodi-0.dtd"
   xmlns="http://www.w3.org/2000/svg"
   xmlns:svg="http://www.w3.org/2000/svg"><defs
   id="defs22" /><sodipodi:namedview
   id="namedview22"
   pagecolor="#ffffff"
   bordercolor="#000000"
   borderopacity="0.25"
   inkscape:showpageshadow="2"
   inkscape:pageopacity="0.0"
   inkscape:pagecheckerboard="0"
   inkscape:deskcolor="#d1d1d1"
   inkscape:zoom="4.207024"
   inkscape:cx="16.63884"
   inkscape:cy="42.072496"
   inkscape:window-width="1440"
   inkscape:window-height="795"
   inkscape:window-x="0"
   inkscape:window-y="29"
   inkscape:window-maximized="0"
   inkscape:current-layer="g1" />





















<g
   id="g1"><path
     fill="#fcfdfd"
     opacity="1"
     stroke="none"
     d="m 91.996934,22.025544 c 0,7.596285 0.0095,15.145416 -0.0095,22.694451 0,1.722598 -0.162562,3.439468 -0.356719,5.152711 -0.190912,1.684987 -0.483771,3.349357 -0.854427,5.003035 -0.695769,3.104608 -1.714572,6.098106 -3.009433,9.003306 -2.151673,4.827206 -4.983467,9.223904 -8.38227,13.258348 -1.071589,1.271951 -2.178209,2.519464 -3.337712,3.71104 -2.477653,2.546382 -5.14116,4.889061 -7.960832,7.053143 -2.845731,2.18403 -5.817847,4.178009 -8.936201,5.951198 -2.226795,1.266318 -4.512869,2.413888 -6.90929,3.328738 -0.497897,0.190148 -1.000282,0.409506 -1.52004,0.489976 -0.49952,0.07732 -1.047533,0.08496 -1.533785,-0.03818 -1.664942,-0.419911 -3.214191,-1.155973 -4.757618,-1.893272 -3.41064,-1.629051 -6.619104,-3.604033 -9.710158,-5.768019 -3.10413,-2.173245 -6.038062,-4.558401 -8.789388,-7.169884 C 23.199617,80.210984 20.688267,77.428444 18.435317,74.41471 16.418238,71.716362 14.634357,68.871298 13.1399,65.84926 11.37917,62.288751 10.01396,58.584585 9.1566702,54.702106 8.7338965,52.787261 8.3989413,50.855711 8.2545163,48.897146 8.1762424,47.833959 8.098923,46.76953 8.0694271,45.704337 c -0.044864,-1.617405 -0.06491,-3.23586 -0.065865,-4.853933 -0.00955,-12.629008 0,-25.258016 0,-37.8870237 0,-0.2022711 0,-0.4045422 0,-0.5970768 0.3715148,-0.098701 83.1772229,-0.1338292 83.9932759,-0.037228 0,6.5451254 0,13.0973145 0,19.6966595 M 43.425056,3.9216621 c -11.243848,0 -22.487599,0 -33.7908193,0 0,0.2042757 0,0.3730417 0,0.5417123 -6.682e-4,12.3619226 0,24.7237486 0,37.0856716 0,2.217058 -0.028637,4.435072 0.1622743,6.647167 0.394711,4.571862 1.44673,8.988702 3.148708,13.25014 1.801731,4.511056 4.234806,8.661192 7.177235,12.517802 3.259819,4.272606 7.023646,8.052852 11.204042,11.422923 4.273466,3.445098 8.832918,6.448524 13.761497,8.877972 1.395947,0.688046 2.817477,1.315573 4.310121,1.772996 0.405783,0.124284 0.782452,0.126384 1.189858,0 1.721547,-0.522906 3.351552,-1.263548 4.944138,-2.084373 7.715129,-3.976312 14.586619,-9.079767 20.506317,-15.439325 3.902142,-4.192138 7.174466,-8.825282 9.662524,-13.996032 3.024046,-6.284818 4.640785,-12.911558 4.65854,-19.889386 0.03436,-13.400864 0.0095,-26.801823 0.0095,-40.202688 0,-0.1529203 -0.01336,-0.3057452 -0.02195,-0.5072527 -15.628046,0 -31.226305,0 -46.918971,0 z"
     id="path2"
     style="stroke-width:0.0471867" /><path
     fill="#04205c"
     opacity="1"
     stroke="none"
     d="m 43.472306,3.9214711 c 15.645511,0 31.24377,0 46.871721,0 0.0095,0.2014121 0.02196,0.3543324 0.02291,0.5072528 9.55e-4,13.4008651 0.02482,26.8018241 -0.0095,40.2025931 -0.01814,6.977827 -1.634494,13.604663 -4.658635,19.889385 -2.488058,5.170751 -5.760287,9.803895 -9.662429,13.996032 -5.919698,6.359559 -12.791188,11.463109 -20.506317,15.43942 -1.592586,0.820826 -3.222591,1.561468 -4.944139,2.084279 -0.4075,0.123806 -0.78417,0.121706 -1.189857,0 C 47.903275,95.583105 46.48184,94.955578 45.085893,94.267437 40.157218,91.837988 35.597862,88.834658 31.324396,85.389464 27.143904,82.019393 23.380173,78.239148 20.120259,73.966541 17.177925,70.109932 14.74485,65.959795 12.943119,61.448739 11.241046,57.187301 10.189122,52.770461 9.794411,48.1986 9.6034044,45.9866 9.6319458,43.768491 9.6321367,41.551432 c 0,-12.361922 0,-24.723749 0,-37.0856712 0,-0.1686706 0,-0.3373412 0,-0.5417123 11.3032203,0 22.5469713,0 33.8379743,0 M 88.617227,29.290407 c -25.918,0.0095 -51.835903,0.0105 -77.753805,0.01623 -0.01241,0 -0.02673,0.01623 -0.03818,0.02673 -0.01146,0.0095 -0.02005,0.02195 -0.05155,0.05727 0,0.163419 0,0.351563 0,0.539707 0,4.7496 0,9.499295 -8.59e-4,14.24899 0,2.283592 0.158744,4.553821 0.497421,6.813262 0.65435,4.366153 1.954746,8.533854 3.812318,12.532884 0.04295,0.09259 0.104811,0.176211 0.177739,0.297058 11.594552,-11.175978 23.157795,-22.321697 34.735356,-33.48116 5.831974,5.621875 11.614598,11.1986 17.39999,16.772557 5.778137,5.566989 11.550069,11.140469 17.35293,16.721394 0.07732,-0.149865 0.123138,-0.232148 0.162943,-0.317295 2.773758,-5.936881 4.249414,-12.179602 4.310506,-18.7337 0.04677,-5.032245 0.0095,-10.065444 0.0095,-15.098166 0,-0.120561 -0.01909,-0.241121 -0.0315,-0.395665 -0.181176,0 -0.335624,0 -0.581232,0 M 80.891024,5.0549146 c -23.351762,0 -46.703619,0 -70.100435,0 -0.01336,0.2472309 -0.03246,0.446161 -0.03246,0.6449957 0,3.6643615 0,7.3287227 0,10.9930847 0,3.617111 -7.64e-4,7.234316 0,10.851428 0,0.195303 0.02864,0.390605 0.04391,0.59364 0.179266,0.0095 0.303741,0.02004 0.428311,0.02004 25.965343,-0.0095 51.930687,-0.01623 77.896035,-0.02482 0.01241,0 0.02673,-0.01432 0.03818,-0.02291 0.01241,-0.0095 0.02291,-0.021 0.04677,-0.04295 0.0095,-0.06682 0.02195,-0.143375 0.02195,-0.220311 0,-7.517822 -8.59e-4,-15.035547 0,-22.5532732 -9.5e-5,-0.045819 -0.01527,-0.092592 -0.02577,-0.1381247 0,-0.013364 -0.01718,-0.024819 -0.02768,-0.036273 -0.0105,-0.012409 -0.021,-0.023864 -0.05632,-0.063956 -2.696824,0 -5.416457,0 -8.230498,0 M 60.016343,90.150614 C 64.41142,87.43117 68.497506,84.31234 72.265532,80.726729 64.831521,72.83873 57.428247,64.983472 49.998818,57.100436 42.566716,64.986049 35.163633,72.84083 27.668626,80.793166 c 0.134306,0.07446 0.244939,0.112829 0.325408,0.184612 0.833235,0.742838 1.646138,1.509158 2.493882,2.234909 4.557161,3.901666 9.488031,7.245868 14.86869,9.91281 1.394038,0.690911 2.811463,1.328365 4.297616,1.80259 0.236922,0.07541 0.456279,0.08782 0.687569,0 0.661319,-0.248854 1.334569,-0.46907 1.984624,-0.74427 2.652911,-1.123325 5.177242,-2.494549 7.689928,-4.034253 m -3.513064,-42.50499 c 0.421152,-1.182222 0.506681,-2.391839 0.271954,-3.62112 -0.641941,-3.36358 -3.773277,-5.955113 -7.521735,-5.546752 -3.96352,0.431842 -6.678859,4.034157 -6.065841,7.970091 0.660268,4.239197 5.173901,6.882085 9.189349,5.364909 1.975174,-0.746274 3.336375,-2.130195 4.126273,-4.167128 M 25.262087,58.986263 c -0.797343,1.398716 -1.095357,2.890501 -0.871226,4.491297 0.507539,3.626466 3.886678,6.253411 7.547508,5.855647 4.218101,-0.45838 7.020782,-4.494733 5.965707,-8.591987 -0.901962,-3.50285 -4.417412,-5.735564 -7.949377,-5.047613 -2.026052,0.394615 -3.563465,1.494839 -4.692612,3.292656 m 46.750392,-2.607378 c -1.198736,-0.630391 -2.471163,-0.883826 -3.822724,-0.777298 -3.316329,0.261454 -6.023172,2.95503 -6.294744,6.27575 -0.395856,4.839233 4.127323,8.554854 8.798744,7.227826 3.346207,-0.950455 5.486233,-4.340667 4.888965,-7.762475 -0.383732,-2.198445 -1.584568,-3.824632 -3.570241,-4.963803 z"
     id="path3"
     style="stroke-width:0.0471867" /><path
     fill="#feffff"
     opacity="1"
     stroke="none"
     d="m 88.664955,29.287829 c 0.199981,0 0.354428,0 0.535604,0 0.01241,0.154544 0.0315,0.275104 0.0315,0.395665 0,5.032722 0.03914,10.065826 -0.0095,15.098166 -0.06109,6.554098 -1.536748,12.796724 -4.31041,18.7337 -0.04009,0.08496 -0.08591,0.16743 -0.162944,0.317295 C 78.946205,58.25173 73.174272,52.678251 67.396135,47.111261 61.610743,41.537304 55.828119,35.96058 49.996241,30.338704 38.41868,41.498168 26.855437,52.643886 15.260789,63.819864 15.188243,63.699018 15.126005,63.615303 15.08305,63.522806 13.225478,59.523776 11.925083,55.356075 11.270732,50.989826 10.93215,48.730481 10.77188,46.460252 10.773311,44.176661 c 0,-4.749695 8.6e-4,-9.499391 8.6e-4,-14.249086 0,-0.188049 0,-0.376192 0,-0.539612 0.0315,-0.03532 0.04105,-0.04773 0.05155,-0.05727 0.01146,-0.0105 0.02577,-0.02673 0.03818,-0.02673 25.917903,-0.0095 51.835805,-0.01145 77.799338,-0.01623 z"
     id="path4"
     style="stroke-width:0.0471867" /><path
     fill="#980001"
     opacity="1"
     stroke="none"
     d="m 80.938752,5.0522419 c 2.76679,0 5.486423,0 8.183247,0 0.03532,0.040092 0.04677,0.051546 0.05632,0.063956 0.0095,0.011455 0.02386,0.022909 0.02768,0.036273 0.01145,0.045819 0.02577,0.091638 0.02577,0.1381248 0,7.5177253 0,15.0354513 0,22.5532723 0,0.07732 -0.01527,0.153874 -0.02196,0.220312 -0.02386,0.02195 -0.03436,0.03341 -0.04677,0.04295 -0.01241,0.0095 -0.02577,0.02291 -0.03818,0.02291 -25.965347,0.0095 -51.930691,0.01718 -77.896034,0.02482 -0.12457,0 -0.249141,-0.01145 -0.428312,-0.02005 -0.01527,-0.203035 -0.04391,-0.398337 -0.04391,-0.59364 0,-3.617111 0,-7.234317 0,-10.851428 0,-3.664362 -4.78e-4,-7.3287223 0,-10.9930839 0,-0.1988347 0.02004,-0.3977647 0.03245,-0.6449955 23.396816,0 46.748673,0 70.147685,0 M 35.440646,13.38077 c -0.07159,0.139939 -0.142802,0.280068 -0.214585,0.41991 -0.628578,1.223841 -1.093829,2.501231 -1.317865,3.865297 -0.130202,0.793238 0.0105,1.446729 0.702651,1.954459 0.449789,0.329992 0.448071,0.581423 0.112829,1.044861 -0.202461,0.279877 -0.439383,0.535413 -0.634495,0.819966 -0.357769,0.521667 -0.339251,1.091443 0.05536,1.517749 0.146238,0.158075 0.330373,0.302786 0.525866,0.388219 0.238163,0.104238 0.359869,0.249427 0.445779,0.494939 0.231386,0.661414 0.717924,1.04257 1.405016,1.188904 0.555744,0.118365 1.101466,0.03914 1.635255,-0.08209 1.726988,-0.392325 3.138972,-1.328651 4.345917,-2.597738 0.419146,-0.440624 0.743601,-0.940718 0.830753,-1.555549 0.03723,-0.262695 0.18318,-0.364833 0.412464,-0.440816 0.597555,-0.197975 1.203318,-0.210193 1.817099,-0.121515 1.15034,0.166284 2.214864,0.593927 3.241396,1.112538 1.416949,0.715729 2.806023,1.486917 4.229461,2.188996 1.767939,0.87199 3.589429,1.5902 5.581117,1.786267 1.695106,0.166856 3.288456,-0.09546 4.753322,-0.996179 2.241782,-1.378479 3.082271,-3.42448 2.687275,-5.95368 -0.142516,-0.912177 -0.412943,-1.805454 -0.643182,-2.702739 -0.280736,-1.094021 -0.284268,-2.175154 0.09259,-3.247697 0.119702,-0.340873 0.248185,-0.678595 0.363974,-1.020709 0.09259,-0.273481 0.02768,-0.423824 -0.225659,-0.450266 -1.157975,-0.120847 -2.238918,0.03341 -3.057929,0.972028 -0.445112,0.510307 -0.694156,1.122656 -0.801353,1.785024 -0.07732,0.477758 -0.111397,0.962387 -0.167907,1.4726 -0.171152,0.04964 -0.350609,0.100133 -0.52873,0.154733 -1.306792,0.400533 -2.295906,1.408071 -2.145181,3.029866 0.04582,0.494462 0.193967,0.982242 0.327891,1.464008 0.04105,0.148816 0.166094,0.338296 0.296582,0.38421 0.21888,0.07732 0.300972,-0.168003 0.413038,-0.310996 0.135547,-0.173252 0.250572,-0.366169 0.404924,-0.520234 0.22098,-0.220503 0.447115,-0.450075 0.710765,-0.610728 0.591921,-0.360536 1.290659,-0.163801 1.612823,0.444062 0.107197,0.202176 0.176307,0.442533 0.194348,0.670864 0.06396,0.81672 -0.408838,1.450929 -1.259923,1.706847 -0.838676,0.252195 -1.651578,0.129725 -2.433935,-0.22604 -0.914849,-0.416092 -1.644037,-1.094115 -2.400143,-1.733002 -0.147289,-0.12457 -0.118556,-0.260499 -0.08114,-0.424969 0.253531,-1.104521 0.04009,-1.628574 -0.891653,-2.232809 -0.02482,-0.01623 -0.04105,-0.04487 -0.08496,-0.0945 0.168289,-0.844116 0.308991,-1.712956 -0.85729,-2.015456 0,-0.496466 0.09164,-0.981096 -0.267659,-1.37552 -0.361013,-0.396047 -0.856048,-0.401965 -1.326073,-0.423156 -0.04868,-0.319968 -0.06968,-0.587054 -0.131729,-0.844212 -0.164662,-0.682891 -0.782643,-1.154443 -1.573972,-1.203126 -0.307655,-0.01909 -0.617314,0 -0.928405,0 -0.02196,-0.146429 -0.03627,-0.238926 -0.04964,-0.331709 -0.08114,-0.584859 -0.436328,-0.9167589 -0.983291,-1.0791294 -0.326745,-0.096983 -0.649864,-0.09622 -0.97575,-5.728e-4 -0.160175,0.046773 -0.322641,0.086865 -0.493698,0.1320156 C 48.091419,9.6475849 48.046077,9.5485972 47.990235,9.4556231 47.579107,8.7704405 46.903566,8.466509 46.140491,8.6904485 45.754944,8.8035638 45.40004,9.0233033 45.03473,9.2019013 44.926864,9.2544021 44.830836,9.3315304 44.721729,9.4024541 44.2602,8.9961937 43.78397,8.6764165 43.167707,8.6406205 42.500948,8.6024381 42.050683,8.9811117 41.6638,9.4523776 41.490165,9.3693309 41.363209,9.3102438 41.237588,9.2483883 40.547729,8.9081834 39.900156,8.9953346 39.285038,9.4367228 38.956956,9.6721171 38.728244,9.986167 38.54726,10.341072 c -0.07541,0.146907 -0.158266,0.289614 -0.259163,0.473175 -0.0945,-0.132493 -0.151584,-0.222698 -0.218213,-0.305459 -0.189288,-0.235012 -0.308704,-0.244844 -0.547057,-0.04582 -0.07255,0.06014 -0.136025,0.13068 -0.204467,0.195685 -0.799252,0.76002 -1.321873,1.712288 -1.877523,2.725075 M 28.116791,9.5977569 C 27.955375,9.5002964 27.78871,9.4106633 27.633498,9.3043255 26.485449,8.5177687 25.273255,8.4409267 24.001687,8.9618297 23.652891,9.1047271 23.298177,9.2329244 22.946326,9.3683764 22.57863,9.509842 22.209979,9.5145194 21.841233,9.377922 21.532815,9.2607021 21.220865,9.1515005 20.91827,9.0207259 19.519555,8.4162036 18.20064,8.5158596 16.948736,9.4193498 c -0.450266,0.3249319 -0.960859,0.5377987 -1.52825,0.5681536 -0.485679,0.025774 -0.971836,0.042956 -1.457707,0.06491 -0.165807,0.0095 -0.331613,0.01718 -0.532739,0.02768 0,0.447115 -0.01336,0.839153 0,1.229759 0.01718,0.386596 -0.08591,0.67745 -0.409411,0.936898 -0.627527,0.502576 -0.627622,1.234532 0,1.722789 0.31176,0.243413 0.414566,0.515653 0.411893,0.886976 -0.0095,1.336383 -0.01432,2.672957 0,4.009244 0.0095,0.395283 -0.115215,0.676209 -0.42392,0.934227 -0.616263,0.515176 -0.611872,1.232241 0.021,1.724506 0.316341,0.246181 0.411034,0.525389 0.399675,0.8928 -0.01146,0.388124 0,0.776915 0,1.150816 0.530352,0.118175 17.556346,0.09966 17.935306,-0.02004 0,-0.42373 0.01336,-0.862063 0,-1.299156 -0.01145,-0.294099 0.07064,-0.511834 0.323882,-0.679264 0.623709,-0.411987 0.742551,-1.302782 0.01432,-1.821681 -0.255822,-0.18213 -0.342496,-0.410269 -0.339441,-0.723746 0.01336,-1.430693 0.01241,-2.861577 0,-4.292271 0,-0.307176 0.07923,-0.521953 0.332187,-0.722983 0.669909,-0.532739 0.695969,-1.204367 0.05918,-1.751711 -0.292955,-0.251717 -0.416284,-0.513552 -0.392134,-0.891653 0.02673,-0.418097 0.0095,-0.839058 0.0095,-1.289992 -0.214107,-0.0095 -0.367123,-0.021 -0.520139,-0.02291 -0.377242,-0.0095 -0.755438,0 -1.131726,-0.01814 -0.535889,-0.0315 -1.06271,-0.1155966 -1.596595,-0.433942 M 77.208239,9.4196362 C 76.811715,9.2692931 76.416623,9.1151319 76.018477,8.9695616 75.240225,8.6850075 74.44145,8.47825 73.624252,8.7415174 73.166636,8.8889968 72.715416,9.1010998 72.31221,9.3625536 c -0.726229,0.4707885 -1.504385,0.6931054 -2.360243,0.6849914 -0.298586,0 -0.597363,0 -0.895854,0.0095 -0.120465,0 -0.240454,0.02673 -0.40206,0.04486 0,0.466016 -0.01432,0.904349 0,1.341347 0.01432,0.327127 -0.07636,0.570731 -0.359773,0.760305 -0.690815,0.462389 -0.627145,1.444726 0.01527,1.823113 0.270999,0.159507 0.349464,0.400629 0.346123,0.715919 -0.01527,1.398812 -0.01623,2.797909 0,4.196719 0,0.361588 -0.07732,0.629532 -0.394329,0.838485 -0.58629,0.386597 -0.654732,1.303356 0.0095,1.761257 0.314909,0.217067 0.400724,0.489499 0.382874,0.846885 -0.02005,0.402156 0,0.806125 0,1.194918 0.630009,0.115597 17.575056,0.08591 17.938265,-0.0315 0,-0.440339 0.0095,-0.894136 0,-1.347361 -0.0095,-0.24093 0.06682,-0.425542 0.261645,-0.570062 0.112925,-0.084 0.220408,-0.179076 0.314813,-0.283314 0.365788,-0.403587 0.368174,-0.960763 0.0095,-1.370651 -0.08305,-0.09355 -0.173729,-0.185089 -0.275772,-0.256108 -0.244844,-0.17058 -0.313191,-0.396333 -0.310614,-0.689574 0.01241,-1.38306 0.01814,-2.766503 0,-4.149373 -0.0095,-0.395664 0.09756,-0.673632 0.411798,-0.932222 0.610917,-0.50248 0.61149,-1.200071 0,-1.68222 -0.323405,-0.255057 -0.445303,-0.534361 -0.410461,-0.929357 0.02577,-0.296391 0.0095,-0.596982 0,-0.895473 0,-0.119606 -0.02864,-0.238639 -0.04773,-0.388887 -0.220408,0 -0.407978,-0.0105 -0.594117,0 -1.214009,0.07636 -2.32082,-0.1772619 -3.343153,-0.8888857 C 81.749839,8.5685976 80.765211,8.4792509 79.76321,8.8020828 79.315236,8.9464122 78.876711,9.1204283 78.43561,9.2854716 78.064286,9.4243599 77.691722,9.5439662 77.213392,9.4209235 Z"
     id="path5"
     style="stroke-width:0.0471867" /><path
     fill="#feffff"
     opacity="1"
     stroke="none"
     d="m 59.984652,90.163596 c -2.482522,1.523572 -5.006854,2.894796 -7.659765,4.018121 -0.650054,0.2752 -1.323305,0.495416 -1.984623,0.74427 -0.23129,0.08686 -0.450648,0.07446 -0.68757,0 -1.486153,-0.474225 -2.903577,-1.111679 -4.297615,-1.802685 -5.380659,-2.666942 -10.31153,-6.011049 -14.868691,-9.912715 -0.847744,-0.725751 -1.660646,-1.492071 -2.493881,-2.234909 -0.08018,-0.07159 -0.191102,-0.109965 -0.325408,-0.184707 7.495007,-7.952336 14.89809,-15.807022 22.330192,-23.692731 7.429429,7.883036 14.832703,15.73839 22.266713,23.626293 -3.768026,3.585707 -7.854111,6.704537 -12.279352,9.440209 z"
     id="path6"
     style="stroke-width:0.0471867" /><path
     fill="#fefefe"
     opacity="1"
     stroke="none"
     d="m 56.491824,47.678079 c -0.77997,2.001233 -2.141171,3.385249 -4.116345,4.131523 -4.015448,1.517176 -8.529081,-1.125712 -9.18935,-5.364909 -0.613017,-3.935934 2.102322,-7.538344 6.065842,-7.970091 3.748458,-0.408456 6.879794,2.183076 7.521735,5.546752 0.234726,1.229281 0.149198,2.438898 -0.281882,3.656725 z"
     id="path7"
     style="stroke-width:0.0471867" /><path
     fill="#fefefe"
     opacity="1"
     stroke="none"
     d="m 25.278124,58.954285 c 1.111583,-1.767939 2.648996,-2.868163 4.675048,-3.262778 3.531964,-0.688046 7.047415,1.544763 7.949377,5.047613 1.055074,4.097254 -1.747606,8.133607 -5.965707,8.591892 -3.66083,0.397764 -7.03997,-2.229087 -7.547508,-5.855648 -0.224131,-1.6007 0.0735,-3.092485 0.88879,-4.521079 z"
     id="path8"
     style="stroke-width:0.0471867" /><path
     fill="#fefefe"
     opacity="1"
     stroke="none"
     d="m 72.042643,56.391771 c 1.953982,1.124185 3.154818,2.750276 3.53855,4.948817 0.597268,3.421808 -1.542759,6.811925 -4.888966,7.762475 -4.671421,1.326933 -9.194599,-2.388594 -8.798743,-7.227826 0.271571,-3.320816 2.978415,-6.014296 6.294744,-6.27575 1.351561,-0.106529 2.623988,0.146812 3.854415,0.792284 z"
     id="path9"
     style="stroke-width:0.0471867" /><path
     fill="#0e2660"
     opacity="1"
     stroke="none"
     d="m 35.457446,13.349842 c 0.540854,-0.981287 1.063379,-1.933554 1.862727,-2.693574 0.06873,-0.06491 0.132206,-0.135261 0.204466,-0.195685 0.238354,-0.199025 0.35777,-0.189194 0.546962,0.04582 0.06682,0.08305 0.124189,0.172966 0.218308,0.305459 0.100897,-0.183562 0.184135,-0.326268 0.259164,-0.473175 0.180984,-0.3549053 0.409696,-0.6689552 0.737778,-0.9043495 0.615118,-0.4413882 1.26269,-0.5285394 1.95255,-0.1883345 0.12562,0.062046 0.252577,0.1209426 0.426116,0.2039893 0.386979,-0.4712659 0.837244,-0.8504167 1.504003,-0.8117571 0.616263,0.036273 1.092493,0.3555732 1.554022,0.7618336 0.109106,-0.070638 0.205135,-0.1478612 0.312905,-0.2005528 0.36531,-0.178598 0.72031,-0.3983375 1.105857,-0.5114528 0.762979,-0.2239395 1.438616,0.080183 1.849744,0.7651746 0.05632,0.092592 0.10147,0.1919618 0.172775,0.3283683 0.171057,-0.045819 0.333524,-0.084956 0.493699,-0.1320156 0.325886,-0.095647 0.649004,-0.09641 0.975654,5.728e-4 0.546963,0.1623705 0.902536,0.4942707 0.983387,1.0791297 0.01241,0.09259 0.02768,0.185279 0.04964,0.331709 0.311091,0 0.620845,-0.01623 0.9285,0 0.791329,0.04868 1.409311,0.520235 1.573972,1.203125 0.06205,0.257159 0.08305,0.524245 0.131729,0.844213 0.470025,0.021 0.964964,0.02673 1.326074,0.423156 0.359582,0.394423 0.263649,0.879054 0.267563,1.375519 1.166376,0.302501 1.025674,1.17134 0.857385,2.015457 0.04391,0.04964 0.06014,0.07827 0.08496,0.0945 0.931268,0.604236 1.145089,1.128289 0.891653,2.232809 -0.03818,0.164471 -0.06682,0.300399 0.08114,0.42497 0.756106,0.638887 1.485294,1.31691 2.400143,1.733002 0.782357,0.355669 1.595259,0.478234 2.433935,0.22604 0.851085,-0.255918 1.32426,-0.890127 1.259923,-1.706848 -0.01814,-0.22833 -0.08686,-0.468688 -0.194348,-0.670864 -0.322164,-0.607863 -1.020997,-0.804597 -1.612823,-0.444061 -0.26365,0.160652 -0.489785,0.390224 -0.71086,0.610728 -0.154257,0.154065 -0.269282,0.346981 -0.404925,0.520234 -0.11197,0.142993 -0.194157,0.388029 -0.412942,0.310996 -0.130488,-0.04582 -0.255153,-0.235395 -0.296581,-0.384211 -0.134021,-0.481765 -0.281977,-0.969641 -0.327892,-1.464007 -0.150725,-1.621796 0.838389,-2.629333 2.145181,-3.029867 0.178026,-0.05441 0.357578,-0.104809 0.52873,-0.154733 0.05632,-0.510212 0.09068,-0.994842 0.167908,-1.472599 0.107197,-0.662368 0.35624,-1.274718 0.801352,-1.785025 0.818916,-0.938808 1.899955,-1.092874 3.05793,-0.972027 0.253531,0.02673 0.318155,0.176784 0.225658,0.450266 -0.115788,0.342114 -0.244368,0.679836 -0.363974,1.020709 -0.376669,1.072543 -0.373137,2.153676 -0.09259,3.247696 0.230239,0.897286 0.500665,1.790563 0.643181,2.702739 0.394901,2.5292 -0.445493,4.575202 -2.687275,5.953681 -1.464866,0.900818 -3.058311,1.163034 -4.753322,0.996178 -1.991783,-0.196067 -3.813273,-0.914277 -5.581117,-1.786266 -1.423438,-0.702079 -2.812608,-1.473363 -4.229461,-2.188996 -1.026627,-0.518612 -2.091056,-0.946255 -3.241396,-1.112538 -0.613877,-0.08877 -1.219544,-0.07636 -1.817194,0.121515 -0.229189,0.07636 -0.375141,0.17812 -0.412369,0.440815 -0.08686,0.614832 -0.411702,1.114926 -0.830753,1.55555 -1.206945,1.269087 -2.618929,2.205413 -4.345917,2.597737 -0.533789,0.121229 -1.079511,0.200171 -1.635255,0.08209 -0.687187,-0.146334 -1.173725,-0.52749 -1.405015,-1.188903 -0.08591,-0.245512 -0.207617,-0.390701 -0.445875,-0.494939 -0.195398,-0.08591 -0.379533,-0.230144 -0.525771,-0.38822 -0.394329,-0.426305 -0.412848,-0.996081 -0.05537,-1.517748 0.195112,-0.284554 0.432034,-0.54009 0.634495,-0.819967 0.335147,-0.463438 0.33696,-0.714869 -0.112829,-1.04486 -0.692055,-0.50773 -0.832852,-1.161221 -0.70265,-1.95446 0.224035,-1.364065 0.689191,-2.641456 1.317769,-3.865296 0.07159,-0.139842 0.143089,-0.279972 0.229475,-0.451411 m 7.602587,3.103558 c 0.39996,0.543526 0.796865,1.089343 1.201122,1.629719 0.183466,0.245131 0.183275,0.340873 -0.08209,0.538562 -0.491598,0.366073 -0.992933,0.71907 -1.488062,1.080465 -0.107961,0.07827 -0.206949,0.170007 -0.310137,0.255441 0.0095,0.0315 0.01432,0.06205 0.021,0.09355 0.268518,0 0.572163,0.08209 0.799443,-0.01432 0.938714,-0.399674 1.886591,-0.418288 2.864442,-0.215444 1.071014,0.222031 2.071393,0.631822 3.03817,1.126762 1.370174,0.701505 2.722499,1.438138 4.098782,2.12733 1.634968,0.81863 3.323679,1.49818 5.155764,1.733956 1.753048,0.225659 3.41589,-0.0095 4.920753,-1.00916 1.799153,-1.198353 2.577214,-2.880763 2.294187,-5.010958 -0.11722,-0.882203 -0.353855,-1.753429 -0.595072,-2.613104 -0.41886,-1.492168 -0.367697,-2.949111 0.193394,-4.391545 0.03532,-0.09164 0.04773,-0.19263 0.07159,-0.294863 -1.508776,-0.08305 -2.528436,0.643467 -2.873701,2.06767 -0.113783,0.469165 -0.156261,0.960668 -0.182894,1.444629 -0.03627,0.65225 0.09851,0.663705 -0.664564,0.807462 -1.205034,0.22709 -1.972977,1.037129 -2.076929,2.129525 -0.04677,0.489022 0.05536,0.956755 0.221362,1.476322 0.12877,-0.137075 0.212962,-0.243508 0.313668,-0.330659 0.295437,-0.255727 0.56949,-0.552117 0.902536,-0.74532 0.779588,-0.452175 1.708184,-0.214012 2.205509,0.51508 0.630582,0.924395 0.397383,2.250087 -0.512217,2.899378 -0.515843,0.368268 -1.098984,0.535507 -1.726415,0.539421 -1.168095,0.0095 -2.165417,-0.448165 -3.07683,-1.143752 -1.581322,-1.206945 -2.990825,-2.593633 -4.312507,-4.075205 -0.931077,-1.043905 -1.850317,-2.099838 -2.81719,-3.109762 -1.035506,-1.081707 -2.247891,-1.908831 -3.713235,-2.321105 -2.208087,-0.621323 -4.384481,-0.460384 -6.535198,0.263553 -0.411224,0.138411 -0.801926,0.337914 -1.227659,0.520235 0.426592,1.032356 0.884495,1.997701 0.816339,3.145176 1.003147,-0.441865 1.857382,-0.173157 2.656538,0.394043 0.08973,-0.109202 0.157026,-0.19559 0.228999,-0.277777 0.664755,-0.758302 1.470785,-0.866836 2.31032,-0.312905 0.157311,0.103856 0.312713,0.211053 0.475179,0.306127 0.321209,0.187858 0.652059,0.206472 0.988828,0.03723 0.112256,-0.05632 0.231385,-0.100897 0.338773,-0.165139 0.995318,-0.595835 2.324542,0 2.619119,1.206182 0.02864,0.117601 0.05823,0.235108 0.08496,0.344118 1.711715,0.05441 1.978705,0.266895 2.39728,1.898809 0.07064,0 0.147288,1.91e-4 0.223748,0 0.999424,0 1.478898,0.412847 1.602991,1.400051 0.02864,0.230049 0.03818,0.46258 0.05537,0.685661 0.261263,0.105956 0.500857,0.183561 0.722219,0.296772 0.547917,0.280163 0.822925,0.863208 0.720216,1.461335 -0.02768,0.161511 -0.09546,0.278826 -0.264223,0.268326 -0.16848,-0.0105 -0.234917,-0.134975 -0.229381,-0.298586 0,-0.07827 0,-0.15712 0,-0.23568 0.0095,-0.394616 -0.197212,-0.651582 -0.543621,-0.804407 -0.157502,-0.06968 -0.323023,-0.12228 -0.487684,-0.17373 -0.273863,-0.08591 -0.413324,-0.269855 -0.430029,-0.553072 -0.01145,-0.188239 -0.01527,-0.377337 -0.03627,-0.564431 -0.09259,-0.811662 -0.526821,-1.122847 -1.330656,-0.958854 -0.533694,0.108819 -0.551353,0.0945 -0.554599,-0.458189 0,-0.0315 6.69e-4,-0.063 -4.77e-4,-0.0945 -0.03341,-0.903204 -0.485011,-1.348887 -1.389551,-1.370269 -0.07827,0 -0.157121,0 -0.235777,0 -0.213248,0 -0.495129,0.08877 -0.620558,-0.01527 -0.128293,-0.105861 -0.109679,-0.396525 -0.143757,-0.608245 -0.147575,-0.916186 -1.166185,-1.475654 -1.917996,-0.999233 -0.105574,0.06682 -0.22308,0.115502 -0.336195,0.170198 -0.540377,0.261358 -1.063666,0.225562 -1.569104,-0.09355 -0.199312,-0.125906 -0.392993,-0.260881 -0.595455,-0.381251 -0.371037,-0.220694 -0.747706,-0.224704 -1.111583,0.01336 -0.264414,0.172966 -0.496372,0.380392 -0.553073,0.761261 m -5.864047,8.133988 c 0.233963,-0.02386 0.471457,-0.03055 0.701411,-0.07541 1.497989,-0.292954 2.735384,-1.078175 3.839427,-2.089721 0.309278,-0.283314 0.575026,-0.624568 0.812139,-0.972505 0.151584,-0.222413 0.213821,-0.505725 0.331996,-0.801257 -0.427452,-0.08114 -0.782835,-0.13507 -1.131153,-0.218785 -0.314909,-0.07541 -0.388315,-0.322545 -0.171344,-0.556126 0.105384,-0.113497 0.240836,-0.200362 0.367602,-0.292382 0.582471,-0.422964 1.166757,-0.843353 1.762975,-1.273858 -0.204085,-0.283791 -0.388411,-0.536558 -0.568918,-0.792094 -0.208476,-0.294863 -0.393373,-0.609008 -0.62409,-0.885162 -0.727947,-0.871226 -1.776244,-0.989878 -2.678207,-0.316819 -0.188526,0.140798 -0.362828,0.300591 -0.543812,0.451507 -0.253436,0.211149 -0.505153,0.424397 -0.761166,0.632395 -0.147002,0.119416 -0.308895,0.182512 -0.450552,6.69e-4 -0.129534,-0.166189 -0.01336,-0.290855 0.100324,-0.407406 0.252672,-0.258304 0.505726,-0.516321 0.757729,-0.775294 0.495894,-0.509638 0.606528,-1.09316 0.413516,-1.77882 -0.30966,-1.100129 -0.828176,-2.099935 -1.386498,-3.084753 -0.06491,-0.115024 -0.140033,-0.224608 -0.221743,-0.354714 -0.09746,0.08496 -0.161416,0.12982 -0.212485,0.186521 -0.136598,0.151775 -0.281023,0.299063 -0.398911,0.464775 -1.21334,1.705606 -2.146708,3.544468 -2.612914,5.597629 -0.07541,0.334192 -0.09584,0.683273 -0.117506,1.02701 -0.021,0.335815 0.113592,0.605954 0.394518,0.808798 0.151394,0.109298 0.290282,0.242268 0.412943,0.383543 0.297154,0.34259 0.347745,0.736346 0.156548,1.141652 -0.09937,0.21048 -0.243699,0.401679 -0.381729,0.591541 -0.147575,0.203034 -0.326936,0.383923 -0.46506,0.59259 -0.262409,0.396428 -0.193203,0.745988 0.194538,1.017655 0.33171,0.232339 0.71191,0.319491 1.112921,0.329036 1.366737,0.03246 2.561368,-0.399768 3.575492,-1.320823 0.09259,-0.084 0.171629,-0.202271 0.280449,-0.246372 0.09651,-0.03914 0.271191,-0.03914 0.328178,0.021 0.06014,0.06395 0.04295,0.224799 0.021,0.335623 -0.01336,0.06491 -0.09851,0.117601 -0.155116,0.171915 -0.767179,0.734439 -1.659024,1.246082 -2.707798,1.438426 -0.499711,0.09164 -1.012977,0.109775 -1.548772,0.164089 0.02768,0.07732 0.04391,0.152538 0.08018,0.215443 0.316055,0.541427 0.820062,0.69406 1.493503,0.67096 M 45.4705,10.802885 c 0.139556,0.02291 0.278922,0.04677 0.418574,0.06873 1.488635,0.231195 2.839528,0.783503 4.021653,1.727466 0.924968,0.738542 1.726416,1.601845 2.519368,2.475935 1.15053,1.268227 2.315665,2.523282 3.477841,3.780913 0.08782,0.09546 0.201316,0.165902 0.318155,0.260404 0.217543,-0.789898 0.03723,-1.293714 -0.545722,-1.6112 -0.529494,-0.288564 -0.529494,-0.288564 -0.391942,-0.861299 0,-0.01527 0.0095,-0.03055 0.0105,-0.04582 0.195016,-0.84278 0.09355,-1.017178 -0.729378,-1.259159 -0.01527,0 -0.03055,-0.0095 -0.04677,-0.0095 -0.219453,-0.04009 -0.277872,-0.170103 -0.221744,-0.377051 0.04486,-0.165998 0.09546,-0.334287 0.109488,-0.504389 0.04009,-0.483103 -0.201221,-0.769375 -0.687091,-0.832853 -0.108343,-0.01432 -0.21974,-0.01527 -0.329133,-0.0095 -0.699596,0.03246 -0.699501,0.03341 -0.657309,-0.635356 0.05441,-0.860821 -0.390033,-1.387546 -1.250664,-1.430024 -0.340777,-0.01718 -0.686423,0.042 -1.028347,0.08018 -0.311567,0.03436 -0.404446,-0.04486 -0.374473,-0.356146 0.0095,-0.06205 0.02386,-0.12352 0.03245,-0.185852 0.06873,-0.522335 -0.151011,-0.841253 -0.662272,-0.971264 -0.424589,-0.1079612 -0.804789,0.02004 -1.177354,0.207998 -0.383541,0.193107 -0.43986,0.167907 -0.562617,-0.22709 -0.01814,-0.06014 -0.03532,-0.1203696 -0.05727,-0.1789796 C 47.412249,9.2588877 46.91521,9.0008703 46.234896,9.163909 45.762962,9.2770243 45.37732,9.5400054 45.009051,9.8410733 44.71686,10.08 44.697005,10.066826 44.42047,9.8229366 44.209799,9.6367977 43.9997,9.4371993 43.756478,9.3032747 43.110624,8.9476067 42.481283,9.1263002 42.082563,9.7436135 c -0.287321,0.4447295 -0.287321,0.4446335 -0.729856,0.1342111 -0.05155,-0.036273 -0.102424,-0.073501 -0.156356,-0.1052879 -0.66256,-0.3934692 -1.325596,-0.328082 -1.826835,0.2571583 -0.258877,0.302214 -0.419434,0.691292 -0.609487,1.048965 -0.182129,0.342592 -0.063,0.62285 0.184708,0.855858 0.402251,-0.172966 0.768992,-0.354046 1.15158,-0.491025 1.712957,-0.613209 3.478223,-0.820253 5.374072,-0.640891 z"
     id="path10"
     style="stroke-width:0.0471867" /><path
     fill="#0a245e"
     opacity="1"
     stroke="none"
     d="m 28.148769,9.6137935 c 0.503721,0.2999225 1.030542,0.3841146 1.566431,0.4155195 0.376288,0.02196 0.754388,0.01145 1.13163,0.01814 0.153112,0 0.306032,0.01336 0.520235,0.02291 0,0.450934 0.021,0.871895 -0.0095,1.289992 -0.02386,0.378101 0.09927,0.639936 0.392229,0.891652 0.637072,0.547345 0.611108,1.218973 -0.05918,1.751712 -0.252767,0.20103 -0.334478,0.415806 -0.332091,0.722983 0.01145,1.430694 0.01241,2.861673 0,4.292271 0,0.313477 0.084,0.541616 0.339441,0.723746 0.72852,0.518899 0.609677,1.409694 -0.01432,1.821681 -0.253436,0.16743 -0.335624,0.385165 -0.323883,0.679264 0.01718,0.437093 0,0.875426 0,1.299156 -0.378959,0.119224 -17.404953,0.137743 -17.93521,0.02005 0,-0.373901 -0.0095,-0.762692 0,-1.150816 0.01145,-0.367411 -0.08305,-0.646619 -0.399675,-0.8928 -0.63249,-0.492265 -0.636881,-1.20933 -0.021,-1.724506 0.308705,-0.258018 0.428884,-0.538944 0.42392,-0.934227 -0.01718,-1.336287 -0.01241,-2.672861 0,-4.009244 0,-0.371323 -0.100229,-0.643563 -0.411988,-0.886976 -0.62514,-0.488257 -0.625045,-1.220213 0,-1.722789 0.323978,-0.259448 0.426593,-0.550302 0.409506,-0.936898 -0.01718,-0.390606 0,-0.782644 0,-1.229759 0.201126,-0.0105 0.366837,-0.02005 0.532644,-0.02768 0.485967,-0.02196 0.972123,-0.03914 1.457802,-0.06491 0.567391,-0.030546 1.077889,-0.2432217 1.52825,-0.5681536 1.251809,-0.9034902 2.570724,-1.0031462 3.969439,-0.3986238 0.302594,0.1307745 0.61464,0.2399761 0.923059,0.357196 0.368745,0.1401292 0.737301,0.1354519 1.104997,-0.00955 0.35185,-0.135452 0.70666,-0.2636492 1.055456,-0.4065467 1.271569,-0.5209029 2.483667,-0.4440609 3.631716,0.3424958 0.155307,0.1063378 0.321972,0.1959709 0.513552,0.3118544 M 21.414306,19.92323 c 0.212103,-0.04868 0.424302,-0.09746 0.656736,-0.150821 0,-3.242542 0,-6.472483 0,-9.701088 C 21.398986,9.8291422 20.753418,9.5869706 20.101358,9.3638901 19.261919,9.0768542 18.46133,9.1805193 17.704461,9.6407123 17.104329,10.00564 16.523384,10.409896 15.821688,10.528452 c 0,3.446531 0,6.849248 0,10.239269 0.606527,0 1.185085,0.0095 1.763357,0 0.644805,-0.01146 1.285409,-0.06109 1.906923,-0.258686 0.613113,-0.194443 1.229854,-0.377814 1.922291,-0.583617 m 1.2751,-5.686404 c 0,1.847168 0,3.694334 0,5.497115 0.712865,0.210194 1.37256,0.360919 1.999419,0.598318 1.37447,0.52033 2.800772,0.428788 4.24502,0.460956 0,-3.429063 0,-6.830252 0,-10.26886 C 28.247757,10.415051 27.686094,10.042009 27.118226,9.6800401 26.99948,9.6046299 26.871855,9.5411518 26.743944,9.4815872 26.202328,9.2293927 25.633314,9.1023409 25.051034,9.2748298 24.259609,9.509174 23.48107,9.7868553 22.689359,10.048405 c 0,1.396997 0,2.746552 0,4.190609 m -8.82929,-2.193385 c -0.13908,0.166283 -0.260499,0.352327 -0.420579,0.495129 -0.509926,0.454751 -0.51298,0.673155 0.01623,1.129816 0.01241,0.0105 0.02386,0.021 0.03627,0.02959 0.31405,0.233294 0.441197,0.536654 0.436615,0.935372 -0.01623,1.383253 -0.02577,2.767172 0,4.149946 0.01241,0.592114 -0.07541,1.09278 -0.626,1.414085 -0.02577,0.01527 -0.04677,0.042 -0.06777,0.06491 -0.22604,0.250762 -0.22919,0.508684 -0.0095,0.75391 0.0525,0.05727 0.112161,0.111875 0.17688,0.155117 0.407501,0.272144 0.561758,0.651009 0.516607,1.134397 -0.02291,0.241886 -5.73e-4,0.487971 0,0.718878 5.669317,0 11.272676,0 16.874887,0 0.01146,-0.07923 0.02673,-0.126097 0.02291,-0.171438 -0.04868,-0.724893 -0.04009,-1.427257 0.70456,-1.850031 0.01336,-0.0095 0.021,-0.02291 0.03055,-0.03532 0.150343,-0.199407 0.157502,-0.456757 -8.6e-4,-0.651677 -0.07827,-0.09593 -0.180125,-0.174971 -0.280354,-0.249427 -0.328368,-0.244081 -0.463342,-0.557844 -0.457806,-0.974509 0.01718,-1.32025 0.02768,-2.641456 0,-3.961229 -0.01527,-0.660746 0.03436,-1.235868 0.664182,-1.63936 0.289327,-0.18528 0.26069,-0.523958 0.02196,-0.779016 -0.06396,-0.06873 -0.138316,-0.128961 -0.214872,-0.183371 -0.351372,-0.250095 -0.499425,-0.584667 -0.466301,-1.016605 0.021,-0.277108 0,-0.557271 0,-0.868362 -0.447879,0 -0.847267,0 -1.292664,0 0,3.699775 0,7.385805 0,11.104481 -2.068244,0 -4.091241,0 -6.098392,0 -0.493698,1.03102 -1.595259,1.054024 -2.128572,0 -2.006387,0 -4.029385,0 -6.1087,0 0,-3.727745 0,-7.42332 0,-11.091022 -0.457807,0 -0.857958,0 -1.307079,0 0,0.469166 0,0.892036 -0.03341,1.38497 z"
     id="path11"
     style="stroke-width:0.0471867" /><path
     fill="#0a245f"
     opacity="1"
     stroke="none"
     d="m 77.240407,9.4260317 c 0.441007,0.1113971 0.813476,-0.00955 1.184895,-0.1470975 0.441101,-0.1650433 0.879626,-0.3390594 1.3276,-0.4833887 1.001906,-0.3228319 1.986534,-0.2334853 2.844682,0.3637824 1.022333,0.7116239 2.129144,0.9650591 3.343057,0.8888851 0.186235,-0.01145 0.373805,0 0.594213,0 0.01909,0.150248 0.04486,0.269282 0.04773,0.388888 0.0095,0.298491 0.02291,0.599081 0,0.895472 -0.03436,0.394997 0.08687,0.6743 0.410461,0.929358 0.61149,0.482148 0.610822,1.17974 0,1.682315 -0.314337,0.258495 -0.417906,0.536463 -0.411893,0.932127 0.021,1.382869 0.01527,2.766313 0,4.149373 0,0.293241 0.06587,0.518993 0.310614,0.689573 0.102043,0.07064 0.193108,0.162276 0.275676,0.256109 0.360729,0.409887 0.358342,0.967064 -0.0095,1.370651 -0.0945,0.104238 -0.201889,0.199503 -0.314813,0.283313 -0.194826,0.144521 -0.26785,0.329133 -0.261645,0.570063 0.01145,0.453225 0,0.907022 0,1.347361 -0.363209,0.117601 -17.308257,0.147097 -17.938266,0.0315 0,-0.388792 -0.01527,-0.792761 0,-1.194917 0.01814,-0.357387 -0.06777,-0.629818 -0.382874,-0.846885 -0.664277,-0.457902 -0.595835,-1.374661 -0.0095,-1.761257 0.316914,-0.208954 0.398433,-0.476898 0.394329,-0.838485 -0.01623,-1.398811 -0.01527,-2.797908 0,-4.196719 0,-0.315291 -0.07541,-0.556413 -0.346124,-0.71592 -0.642704,-0.378386 -0.706374,-1.360723 -0.01527,-1.823112 0.283123,-0.189575 0.37371,-0.433178 0.359774,-0.760306 -0.01814,-0.436997 0,-0.87533 0,-1.341346 0.161606,-0.01909 0.281594,-0.042 0.40206,-0.04486 0.298491,-0.0095 0.597267,-0.0095 0.895853,-0.0095 0.855858,0.0095 1.634015,-0.2142033 2.360148,-0.6849918 0.403301,-0.2614538 0.854521,-0.4735567 1.312137,-0.6210362 0.817198,-0.2632673 1.615973,-0.056319 2.394225,0.2280442 0.398146,0.1455703 0.793239,0.2997316 1.22699,0.4617202 m 6.980691,7.4560616 c 0,-2.103467 0,-4.207029 0,-6.341327 C 83.492006,10.418346 82.914403,10.038241 82.331166,9.6711172 81.517691,9.1589963 80.65792,9.0765224 79.758629,9.3971587 c -0.605476,0.2158259 -1.20618,0.445111 -1.825593,0.6745873 0,3.224404 0,6.456064 0,9.665865 0.922485,0.275104 1.818816,0.552404 2.721829,0.80622 0.314909,0.08877 0.644232,0.150343 0.970309,0.169816 0.752098,0.04487 1.506104,0.05727 2.259346,0.08018 0.102043,0 0.204562,-0.01145 0.331137,-0.02005 0,-1.289036 0,-2.543996 0,-3.89336 M 71.019355,10.958386 c 0,3.276619 0,6.553239 0,9.812962 0.627814,0 1.191862,0.0095 1.755721,0 0.837148,-0.0105 1.653392,-0.129533 2.446535,-0.420578 0.499616,-0.183371 1.01966,-0.311664 1.532735,-0.45733 0.18948,-0.05345 0.384878,-0.08686 0.567199,-0.126861 0,-3.262492 0,-6.480024 0,-9.677892 C 76.739646,9.8713338 76.178747,9.6694445 75.623575,9.4528551 74.594752,9.0515584 73.626638,9.1511189 72.710357,9.7724414 72.202053,10.117133 71.671128,10.418105 71.045033,10.53208 c -0.0095,0.124283 -0.01718,0.232149 -0.02577,0.427642 m 13.759492,0.452079 c 0,3.438322 0,6.876548 0,10.349521 -2.077693,0 -4.10155,0 -6.10746,0 -0.486253,0.971264 -1.550586,1.094116 -2.142508,-0.01718 -2.000374,0 -4.02108,0 -6.072906,0 0,-1.873991 0,-3.710563 0,-5.54723 0,-1.849553 0,-3.699203 0,-5.533101 -0.468401,0 -0.880961,0 -1.312709,0 0,0.36321 -0.01241,0.677451 0,0.990355 0.01718,0.345646 -0.113593,0.609008 -0.379914,0.816816 -0.08687,0.06777 -0.17583,0.133829 -0.253722,0.210957 -0.288754,0.286177 -0.2836,0.572163 0.01336,0.854426 0.06777,0.06491 0.143947,0.121707 0.218117,0.179934 0.276917,0.216971 0.408932,0.483962 0.405305,0.852421 -0.01527,1.540564 -0.01336,3.081413 0,4.621976 0,0.3466 -0.113783,0.608627 -0.375237,0.819489 -0.08591,0.06873 -0.175925,0.133448 -0.254772,0.209621 -0.292668,0.282454 -0.292381,0.570445 -4.77e-4,0.854808 0.06682,0.06587 0.143566,0.122279 0.218785,0.178788 0.299636,0.225181 0.437856,0.515749 0.41046,0.897381 -0.021,0.291619 0,0.586005 0,0.883254 5.665786,0 11.27048,0 16.909824,0 0,-0.275199 0.01336,-0.525103 0,-0.773002 -0.02959,-0.445301 0.115979,-0.799729 0.48568,-1.059273 0.08973,-0.063 0.176402,-0.13488 0.245799,-0.218308 0.169434,-0.203704 0.165711,-0.488449 -0.01336,-0.686901 -0.09355,-0.104142 -0.20924,-0.189671 -0.319587,-0.277682 -0.26298,-0.209621 -0.396714,-0.477471 -0.396332,-0.816434 0,-1.556408 0,-3.112817 9.54e-4,-4.669226 0,-0.319013 0.121993,-0.579513 0.369891,-0.780925 0.09756,-0.07923 0.200744,-0.15292 0.290282,-0.240453 0.247231,-0.241504 0.258113,-0.547727 0.03055,-0.793143 -0.0525,-0.05727 -0.115979,-0.107102 -0.180985,-0.150343 -0.392991,-0.260786 -0.542666,-0.629436 -0.513647,-1.092302 0.01623,-0.262885 0,-0.527775 0,-0.826457 -0.443489,0 -0.842208,0 -1.274242,0 0,0.233867 0,0.451506 0,0.762025 z"
     id="path12"
     style="stroke-width:0.0471867" /><path
     fill="#fcfcfd"
     opacity="1"
     stroke="none"
     d="m 43.043804,16.42419 c 0.0735,-0.351659 0.304982,-0.559084 0.569396,-0.732051 0.363877,-0.238067 0.740546,-0.234058 1.111488,-0.01336 0.202462,0.12037 0.396238,0.255345 0.595454,0.381252 0.505439,0.31949 1.028823,0.355286 1.5692,0.09355 0.113115,-0.05441 0.230525,-0.103284 0.3361,-0.170198 0.751906,-0.476421 1.770516,0.08305 1.917995,0.999232 0.03437,0.211721 0.01527,0.502384 0.143757,0.608245 0.125525,0.103665 0.407406,0.01814 0.620654,0.01527 0.07827,0 0.157216,-0.0095 0.235681,0 0.904636,0.021 1.356142,0.467065 1.389552,1.370269 0,0.0315 4.77e-4,0.063 4.77e-4,0.0945 0,0.552498 0.021,0.567008 0.554598,0.458189 0.803836,-0.163994 1.238446,0.147192 1.330656,0.958853 0.021,0.187094 0.02577,0.376193 0.03627,0.564432 0.01623,0.283217 0.156166,0.467542 0.429933,0.553071 0.164661,0.05155 0.330182,0.104238 0.487684,0.17373 0.346409,0.152825 0.549635,0.409792 0.543717,0.804407 0,0.07827 -4.77e-4,0.157216 0,0.235681 -0.0095,0.163611 0.06109,0.288085 0.229285,0.298585 0.169148,0.0105 0.23654,-0.106815 0.264318,-0.268326 0.10271,-0.598127 -0.172394,-1.181171 -0.720216,-1.461335 -0.221457,-0.113211 -0.461051,-0.190815 -0.722219,-0.296772 -0.01718,-0.22308 -0.02673,-0.455611 -0.05536,-0.68566 -0.124189,-0.987204 -0.603663,-1.403393 -1.602991,-1.400052 -0.07636,1.91e-4 -0.153112,0 -0.223748,0 -0.418671,-1.631819 -0.685661,-1.844113 -2.397376,-1.898809 -0.02673,-0.10901 -0.05632,-0.226516 -0.08496,-0.344118 -0.294481,-1.203795 -1.623801,-1.802017 -2.619023,-1.206181 -0.107388,0.06395 -0.226613,0.108629 -0.338774,0.165139 -0.336769,0.169529 -0.667714,0.150916 -0.988828,-0.03723 -0.162466,-0.09546 -0.317963,-0.202272 -0.475274,-0.306128 -0.83944,-0.55393 -1.645565,-0.445397 -2.310224,0.312905 -0.07255,0.08209 -0.13927,0.168575 -0.229094,0.277777 -0.799157,-0.5672 -1.653297,-0.835907 -2.656539,-0.394042 0.06777,-1.147475 -0.389747,-2.112821 -0.816243,-3.145177 0.425637,-0.182321 0.816339,-0.381823 1.227659,-0.520234 2.150621,-0.723938 4.327111,-0.884876 6.535198,-0.263554 1.465248,0.412274 2.677633,1.239399 3.713139,2.321105 0.966968,1.009924 1.886113,2.065858 2.817286,3.109763 1.321586,1.481572 2.731089,2.868259 4.312412,4.075204 0.911413,0.695683 1.908735,1.151198 3.07683,1.143753 0.627431,0 1.210572,-0.171153 1.726415,-0.539421 0.909695,-0.649291 1.142894,-1.974984 0.512312,-2.899379 -0.497325,-0.729092 -1.42592,-0.967255 -2.205604,-0.51508 -0.333046,0.193203 -0.607099,0.489593 -0.902536,0.74532 -0.100706,0.08686 -0.184803,0.193585 -0.313668,0.33066 -0.165615,-0.519567 -0.267849,-0.987301 -0.221362,-1.476322 0.104047,-1.092397 0.871895,-1.902436 2.077025,-2.129526 0.763074,-0.143756 0.628481,-0.155211 0.664468,-0.807461 0.02673,-0.483961 0.06873,-0.975464 0.182894,-1.44463 0.345264,-1.424202 1.364925,-2.15043 2.873701,-2.06767 -0.02386,0.102234 -0.03532,0.203226 -0.07159,0.294864 -0.560995,1.442433 -0.612159,2.899376 -0.193394,4.391544 0.241313,0.859675 0.477852,1.730901 0.595072,2.613105 0.283027,2.130194 -0.495034,3.812605 -2.294187,5.010958 -1.504863,1.002287 -3.167705,1.234818 -4.920657,1.00916 -1.832181,-0.235776 -3.520892,-0.915327 -5.15586,-1.733957 -1.376188,-0.689191 -2.728608,-1.425824 -4.098686,-2.12733 -0.966778,-0.494939 -1.967252,-0.904731 -3.038266,-1.126762 -0.977755,-0.202844 -1.925633,-0.18423 -2.864346,0.215445 -0.227281,0.09679 -0.530926,0.01432 -0.799443,0.01432 -0.0095,-0.0315 -0.01432,-0.06205 -0.021,-0.09355 0.103188,-0.08591 0.202176,-0.176689 0.310232,-0.25544 0.49513,-0.361396 0.996369,-0.714392 1.488062,-1.080465 0.265559,-0.197689 0.265655,-0.293432 0.08209,-0.538563 -0.404257,-0.540376 -0.801257,-1.086192 -1.217446,-1.658928 z"
     id="path13"
     style="stroke-width:0.0471867" /><path
     fill="#fcfcfd"
     opacity="1"
     stroke="none"
     d="m 37.152552,24.587866 c -0.629913,0.02291 -1.134016,-0.13001 -1.449975,-0.671437 -0.03723,-0.063 -0.0525,-0.13822 -0.08018,-0.215443 0.53589,-0.05441 1.04906,-0.07255 1.548867,-0.164089 1.048679,-0.192344 1.940619,-0.703987 2.707703,-1.438426 0.05632,-0.05441 0.142325,-0.106814 0.155116,-0.171915 0.02195,-0.110824 0.03914,-0.27119 -0.021,-0.335623 -0.05727,-0.06014 -0.231672,-0.06014 -0.328083,-0.021 -0.108915,0.04391 -0.187474,0.161894 -0.280449,0.246372 -1.014219,0.921055 -2.20885,1.353469 -3.575587,1.320823 -0.401011,-0.0095 -0.781212,-0.0967 -1.112921,-0.329035 -0.387646,-0.271668 -0.456852,-0.621228 -0.194539,-1.017656 0.138124,-0.208667 0.317582,-0.389556 0.465157,-0.59259 0.137934,-0.189862 0.282263,-0.381061 0.381633,-0.591541 0.191197,-0.405305 0.140701,-0.799062 -0.156548,-1.141652 -0.122566,-0.141275 -0.26155,-0.274245 -0.412943,-0.383543 -0.28083,-0.202844 -0.41571,-0.472983 -0.394519,-0.808797 0.02196,-0.343738 0.042,-0.692819 0.117507,-1.027011 0.466206,-2.05316 1.399574,-3.892023 2.613009,-5.597629 0.117793,-0.165712 0.262218,-0.313 0.398815,-0.464775 0.05059,-0.05632 0.115025,-0.101852 0.212485,-0.186521 0.08209,0.130107 0.156547,0.23969 0.221744,0.354714 0.558322,0.984818 1.076934,1.984624 1.386593,3.084753 0.193012,0.68566 0.08209,1.269182 -0.413611,1.778821 -0.252003,0.258972 -0.504961,0.516989 -0.757729,0.775293 -0.113974,0.116551 -0.229763,0.241217 -0.100324,0.407406 0.141657,0.181843 0.303645,0.118747 0.450552,-6.69e-4 0.256012,-0.207998 0.507825,-0.421246 0.761261,-0.632395 0.180985,-0.150916 0.355286,-0.310709 0.543812,-0.451507 0.901868,-0.673059 1.95026,-0.554407 2.678207,0.316819 0.230622,0.276154 0.415519,0.590299 0.623995,0.885163 0.180603,0.255535 0.364833,0.508302 0.568918,0.792093 -0.596219,0.430505 -1.180408,0.850894 -1.76288,1.273858 -0.126861,0.09164 -0.262218,0.178885 -0.367601,0.292382 -0.216972,0.233676 -0.143662,0.480335 0.171343,0.556126 0.348223,0.084 0.703606,0.137648 1.131058,0.218785 -0.118079,0.295532 -0.180412,0.578845 -0.331996,0.801257 -0.237018,0.347937 -0.502862,0.689192 -0.812139,0.972505 -1.104044,1.011547 -2.341343,1.796767 -3.839428,2.089721 -0.229953,0.04487 -0.467352,0.05155 -0.744843,0.07636 m 1.502191,-4.687362 c 0.147192,-0.155021 0.176783,-0.330755 0.07732,-0.518898 -0.260117,-0.489498 -1.076265,-0.743506 -1.577695,-0.494653 -0.268231,0.133066 -0.396905,0.320064 -0.343164,0.6029 0.05727,0.302595 0.04296,0.586672 -0.03627,0.882966 -0.063,0.237972 0.03627,0.382206 0.279304,0.377338 0.210194,0 0.441102,-0.05918 0.622659,-0.163134 0.325886,-0.185758 0.621513,-0.424492 0.978041,-0.686519 z"
     id="path14"
     style="stroke-width:0.0471867" /><path
     fill="#f9fafb"
     opacity="1"
     stroke="none"
     d="m 45.430488,10.804702 c -1.85318,-0.176116 -3.618542,0.03055 -5.331403,0.644136 -0.382587,0.13698 -0.749328,0.318059 -1.15158,0.491025 -0.247612,-0.233007 -0.366837,-0.513266 -0.184803,-0.855857 0.190149,-0.357674 0.35061,-0.746752 0.609487,-1.048966 0.501238,-0.5852397 1.164275,-0.650627 1.826835,-0.2571578 0.05441,0.032455 0.105001,0.068728 0.156452,0.1052879 0.442534,0.3104229 0.442438,0.3105179 0.72976,-0.134211 0.398815,-0.6173134 1.02806,-0.7960068 1.673915,-0.4403381 0.243222,0.1339246 0.453416,0.333523 0.664087,0.5196619 0.27644,0.2443671 0.296295,0.2575401 0.588581,0.018137 0.368174,-0.3010679 0.753911,-0.564049 1.225846,-0.6771643 0.680314,-0.1630387 1.177257,0.095456 1.421529,0.7450334 0.02195,0.058228 0.03914,0.119224 0.05727,0.17898 0.122757,0.394996 0.17898,0.420197 0.562522,0.227089 0.37266,-0.187666 0.75286,-0.315959 1.177449,-0.207998 0.511261,0.130011 0.730524,0.448929 0.662177,0.971264 -0.0095,0.06205 -0.02673,0.123424 -0.03245,0.185853 -0.02959,0.31109 0.063,0.390796 0.374378,0.356146 0.341923,-0.03818 0.687569,-0.09736 1.028346,-0.08018 0.860631,0.042 1.304979,0.569202 1.250664,1.430024 -0.042,0.668956 -0.042,0.667906 0.657405,0.635355 0.109393,-0.0095 0.22079,0 0.329132,0.0095 0.485775,0.063 0.726897,0.34975 0.686996,0.832852 -0.01432,0.170102 -0.06491,0.338391 -0.109488,0.504389 -0.05632,0.206949 0,0.33696 0.22184,0.377051 0.01527,0 0.0315,0 0.04677,0.0095 0.823307,0.24198 0.924298,0.416378 0.729283,1.259158 0,0.01527 -0.0095,0.03055 -0.0105,0.04582 -0.137647,0.572735 -0.137647,0.572735 0.391942,0.861394 0.582472,0.317392 0.763265,0.821208 0.545626,1.611105 -0.116838,-0.0945 -0.23043,-0.165425 -0.318154,-0.260404 -1.162177,-1.257631 -2.327215,-2.512686 -3.477841,-3.780912 -0.792952,-0.87409 -1.5944,-1.737394 -2.519273,-2.475936 -1.182125,-0.943963 -2.533018,-1.496271 -4.021653,-1.727465 -0.139747,-0.02196 -0.279113,-0.04582 -0.461243,-0.07159 z"
     id="path15"
     style="stroke-width:0.0471867" /><path
     fill="#fdfdfd"
     opacity="1"
     stroke="none"
     d="m 21.382185,19.934868 c -0.653777,0.197021 -1.270422,0.380392 -1.88363,0.574835 -0.621515,0.197117 -1.262119,0.247231 -1.906923,0.258686 -0.578272,0.0105 -1.156831,0 -1.763358,0 0,-3.390021 0,-6.792738 0,-10.239269 0.701697,-0.118556 1.282641,-0.522812 1.882773,-0.8877397 0.75687,-0.460193 1.557459,-0.5638581 2.396898,-0.2768222 0.652059,0.2230805 1.297627,0.4652521 1.969637,0.7074239 0,3.228605 0,6.458546 0,9.701088 -0.232339,0.05346 -0.444538,0.102138 -0.695397,0.159603 z"
     id="path16"
     style="stroke-width:0.0471867" /><path
     fill="#fefefe"
     opacity="1"
     stroke="none"
     d="m 22.695946,14.192432 c 0,-1.396806 0,-2.746457 0,-4.143359 0.791711,-0.2615497 1.570249,-0.539231 2.361674,-0.7735752 0.582281,-0.1724889 1.15139,-0.045819 1.692911,0.2067574 0.127911,0.059183 0.255536,0.1227564 0.374282,0.1984529 0.567868,0.3619689 1.12953,0.7350109 1.815572,0.8465029 0,3.438608 0,6.839798 0,10.26886 -1.444248,-0.03246 -2.87055,0.05918 -4.24502,-0.460956 -0.626859,-0.237399 -1.286459,-0.388124 -1.999419,-0.598318 0,-1.802781 0,-3.649947 0,-5.544365 z"
     id="path17"
     style="stroke-width:0.0471867" /><path
     fill="#f6f7f9"
     opacity="1"
     stroke="none"
     d="m 13.88336,12.011264 c 0.01623,-0.457901 0.01623,-0.880771 0.01623,-1.349937 0.449121,0 0.849272,0 1.307079,0 0,3.667702 0,7.363277 0,11.091022 2.079315,0 4.102313,0 6.1087,0 0.533313,1.054024 1.634969,1.031019 2.128668,0 2.007055,0 4.030052,0 6.098296,0 0,-3.718676 0,-7.404706 0,-11.104481 0.445397,0 0.844784,0 1.292664,0 0,0.31109 0.01718,0.591254 0,0.868362 -0.03341,0.431938 0.114929,0.76651 0.466301,1.016605 0.07636,0.05441 0.150821,0.115025 0.214872,0.183371 0.238735,0.255058 0.267372,0.593736 -0.02195,0.779016 -0.6302,0.403491 -0.67936,0.978614 -0.664182,1.63936 0.03055,1.319773 0.02005,2.640978 0,3.961229 -0.0095,0.416665 0.129438,0.730428 0.457806,0.974509 0.100324,0.07446 0.202462,0.153494 0.280354,0.249427 0.158362,0.19492 0.151107,0.45227 8.6e-4,0.651677 -0.0095,0.01241 -0.01814,0.02768 -0.03055,0.03532 -0.745034,0.422774 -0.753052,1.125138 -0.704656,1.850031 0,0.04486 -0.01241,0.09164 -0.02291,0.171438 -5.602116,0 -11.20557,0 -16.874887,0 0,-0.230907 -0.02386,-0.476993 0,-0.718878 0.04486,-0.483388 -0.109011,-0.862253 -0.516512,-1.134398 -0.06491,-0.04295 -0.124188,-0.09756 -0.17688,-0.155116 -0.224226,-0.245226 -0.221172,-0.503148 0.0095,-0.75391 0.021,-0.02291 0.04105,-0.04964 0.06777,-0.06491 0.550399,-0.321305 0.6386,-0.821971 0.625905,-1.414085 -0.02959,-1.382774 -0.01909,-2.766693 0,-4.149946 0,-0.398719 -0.12247,-0.702078 -0.43652,-0.935372 -0.01241,-0.0095 -0.02482,-0.02005 -0.03627,-0.02959 -0.529113,-0.456661 -0.526154,-0.675065 -0.01623,-1.129816 0.16008,-0.142802 0.281595,-0.328846 0.437283,-0.530162 z"
     id="path18"
     style="stroke-width:0.0471867" /><path
     fill="#fdfdfd"
     opacity="1"
     stroke="none"
     d="m 84.221099,16.929344 c 0,1.302113 0,2.557073 0,3.846109 -0.126575,0.0095 -0.229095,0.02291 -0.331137,0.02005 -0.753243,-0.02291 -1.507345,-0.03532 -2.259346,-0.08018 -0.326078,-0.01909 -0.6554,-0.08114 -0.970405,-0.169817 -0.902918,-0.253816 -1.799249,-0.531116 -2.721734,-0.80622 0,-3.209801 0,-6.44146 0,-9.665865 0.619413,-0.2294763 1.220117,-0.4587614 1.825594,-0.6745872 0.89929,-0.3206364 1.758966,-0.2381625 2.572537,0.2739585 0.583236,0.3671237 1.160839,0.7472287 1.884491,0.8683627 0,2.134298 0,4.23786 0,6.388578 z"
     id="path19"
     style="stroke-width:0.0471867" /><path
     fill="#fdfdfe"
     opacity="1"
     stroke="none"
     d="m 71.024892,10.91629 c 0.0095,-0.15168 0.01623,-0.259545 0.02577,-0.383829 0.626095,-0.113974 1.15702,-0.414946 1.665324,-0.7596379 0.916281,-0.6213226 1.884395,-0.720883 2.913218,-0.3195864 0.555172,0.2165894 1.116071,0.4184787 1.69797,0.6358323 0,3.197868 0,6.4154 0,9.677892 -0.182321,0.04009 -0.377719,0.0735 -0.567199,0.126861 -0.513075,0.145666 -1.033119,0.273959 -1.532735,0.45733 -0.793143,0.291044 -1.609387,0.41046 -2.446535,0.420578 -0.563859,0.0095 -1.127908,0 -1.755721,0 0,-3.259724 0,-6.536343 0,-9.856777 z"
     id="path20"
     style="stroke-width:0.0471867" /><path
     fill="#f9fafb"
     opacity="1"
     stroke="none"
     d="m 84.784384,11.365696 c 0,-0.264031 0,-0.48167 0,-0.715538 0.432129,0 0.830752,0 1.274241,0 0,0.298682 0.01336,0.563572 0,0.826458 -0.02864,0.462865 0.120752,0.831516 0.513648,1.092301 0.06491,0.04296 0.128102,0.09355 0.180985,0.150344 0.22728,0.245416 0.216398,0.551639 -0.03055,0.793143 -0.08973,0.08782 -0.192822,0.161225 -0.290378,0.240453 -0.247898,0.201412 -0.369891,0.461911 -0.369795,0.780924 0,1.55641 9.54e-4,3.112818 -9.55e-4,4.669227 -4.77e-4,0.338963 0.133257,0.606813 0.396237,0.816434 0.110347,0.08782 0.225849,0.173539 0.319587,0.277682 0.178694,0.198452 0.182416,0.483197 0.01336,0.6869 -0.06968,0.08305 -0.156453,0.155689 -0.245704,0.218308 -0.369796,0.259544 -0.515271,0.613972 -0.485775,1.059274 0.01623,0.247899 0,0.497803 0,0.773002 -5.639344,0 -11.244038,0 -16.909824,0 0,-0.297249 -0.01718,-0.591636 0,-0.883254 0.02768,-0.381632 -0.11092,-0.6722 -0.410555,-0.897381 -0.07541,-0.05632 -0.151489,-0.113305 -0.218785,-0.178788 -0.292096,-0.284364 -0.292287,-0.572354 4.77e-4,-0.854808 0.07923,-0.07636 0.169148,-0.140607 0.254772,-0.209621 0.261549,-0.210863 0.378005,-0.472889 0.375332,-0.819489 -0.01241,-1.540563 -0.01432,-3.081412 0,-4.621976 0,-0.368459 -0.128388,-0.63545 -0.405305,-0.852421 -0.07446,-0.05823 -0.150057,-0.115119 -0.218213,-0.179934 -0.296772,-0.282263 -0.301832,-0.56825 -0.01336,-0.854426 0.07827,-0.07732 0.166953,-0.143279 0.253627,-0.210958 0.266321,-0.207807 0.397478,-0.47117 0.379914,-0.816815 -0.01527,-0.312809 0,-0.627146 0,-0.990356 0.431748,0 0.844308,0 1.312709,0 0,1.833899 0,3.683548 0,5.533101 0,1.836668 0,3.67324 0,5.54723 2.051921,0 4.072532,0 6.072906,0 0.592018,1.111108 1.656255,0.988256 2.142508,0.01718 2.006006,0 4.029767,0 6.10746,0 0,-3.472973 0,-6.9112 0,-10.396008 z"
     id="path21"
     style="stroke-width:0.0471867" /><path
     fill="#092560"
     opacity="1"
     stroke="none"
     d="m 38.630592,19.923223 c -0.332378,0.239308 -0.628005,0.478042 -0.953891,0.6638 -0.181557,0.103474 -0.412466,0.158934 -0.622659,0.163134 -0.242744,0.0095 -0.342591,-0.139366 -0.279304,-0.377338 0.07827,-0.296294 0.09355,-0.580371 0.03627,-0.882966 -0.05345,-0.282836 0.07541,-0.469834 0.343164,-0.6029 0.50143,-0.248853 1.317578,0.0095 1.577695,0.494653 0.09994,0.188143 0.07064,0.363877 -0.100992,0.541617 z"
     id="path22"
     style="stroke-width:0.0471867" /></g>
</svg>
