<svg version="1.1" id="Layer_1" xmlns="http://www.w3.org/2000/svg" xmlns:xlink="http://www.w3.org/1999/xlink" x="0px" y="0px"
	 width="100%" viewBox="0 0 592 480" enable-background="new 0 0 592 480" xml:space="preserve">
<path fill="#000000" opacity="1.000000" stroke="none" 
	d="
M593.000000,432.000000 
	C593.000000,436.689240 593.000000,441.378510 592.710022,446.341278 
	C585.220215,442.634125 581.763184,442.544006 577.998291,446.355103 
	C583.248962,447.278778 588.458679,448.093689 593.000000,451.000000 
	C593.000000,461.000031 593.000000,471.000061 593.000000,481.000000 
	C591.627930,481.000000 590.313965,481.000000 588.623901,480.612762 
	C588.381226,477.249786 588.639282,474.272675 588.607605,471.298706 
	C588.583374,469.024231 587.685608,467.079102 585.326843,466.200470 
	C581.597961,464.811584 577.883179,463.381592 574.128418,462.066284 
	C571.637573,461.193665 569.088196,460.684052 565.704285,462.168365 
	C569.644897,468.025543 573.812683,473.655151 572.000000,481.000000 
	C569.958313,481.000000 567.916687,481.000000 565.391907,480.644073 
	C561.950928,472.888153 552.100647,468.806824 545.203796,472.242096 
	C532.608093,478.515930 519.352173,480.439423 505.472961,478.545532 
	C499.717224,477.760162 493.945190,477.084290 488.203918,476.206116 
	C484.311829,475.610809 482.372375,476.835693 483.000000,481.000000 
	C479.307098,481.000000 475.614166,481.000000 471.340149,480.610992 
	C468.978638,472.407928 472.042847,466.046478 479.330688,462.156555 
	C483.893646,459.721100 488.872253,459.162750 493.857056,459.078857 
	C498.196625,459.005768 500.966919,457.923553 500.821808,452.923370 
	C500.678558,447.987549 498.629059,445.684235 493.556702,445.343658 
	C482.593719,444.607483 471.619751,444.014771 460.666870,443.152893 
	C448.220825,442.173584 435.752808,441.185242 423.602905,438.091248 
	C419.887177,437.145020 415.772980,436.528900 413.433105,432.352173 
	C415.514954,430.200409 417.970551,429.990967 420.428894,429.672485 
	C428.718201,428.598724 437.073151,429.188599 445.374512,428.620453 
	C449.400452,428.344940 453.681976,428.093384 456.304596,423.408386 
	C450.991730,419.735168 445.333496,419.138458 439.468719,419.580994 
	C429.687256,420.319061 420.076752,422.924042 410.166534,422.278473 
	C407.559998,422.108704 404.816254,422.347015 402.582306,419.664490 
	C405.112335,416.139038 408.123871,413.681946 412.701141,413.671509 
	C417.532349,413.660492 422.365326,413.726105 427.194000,413.610748 
	C429.790405,413.548706 432.496002,413.459808 434.199219,411.068542 
	C433.541931,408.479431 431.486389,408.557983 429.786407,408.119293 
	C423.514435,406.500793 417.187744,407.707794 410.890076,407.851837 
	C401.412598,408.068573 391.873383,409.218750 382.622131,406.201050 
	C379.458710,405.169128 375.838928,404.308777 374.887848,399.113281 
	C387.348053,399.648376 399.477386,399.867615 410.955902,393.626190 
	C410.026855,392.800507 409.804779,392.425842 409.548981,392.401184 
	C391.804443,390.692719 374.101959,388.769867 356.963898,383.462463 
	C354.819397,382.798279 352.936707,383.537018 352.048523,385.759918 
	C347.789978,396.417664 342.874298,406.878906 339.529266,417.818817 
	C335.354553,431.472198 342.799042,438.540558 356.626526,435.067383 
	C363.953400,433.227051 370.606354,429.718964 377.407990,426.590302 
	C381.856842,424.543823 386.387146,423.087463 391.389130,423.566803 
	C394.665680,423.880798 397.007507,425.465515 398.542053,428.309998 
	C401.648651,434.068390 399.084106,445.823059 393.748718,450.151154 
	C391.703064,448.966278 391.366913,446.676086 390.367950,444.820404 
	C389.665405,443.515289 389.166626,441.692444 387.324677,441.984985 
	C383.161926,442.646149 379.011230,441.933350 374.900146,442.193024 
	C372.681030,442.333252 369.335876,442.953644 369.119598,445.892609 
	C368.928284,448.492035 371.762115,449.521088 373.936920,450.305023 
	C379.009369,452.133423 384.406372,452.157562 389.685822,452.685303 
	C396.033905,453.319824 400.339020,456.579956 403.828125,461.739014 
	C408.238251,468.259857 407.204712,474.553619 404.000000,481.000000 
	C401.299988,481.000000 398.599976,481.000000 395.548615,480.627319 
	C396.252258,476.841431 396.594299,473.361450 392.840393,471.534241 
	C386.985535,468.684418 380.795654,468.701660 374.173615,470.093536 
	C375.310455,474.065277 377.856323,477.140808 377.000000,481.000000 
	C372.310760,481.000000 367.621490,481.000000 362.291870,480.713013 
	C359.557343,476.856781 356.605164,474.087799 352.823669,472.589691 
	C345.255615,469.591522 337.959381,465.841248 329.883331,464.187531 
	C322.996429,462.777283 316.174500,461.732208 309.111084,463.252533 
	C301.321442,464.929199 298.937805,467.628815 299.100830,475.528656 
	C299.138428,477.350983 299.037292,479.176147 299.000000,481.000000 
	C297.933319,481.000000 296.866669,481.000000 295.211395,480.726807 
	C292.802643,478.509552 290.878143,476.652039 289.181366,474.605713 
	C283.492401,467.744720 283.387482,463.423340 288.692017,456.234436 
	C292.960754,450.449310 298.566101,446.418488 305.223785,443.756226 
	C310.013458,441.840912 313.150604,435.657318 312.674469,429.741425 
	C312.238159,424.320404 307.871246,424.023163 304.107178,422.942993 
	C302.675568,422.532196 301.163849,422.404968 299.692627,422.127319 
	C292.496704,420.769470 285.182434,419.814331 278.580261,416.331360 
	C276.906769,415.448547 274.770264,414.919434 274.466125,412.131409 
	C281.791901,410.562866 289.545349,413.123444 297.218811,410.208862 
	C293.987305,405.802979 289.597046,404.823303 285.627258,403.550720 
	C274.212799,399.891663 262.657166,396.674988 251.190125,393.175934 
	C249.314926,392.603729 246.865662,392.480011 246.172958,389.630066 
	C252.496384,386.600555 260.074951,389.522583 266.704132,385.190887 
	C261.834290,381.954712 256.913696,381.850800 252.828735,379.678741 
	C248.790634,377.531555 243.607620,376.395935 243.411850,370.318451 
	C245.785233,369.120483 247.707764,369.876221 249.639771,370.225555 
	C259.330414,371.977570 269.075958,373.124603 278.946411,372.648712 
	C281.308655,372.534821 283.975311,372.770935 285.236176,368.953491 
	C271.474670,366.897705 256.674316,367.866302 246.382095,354.167419 
	C254.381516,353.742462 260.753448,355.554016 267.158813,357.040161 
	C274.468567,358.736206 281.776428,360.549438 289.357361,359.398529 
	C291.066620,359.139038 293.384918,358.909332 293.818512,356.776062 
	C294.316833,354.324524 291.774353,354.145721 290.327393,353.237549 
	C287.524963,351.478638 283.833618,350.872711 282.204834,347.119598 
	C286.251953,344.624481 292.446136,347.198669 294.744263,341.483734 
	C293.005646,339.303864 290.607086,338.976532 288.453125,338.214539 
	C278.089142,334.548279 267.635895,331.114380 257.636383,326.498169 
	C255.738235,325.621887 253.016144,324.934296 253.404709,322.287598 
	C253.781708,319.719635 256.591888,319.550293 258.641541,319.245789 
	C263.244385,318.561859 267.908905,318.302979 272.522858,317.682007 
	C280.937561,316.549438 283.286163,311.750305 278.880371,304.365936 
	C274.203003,296.526459 266.963470,292.479736 258.043488,291.361267 
	C250.438950,290.407776 242.750229,289.839966 235.925186,285.841461 
	C233.582153,284.468781 230.488312,283.627075 231.705963,279.631622 
	C232.211349,277.973267 230.479370,277.532990 229.292725,276.961700 
	C219.732925,272.359192 210.867035,278.920471 211.028946,290.481476 
	C211.109741,296.250397 212.387741,297.688995 218.130615,297.483185 
	C224.133621,297.268005 230.113327,297.288635 236.111343,297.601105 
	C239.512283,297.778290 241.423508,299.227417 241.730698,302.625031 
	C241.910400,304.612610 242.180954,306.618866 242.082031,308.600311 
	C241.516205,319.933350 244.056915,330.098083 252.761688,338.061188 
	C252.902863,338.190338 252.732224,338.660370 252.707260,338.969177 
	C252.414551,339.140747 252.131454,339.454620 251.860931,339.444183 
	C232.604767,338.698120 213.728577,342.556732 194.664017,343.956879 
	C183.838806,344.751923 174.607605,338.879761 166.852493,331.311096 
	C166.605881,331.070404 166.760620,330.418457 166.733963,330.039368 
	C167.698746,329.166016 168.695526,329.364288 169.685410,329.427429 
	C178.340332,329.979523 187.013000,330.179932 195.659378,329.591125 
	C202.455948,329.128296 209.325714,328.488983 215.456207,325.088348 
	C217.952225,323.703766 220.700684,322.184540 220.035217,317.334229 
	C193.525467,327.250366 167.817627,325.515625 142.690414,313.415649 
	C156.108475,310.557495 170.448425,312.871582 182.945709,305.527252 
	C168.714905,305.587830 154.631287,308.224579 140.431076,306.920410 
	C126.286499,305.621429 112.568367,302.775024 99.461197,295.874054 
	C101.547272,293.911224 103.188309,293.726105 104.867943,293.660065 
	C113.352455,293.326447 121.838112,293.019348 130.321060,292.649719 
	C135.322189,292.431824 140.312302,291.964325 144.984970,290.017242 
	C147.195358,289.096222 149.567993,288.054596 149.562973,284.489319 
	C138.044830,283.767975 126.762779,283.315155 115.532341,282.294495 
	C101.156540,280.987946 87.265877,277.706116 74.688751,270.208099 
	C73.124870,269.275787 70.975449,268.672852 70.858582,265.691803 
	C112.221184,268.593658 152.751038,264.263184 193.297363,256.478027 
	C191.520020,250.517502 187.788300,250.377060 183.771896,250.353989 
	C177.268723,250.316650 170.886459,249.709030 166.337540,243.839920 
	C169.744919,239.593826 175.044861,240.081573 178.850830,237.604797 
	C171.458435,227.752029 168.458374,225.157379 158.826965,219.539780 
	C156.399506,218.123917 153.273438,217.205719 152.554932,213.457138 
	C156.718491,211.815308 160.712265,210.217194 164.724335,208.666351 
	C167.479721,207.601303 167.702194,205.528030 167.361923,202.961227 
	C166.963379,199.954758 164.770599,200.351288 162.848557,200.347809 
	C156.683929,200.336670 150.513901,200.453918 144.415268,199.346756 
	C141.899017,198.889938 139.005142,198.937958 137.990112,195.207993 
	C143.177841,193.010757 148.612366,192.479568 153.976395,191.627075 
	C158.079590,190.974976 162.188538,190.311813 166.244156,189.422195 
	C169.624115,188.680771 170.865906,185.886810 170.382278,182.944550 
	C169.861893,179.778671 167.033966,180.524078 164.688843,180.767395 
	C156.415604,181.625732 148.147842,182.610733 139.852234,183.154480 
	C134.075150,183.533173 128.264847,184.692902 122.456573,183.350784 
	C119.327477,182.627747 115.931343,182.276276 114.725746,178.339035 
	C116.291695,177.186996 117.829453,177.483124 119.271126,177.548538 
	C128.306610,177.958405 137.236496,176.884155 146.155273,175.683945 
	C150.658661,175.077957 154.916992,173.676468 158.782135,171.243530 
	C159.896423,170.542130 161.191681,169.734131 160.982101,168.184036 
	C160.751755,166.480652 159.213379,166.497940 157.890747,166.267746 
	C151.608368,165.174377 145.325150,165.066940 138.990341,165.863235 
	C127.932961,167.253159 116.919884,169.141647 105.735764,169.240143 
	C103.736450,169.257751 101.425018,169.786438 99.596909,167.165268 
	C104.484558,164.195053 109.723915,163.313248 114.906029,162.684296 
	C125.167076,161.438919 135.430634,160.320877 145.144485,156.504517 
	C147.028229,155.764420 149.507721,155.506882 149.791458,152.468948 
	C147.116989,150.271927 144.009537,151.021057 141.326065,151.851349 
	C131.909576,154.764908 122.189972,156.159576 112.553421,157.907974 
	C99.659554,160.247345 86.994469,164.420822 73.622124,163.314163 
	C67.910980,162.841522 62.229427,162.205658 57.043297,158.305328 
	C59.521622,156.049713 62.023911,155.930847 64.430481,155.598740 
	C82.424294,153.115570 100.516068,151.561295 118.596886,149.902405 
	C124.126923,149.395035 129.504044,148.365448 134.020203,144.810913 
	C134.925613,144.098297 135.863785,143.214417 135.531937,141.874161 
	C135.183914,140.468613 133.901596,140.276733 132.746552,140.232254 
	C130.086899,140.129852 127.420235,140.215820 124.759819,140.125290 
	C113.255684,139.733887 102.856087,145.753220 91.389519,145.776703 
	C85.409912,145.788940 79.419930,146.333221 73.455048,146.865845 
	C57.061855,148.329605 40.803524,151.645935 24.212126,150.329041 
	C20.721298,150.051956 17.174824,150.092865 12.534636,147.679916 
	C18.919453,145.811401 23.993921,144.453400 28.983976,142.835114 
	C35.831291,140.614502 42.652313,138.177917 47.132500,132.034836 
	C51.012650,126.714500 50.247860,124.887375 44.038834,123.034340 
	C40.214825,121.893097 36.404682,120.632774 32.722073,119.103775 
	C21.132921,114.292007 12.492607,106.377541 7.797069,94.554642 
	C6.921584,92.350250 5.599643,90.084343 6.981757,86.965080 
	C13.973922,89.523842 20.745249,92.214081 27.657827,94.471848 
	C34.601669,96.739838 41.667088,98.851837 50.356731,96.578972 
	C42.227074,90.965714 35.155602,86.283142 28.685266,80.788208 
	C19.198309,72.731407 10.786169,63.795380 5.624029,52.278275 
	C4.392365,49.530350 2.578225,46.733147 3.969279,42.718075 
	C20.865160,47.290668 37.296898,53.504894 54.948353,53.820530 
	C46.391777,49.157257 37.947189,44.473812 30.105745,38.809227 
	C24.004513,34.401756 18.179188,29.646605 14.480608,22.886240 
	C12.659525,19.557617 10.873656,16.133837 12.309399,11.665040 
	C17.224892,13.707580 21.912310,15.726230 26.660830,17.589138 
	C28.270802,18.220753 30.211420,19.674820 31.717546,17.876106 
	C33.160889,16.152378 31.499622,14.428629 30.755146,12.846453 
	C28.939068,8.986870 25.620937,5.741041 26.000000,1.000000 
	C26.444445,1.000000 26.888889,1.000000 27.923609,1.237070 
	C29.413355,1.893529 30.284933,2.391943 31.216391,2.720712 
	C52.760216,10.324875 74.968643,15.639378 96.932625,21.799347 
	C116.655708,27.330839 136.758575,31.535707 156.146469,38.219200 
	C184.508102,47.996170 209.489838,64.082176 233.263733,81.832542 
	C255.371033,98.338570 278.176270,113.445717 303.161499,125.186630 
	C304.586090,125.856064 306.435303,126.190765 306.787170,129.098251 
	C282.956390,123.027390 259.411377,121.870628 235.672791,129.640244 
	C237.487503,134.497971 240.601166,133.959854 243.519608,133.356934 
	C254.472763,131.094131 265.508820,129.495926 276.688538,129.050613 
	C293.933075,128.363724 310.404572,132.327423 326.707855,137.390228 
	C329.106659,138.135162 331.603333,139.668289 334.261292,138.319153 
	C334.653778,137.177139 333.922455,136.633331 333.391418,136.025177 
	C331.164551,133.474960 327.768555,134.487610 325.028931,133.268478 
	C301.243530,122.683960 277.934570,111.133629 256.551147,96.240311 
	C234.956116,81.199600 213.968948,65.285828 191.064255,52.198277 
	C189.966797,51.571201 188.602921,50.949989 189.002701,49.053902 
	C189.670441,48.106621 190.821289,47.888901 191.956116,47.633247 
	C211.015869,43.339520 230.298584,40.600636 249.833160,40.184956 
	C259.468414,39.979927 268.709290,42.134144 276.910614,47.600090 
	C281.900360,50.925591 286.838379,54.329517 291.855713,57.612476 
	C299.016418,62.297909 306.611481,65.568291 315.190826,67.252869 
	C348.024750,73.699883 377.508392,86.602715 399.387177,113.250923 
	C417.705475,135.562454 438.037872,155.316269 463.953796,169.090729 
	C477.880127,176.492661 483.906372,190.055557 485.062469,205.602875 
	C485.249329,208.115646 485.862488,210.962143 482.931030,213.353714 
	C468.327240,206.758682 452.803741,202.493439 436.943420,199.386581 
	C434.879883,198.982346 434.454865,197.329987 434.143463,195.687607 
	C432.296661,185.947174 426.251831,179.397812 418.098938,174.433762 
	C403.224182,165.376953 386.987671,159.239746 370.982758,152.634430 
	C366.632416,150.839050 362.373688,148.557983 356.224487,147.552673 
	C359.634216,150.621124 362.650055,151.517822 365.492401,152.684738 
	C381.980682,159.453949 398.606354,165.927200 414.215759,174.632492 
	C424.179718,180.189377 430.920715,188.056351 432.632782,199.844193 
	C433.450867,205.476883 434.155823,211.338501 438.054443,216.768265 
	C437.705261,211.614944 434.148926,207.581039 435.826599,202.691635 
	C439.190948,201.979370 442.301178,202.821548 445.284943,203.619202 
	C474.934387,211.545151 503.132538,222.827484 528.489502,240.435318 
	C543.105286,250.584534 556.338684,262.183746 565.620850,277.677155 
	C571.036743,286.717163 574.346985,296.445190 573.983948,307.056000 
	C573.860474,310.664734 574.718445,313.233459 576.984497,316.047272 
	C585.737854,326.916382 588.118347,339.272644 584.043396,352.638672 
	C582.854370,356.538818 581.014771,360.365906 576.760986,361.940796 
	C576.249634,361.586578 575.893494,361.456116 575.722534,361.201416 
	C574.983276,360.099548 574.298889,358.960815 573.593018,357.836395 
	C565.671875,345.218262 554.451416,337.203278 539.963806,333.764008 
	C536.987488,333.057465 534.276733,333.597046 532.228516,335.983093 
	C530.179871,338.369537 530.960815,340.944092 532.019165,343.496643 
	C533.611023,347.335663 536.702515,349.891235 539.596436,352.657745 
	C541.195618,354.186584 543.677734,355.016113 544.127869,358.050293 
	C538.598022,359.658325 533.669373,357.725922 529.526794,354.890198 
	C523.159241,350.531403 515.917114,347.816040 509.557983,343.648163 
	C493.012482,332.804016 474.902313,328.681976 455.393280,329.415253 
	C444.045288,329.841766 432.799103,329.191620 421.637604,326.702332 
	C409.373810,323.967133 397.879333,325.848663 387.894012,334.132751 
	C389.569763,333.705750 391.110779,332.883423 392.743286,332.331940 
	C398.577515,330.361206 403.920624,326.052338 410.757050,328.894470 
	C414.902802,330.618011 419.220337,331.899200 423.175842,334.111572 
	C439.857880,343.442047 452.614044,356.857330 463.155457,372.544922 
	C465.951843,376.706543 468.922089,380.682526 472.291199,384.402588 
	C489.102997,402.965546 507.465057,419.904236 526.497070,436.128235 
	C541.167542,448.634247 552.125977,447.524078 564.411621,432.585876 
	C564.729187,432.199768 565.065125,431.825806 565.351868,431.417664 
	C567.408020,428.491150 570.341980,427.215332 573.776123,426.619659 
	C581.071899,425.354187 587.132080,428.282379 593.000000,432.000000 
M339.598694,254.173218 
	C334.706116,257.956879 329.366577,261.020294 323.982391,264.035156 
	C320.214600,266.144928 317.621674,265.762848 315.556732,261.597260 
	C312.599823,255.632187 309.210876,249.882553 306.060455,244.011932 
	C299.256378,231.332932 301.365814,227.589584 315.697021,226.515244 
	C318.272827,226.322159 321.176788,226.690506 323.342865,224.473282 
	C322.220245,223.102234 320.961945,223.314743 319.856079,223.312256 
	C293.696930,223.253510 267.537689,223.224487 241.378479,223.222366 
	C239.957672,223.222244 238.203613,222.994797 238.160278,225.251801 
	C238.748703,226.641998 240.022446,226.594788 241.143463,226.732498 
	C248.122253,227.589844 252.866409,231.367416 256.575317,237.293427 
	C262.681580,247.049805 268.189240,257.126343 273.691589,267.215576 
	C274.231659,268.205872 274.915619,269.263550 273.646454,270.873138 
	C255.995743,268.564789 242.223465,260.317017 234.396194,243.633636 
	C227.511490,228.959244 225.546402,213.299393 226.930725,197.303055 
	C227.960800,185.400085 231.074539,173.930466 238.423904,164.218948 
	C264.877319,129.263168 330.352631,135.555725 345.854553,176.505066 
	C346.540680,178.317535 347.087036,180.823669 349.635834,180.447021 
	C352.331055,180.048721 351.821136,177.440521 351.833130,175.544296 
	C351.912140,163.048416 351.928162,150.551987 351.906830,138.055832 
	C351.903809,136.279694 352.153168,134.066437 349.751892,133.572327 
	C347.602051,133.129990 347.141144,135.156662 346.320160,136.558289 
	C343.135681,141.995178 338.624481,144.091736 332.447174,142.702759 
	C327.903656,141.681152 323.396576,140.453140 318.939331,139.099503 
	C299.199066,133.104553 279.066864,131.208420 258.710175,134.418335 
	C233.655884,138.369019 211.495697,148.306442 194.790863,168.204742 
	C184.036453,181.015076 177.378754,195.649048 178.581833,212.616165 
	C180.137146,234.551056 191.358932,251.280380 209.406967,263.207581 
	C229.215530,276.298279 251.591766,280.847870 275.018158,280.791351 
	C279.558258,280.780396 282.276733,282.227753 284.515381,286.323059 
	C298.336823,311.607269 312.400604,336.759186 326.447693,361.919464 
	C327.697296,364.157654 328.439117,367.300537 331.602081,367.524963 
	C335.236389,367.782928 335.925659,364.278259 337.274384,361.976807 
	C350.413391,339.556549 363.351868,317.018311 376.557739,294.637756 
	C387.052063,276.852478 396.786804,258.610077 408.296265,241.432007 
	C413.007080,234.401093 419.386353,229.567657 427.550354,227.119293 
	C428.828094,226.736099 430.760101,226.947983 430.833923,223.299194 
	C411.705170,223.066071 392.634735,222.915298 373.561035,224.015167 
	C376.114044,226.337952 376.114044,226.337921 379.743866,226.622528 
	C395.619904,227.867294 400.114868,235.144943 392.516724,249.067810 
	C379.753571,272.455017 366.322510,295.477936 353.130737,318.630341 
	C352.353088,319.995148 351.718781,321.769257 349.598846,321.638702 
	C349.307739,321.418884 348.943451,321.277161 348.797089,321.014160 
	C340.618195,306.318970 332.469269,291.607086 324.285034,276.914886 
	C322.660706,273.998962 324.225006,272.716614 326.661652,271.613403 
	C333.212616,268.647369 339.227661,264.774017 345.118530,260.672089 
	C349.477936,257.636566 349.476593,253.783524 347.944977,249.235168 
	C344.329712,249.405273 342.618347,252.224991 339.598694,254.173218 
M33.545147,64.904358 
	C38.318783,67.385773 43.475937,68.794418 48.483768,70.562325 
	C57.160873,73.625580 65.125778,78.449905 74.857483,76.744965 
	C75.955681,76.552574 76.768379,77.241531 77.406570,78.038559 
	C78.880409,79.879204 80.963463,80.483635 83.125061,80.756058 
	C89.065247,81.504684 95.049316,82.867950 100.959236,82.622215 
	C106.840469,82.377686 112.662392,82.270821 118.535164,82.547646 
	C120.526711,82.641533 122.865868,82.526489 124.379189,80.789124 
	C124.350670,79.783356 123.775688,79.411942 123.125259,79.254051 
	C90.330612,71.293282 56.612209,67.688278 23.881416,58.608829 
	C26.886330,60.597038 29.891243,62.585247 33.545147,64.904358 
M87.159637,34.558510 
	C88.638489,33.943947 90.117340,33.329384 91.854614,32.607430 
	C94.815102,39.928013 101.983711,39.545284 107.776398,41.115528 
	C113.572571,42.686726 119.760178,47.115746 126.114853,40.337101 
	C127.895996,47.477467 133.400040,47.322346 138.481033,47.989944 
	C142.271820,48.488026 146.045761,49.164856 149.850555,49.482841 
	C151.591537,49.628342 153.626862,50.289970 156.152573,48.042492 
	C121.526527,36.053711 86.134369,30.123196 52.038383,19.456808 
	C63.467945,24.628916 74.416786,30.809673 87.159637,34.558510 
M96.917053,59.528160 
	C103.459045,60.238026 109.744766,66.074577 116.451591,60.359657 
	C121.126884,65.151077 128.817245,66.472015 136.925980,63.522728 
	C104.087799,54.838913 72.447029,44.853539 40.968567,34.275776 
	C45.945938,37.639977 50.965992,40.556332 56.471558,42.974049 
	C62.037247,45.418171 67.360283,48.989674 73.131912,51.426701 
	C76.175446,52.711819 79.251297,53.891972 82.106674,51.205498 
	C85.796638,56.362244 85.796638,56.362244 96.917053,59.528160 
M95.772911,116.423706 
	C103.100777,114.168861 111.144890,114.482422 118.033920,110.265633 
	C89.920113,108.875572 61.790333,110.946800 33.816841,106.789490 
	C39.484947,111.660957 46.682270,112.287033 53.187023,114.317406 
	C59.765961,116.370949 67.071983,115.447861 73.874344,115.870941 
	C80.842720,116.304337 87.882011,116.386749 95.772911,116.423706 
M279.500183,214.366562 
	C266.197723,214.373840 252.895233,214.374695 239.592804,214.397385 
	C238.101501,214.399918 236.591675,214.405563 235.125183,214.633438 
	C233.966324,214.813522 232.804443,215.363266 232.826279,216.822052 
	C232.846893,218.198898 233.874146,218.885529 235.053314,219.156357 
	C236.173553,219.413635 237.352722,219.511078 238.506210,219.512680 
	C264.445923,219.548676 290.385681,219.572662 316.325409,219.556610 
	C318.231140,219.555435 320.377747,219.940979 321.700928,217.770432 
	C320.860352,214.253082 318.083069,214.379669 315.419128,214.376205 
	C303.779480,214.361069 292.139862,214.367905 279.500183,214.366562 
M378.561462,214.381683 
	C375.902344,214.390091 373.240723,214.332626 370.585083,214.433075 
	C369.132263,214.488022 367.239288,214.454391 367.295258,216.551376 
	C367.342682,218.328537 368.986877,218.859924 370.502258,219.140503 
	C371.309662,219.289978 372.156555,219.248550 372.985870,219.253937 
	C390.268494,219.366272 407.551056,219.495087 424.833862,219.549316 
	C426.733032,219.555283 428.787750,220.120667 430.762604,218.630966 
	C428.794006,215.419846 426.072510,214.304291 422.422852,214.334045 
	C408.130219,214.450562 393.836090,214.383408 378.561462,214.381683 
M42.439125,80.365913 
	C48.768307,85.071114 55.738071,88.539276 63.157047,91.159828 
	C66.478271,92.332962 69.769707,93.790886 72.036873,91.366280 
	C87.027229,98.064095 101.852020,96.371704 116.659935,95.222824 
	C116.369850,94.401611 116.026344,94.012749 115.616325,93.920921 
	C114.485489,93.667686 113.332573,93.476463 112.178314,93.369766 
	C89.089561,91.235558 66.194038,88.160133 44.359909,79.749329 
	C43.790165,79.529846 42.547123,77.859344 42.439125,80.365913 
M299.488403,87.880569 
	C302.023743,87.787048 304.651520,88.282677 307.068359,86.594879 
	C286.506409,82.532631 268.250793,69.365540 245.953964,71.221542 
	C246.460831,72.900551 247.411499,72.834366 248.146240,73.005074 
	C258.363800,75.378929 268.153717,79.001389 277.896454,82.838173 
	C284.525421,85.448708 291.272369,87.905876 299.488403,87.880569 
M72.618355,132.150589 
	C70.131248,132.051804 67.637077,132.039368 65.158493,131.836487 
	C59.802231,131.398041 57.096695,134.365433 54.821968,140.276749 
	C74.158119,137.631821 92.800629,137.151733 110.814911,131.787704 
	C98.378632,132.657562 85.983994,132.648819 72.618355,132.150589 
M235.311798,59.125793 
	C253.620895,60.954197 269.718475,71.218430 288.074860,73.061424 
	C279.581604,68.895508 271.661743,63.578495 262.579468,60.938496 
	C253.696838,58.356537 244.685043,55.803272 235.311798,59.125793 
M248.249771,51.932800 
	C252.653610,52.773430 257.065399,53.574852 261.459076,54.465656 
	C265.898834,55.365807 269.910461,57.406788 274.005035,59.247356 
	C277.897003,60.996853 281.882721,62.537838 285.827209,64.170509 
	C265.611816,48.841324 243.770386,43.591911 230.577637,50.507118 
	C236.487259,50.981735 241.918579,51.417942 248.249771,51.932800 
M173.648499,297.198334 
	C177.108139,295.662354 181.203186,295.165924 183.644394,291.432556 
	C179.172714,290.215088 147.046326,296.771912 141.896957,299.778290 
	C152.423920,301.311676 162.746140,300.515686 173.648499,297.198334 
M379.873962,110.581429 
	C381.958679,111.948288 383.955750,113.553383 387.898529,113.626892 
	C375.412872,100.675827 363.031708,89.758881 346.505737,83.496536 
	C346.994720,85.823105 348.246094,86.410202 349.416351,86.961891 
	C355.529877,89.843857 360.512451,94.269279 365.514709,98.666153 
	C370.009155,102.616623 374.091736,107.057991 379.873962,110.581429 
M170.134140,274.608887 
	C173.208603,274.370117 176.296036,274.187683 179.502258,272.802429 
	C170.876526,268.076202 147.603836,269.891876 140.802505,275.630676 
	C150.389206,276.157349 159.813858,275.476410 170.134140,274.608887 
M531.761353,298.826263 
	C535.671692,299.803955 539.450073,300.008514 542.977844,297.108063 
	C540.953613,293.499329 537.685791,294.637634 534.907166,294.379486 
	C528.931152,293.824310 526.290527,289.235229 529.275940,284.335876 
	C530.397522,282.495270 532.470886,280.596313 529.564026,279.012817 
	C527.106995,277.674316 525.629333,279.983459 524.468872,281.754913 
	C520.492798,287.824585 523.179749,294.626465 531.761353,298.826263 
M203.261536,310.534149 
	C195.767395,308.733307 190.487839,314.267944 184.029770,316.010132 
	C190.435547,316.938110 196.644531,316.539429 202.698975,314.700287 
	C204.763214,314.073242 207.589172,313.337585 203.261536,310.534149 
M240.934540,244.353592 
	C241.582779,244.232498 242.273529,244.215729 242.871765,243.971924 
	C245.234879,243.008896 248.268433,243.457443 249.802277,240.816666 
	C249.982132,240.506989 249.458984,239.335602 249.065918,239.217987 
	C245.816025,238.245422 242.879044,239.644043 240.077896,240.928452 
	C238.152954,241.811081 238.543884,243.230438 240.934540,244.353592 
M349.101349,126.851898 
	C347.369080,123.577576 345.409058,124.072548 342.991669,126.395378 
	C344.901367,128.896912 346.705597,129.847305 349.101349,126.851898 
M473.317474,192.755890 
	C473.081146,190.330795 472.351501,188.166580 470.183777,186.750534 
	C471.535156,188.745865 469.318390,192.370453 473.317474,192.755890 
z"/>
</svg>